<?xml version="1.0" encoding="UTF-8"?>
<svg width="1133px" height="866px" viewBox="0 0 1133 866" version="1.1" xmlns="http://www.w3.org/2000/svg" xmlns:xlink="http://www.w3.org/1999/xlink">
    <!-- Generator: Sketch 52.3 (67297) - http://www.bohemiancoding.com/sketch -->
    <title>undraw_workout_gcgu</title>
    <desc>Created with Sketch.</desc>
    <defs>
        <linearGradient x1="50.0015855%" y1="99.9958744%" x2="50.0015855%" y2="-0.00452722186%" id="linearGradient-1">
            <stop stop-color="#808080" stop-opacity="0.25" offset="0%"></stop>
            <stop stop-color="#808080" stop-opacity="0.12" offset="54%"></stop>
            <stop stop-color="#808080" stop-opacity="0.1" offset="100%"></stop>
        </linearGradient>
    </defs>
    <g id="Page-1" stroke="none" stroke-width="1" fill="none" fill-rule="evenodd">
        <g id="undraw_workout_gcgu">
            <path d="M1111,230.435632 C1099.78601,204.844438 1084.63286,181.102987 1066.07278,160.0452 L442.747578,154.006778 L955.954237,83.1285021 C922.800925,70.1459259 887.505026,63.259749 851.822314,62.8125203 C751.005838,-16.4260824 609.231412,-21.1433703 503.198117,51.2126801 C461.934486,30.354258 416.191325,19.514624 369.794594,19.6004052 C231.297483,19.6004052 115.886898,113.916863 90,239 L1111,230.435632 Z" id="Path" fill="#6C63FF" opacity="0.1"></path>
            <path d="M1132.9999,334.982476 C1133.02917,301.06996 1126.43278,267.467395 1113.56904,236 L33.0059928,347.479935 C21.8632174,367.288851 13.3396868,388.415276 7.64221618,410.346597 L342.256597,459.382594 L0,495.151557 C10.2998989,636.720778 133.77738,748.515046 284.614657,748.515046 C360.540571,748.515046 429.541071,720.181692 480.654595,673.985534 C531.944563,721.059657 601.595699,750 678.337665,750 C792.209994,750 890.489115,686.27705 936.25419,594.134033 C1028.08209,565.497185 1099.40944,493.569052 1123.82483,403.593851 L700.712927,339.036292 L1132.9999,339.036292 C1132.97785,337.681407 1132.9999,336.337361 1132.9999,334.982476 Z" id="Path" fill="#6C63FF" opacity="0.1"></path>
            <ellipse id="Oval" fill="#F8E71C" cx="316.5" cy="825.5" rx="250.5" ry="40.5"></ellipse>
            <path d="M575.430523,565.843356 C564.174781,568.619397 552.621384,563.21913 552.621384,563.21913 C552.621384,563.21913 542.76572,551.995684 534.453448,550.477537 C526.141177,548.959389 522.9221,562.243178 517.983244,565.65901 C514.565732,568.055514 489.915547,566.342176 474.988735,565.062595 L472.420089,564.834873 C472.166531,564.650526 471.912974,564.455336 471.637368,564.281833 C471.637368,564.281833 457.305865,559.944269 454.318298,556.105526 C451.330731,552.266782 431.365845,545.164021 425.170226,545.576089 C418.974607,545.988158 400.663356,546.96411 400.663356,546.96411 C400.663356,546.96411 393.48658,538.928773 390.245455,539.763754 C387.004331,540.598735 375.737565,539.698691 375.737565,539.698691 C375.737565,539.698691 372.639755,531.869388 369.541946,520.645942 C368.097771,515.408334 363.291206,511.732248 358.583858,509.314056 C362.817164,495.216974 355.276588,455.007758 331.861117,447.145924 C326.756897,445.432586 324.144154,439.739534 319.800606,436.616488 C315.909052,433.829603 309.537045,427.258194 312.656903,415.384113 C317.066596,398.7604 328.002635,372.583203 328.002635,372.583203 L336.149544,356.577593 C335.38954,357.711549 334.52608,358.775034 333.569873,359.754858 C334.672296,358.366838 335.77472,357.000505 336.722804,355.851051 C344.852851,359.890257 353.720263,362.293885 362.806139,362.92128 C372.00035,366.575677 381.183536,369.796318 384.755387,369.677035 C392.924344,369.395093 413.760145,379.653432 413.760145,379.653432 C413.760145,379.653432 463.887332,393.750514 474.305233,394.889124 C484.723133,396.027735 489.79428,382.70057 489.79428,382.70057 C489.79428,382.70057 495.207179,356.425778 485.594047,349.463988 C475.980916,342.502198 470.39163,374.40498 470.39163,374.40498 L404.808467,351.155638 L400.762574,349.062763 C403.904027,345.793295 406.39775,341.975986 408.115737,337.806785 C409.129967,335.32353 410.056002,332.482426 412.470309,331.24622 C413.120005,330.928763 413.821666,330.726847 414.542865,330.649805 C415.141228,330.611866 415.741453,330.611866 416.339815,330.649805 C427.716824,331.332971 437.495318,340.138226 448.894375,340.181602 C449.313296,340.181602 449.732217,340.181602 450.151138,340.181602 C452.324143,340.175284 454.446176,339.533611 456.247539,338.338137 C458.303159,336.692135 459.572598,334.281172 459.753245,331.679977 C459.587083,332.02867 459.403111,332.368879 459.202033,332.699304 C459.499565,331.104103 459.499565,329.468965 459.202033,327.873764 C458.496482,324.067552 456.479048,320.651721 454.671073,317.214201 C454.159839,316.412191 453.870981,315.492497 453.833232,314.5466 C453.937008,313.548822 454.45075,312.636079 455.255358,312.019969 C455.272127,312.122222 455.294204,312.223564 455.321503,312.323598 C456.180717,311.528478 457.135951,310.84016 458.165755,310.274099 C463.797932,306.640857 467.646064,300.872764 468.793116,294.344397 C468.51751,295.146846 468.186783,295.938451 467.834008,296.719213 C469.52971,291.214464 469.11795,285.289527 466.676463,280.062968 C466.044212,278.575475 465.03454,277.272423 463.744017,276.278443 C459.631978,273.437339 454.108838,276.46279 449.092812,276.788107 C444.683118,277.070049 440.405716,275.128989 436.425968,273.166241 C429.63504,269.815473 422.877185,266.193608 417.221754,261.237941 C410.794626,255.566576 406.021133,248.333689 400.222386,242.055065 C394.42364,235.776442 386.982282,230.180985 378.350308,229.552038 C362.662824,228.359208 347.868303,243.64912 332.952516,238.660922 C325.676522,236.24273 320.892005,229.627945 315.831882,223.945737 C310.771759,218.263528 303.815468,212.809042 296.230796,214.034403 C290.961212,214.901916 286.39718,218.925007 281.061451,218.773192 C278.27232,218.686441 275.681625,217.461079 273.035809,216.60441 C266.63073,214.489848 257.85544,215.520019 255.573424,221.787799 C254.665835,224.372158 254.968596,227.21921 256.400242,229.562882 C256.062925,230.028457 255.760785,230.517746 255.496255,231.02681 C254.948292,232.020221 254.75792,233.1667 254.956067,234.279982 C245.722255,242.43273 241.725433,254.879279 244.522868,266.770131 C247.320302,278.660982 256.469476,288.115161 268.405631,291.449073 C268.615092,292.240678 268.824552,293.032283 269.022989,293.834733 C271.16169,302.694207 272.275137,312.670603 269.111182,319.393827 C268.912746,319.805896 268.703286,320.20712 268.471777,320.597501 L268.196171,320.716784 L268.317438,320.836067 L268.196171,320.716784 L267.799299,320.31556 L265.396016,317.843148 C265.263725,315.262298 263.786478,308.343884 253.511893,295.504695 C239.985159,278.59904 237.449585,250.621754 237.449585,250.621754 C237.449585,250.621754 234.07617,236.221042 237.449585,232.067825 C240.823,227.914608 246.467408,182.185842 246.467408,182.185842 L255.793909,156.442401 C255.793909,156.442401 301.136579,111.00642 282.252068,105.476026 C269.430885,101.71319 254.140274,121.1021 245.651614,133.919601 C241.48213,140.213326 238.786074,147.339534 237.758264,154.783283 L212.126922,223.76139 C212.126922,223.76139 209.591348,232.078669 212.126922,246.47938 C214.662495,260.880092 220.295878,286.374123 220.295878,286.374123 L234.627381,322.104805 C234.627381,322.104805 239.907989,337.535688 239.444971,344.237224 C238.81659,344.638448 236.611743,348.932636 234.704551,352.836444 L233.304473,355.005226 L233.205255,355.883582 C232.268195,357.84633 231.617766,359.256038 231.617766,359.256038 C231.617766,359.256038 223.636221,382.429473 230.305882,396.645838 C236.975543,410.862203 237.240125,417.4553 237.240125,417.4553 L242.212054,438.514172 L244.284609,456.948818 L262.165916,500.443739 L278.63612,523.573797 C278.63612,523.573797 277.092727,540.609579 273.708288,542.962707 C270.323848,545.315836 271.878265,557.50439 271.878265,557.50439 L269.761612,589.493923 C269.761612,589.493923 263.147072,599.058251 262.728151,614.565041 C262.309231,630.071832 259.905948,634.517834 259.905948,634.517834 C259.905948,634.517834 258.803524,647.530526 261.879285,653.494676 C264.955046,659.458826 256.951453,665.68323 256.951453,665.68323 L263.81955,688.878352 L261.140662,718.243659 C261.140662,718.243659 262.3864,718.57982 264.447932,719.089484 L264.029011,721.193202 L252.82839,776.822457 C252.82839,776.822457 246.776086,792.068994 246.50048,795.658328 L226.921442,830.434746 C226.921442,830.434746 210.583529,846.364448 218.333565,847.882596 C226.083601,849.400743 248.617133,835.694042 248.617133,835.694042 C248.617133,835.694042 267.20399,816.02319 274.524081,814.233945 C281.844172,812.4447 289.958007,807.293843 287.62087,799.822389 C285.283732,792.350936 279.903907,780.986519 285.085296,768.928091 C288.392566,761.337355 295.426027,740.733927 300.254641,726.354903 C300.519222,725.563298 300.77278,724.804224 301.026337,724.066838 C302.303524,723.953834 303.566344,723.71775 304.796625,723.361984 C316.625627,719.761806 322.821246,722.277593 322.821246,722.277593 L343.943676,638.204764 L348.584879,596.021956 L378.162896,620.290625 C384.015056,625.09172 391.280637,627.916202 398.888454,628.34765 C410.541068,629.019972 428.720029,630.67909 441.882963,634.680493 L447.39508,612.103474 C447.39508,612.103474 463.159733,612.667357 466.544173,607.397217 C467.922202,605.228435 469.278182,603.384971 470.39163,601.975262 L472.949252,601.584882 L542.721623,590.968694 C555.675097,590.968694 573.424112,582.369474 573.424112,582.369474 L584.271958,580.298287 C584.271958,580.298287 600.455532,577.110178 601.91073,574.475108 C603.365929,571.840038 586.708313,563.089003 575.430523,565.843356 Z" id="Path" fill="url(#linearGradient-1)"></path>
            <path d="M258.521832,227.710135 C260.724593,221.594725 269.337387,220.564647 275.604241,222.635646 C278.181471,223.481394 280.72566,224.684959 283.44607,224.804231 C288.666612,224.956032 293.127203,221.009207 298.281663,220.174301 C305.693953,218.959893 312.48947,224.294613 317.434668,229.857035 C322.379865,235.419456 327.071746,241.892683 334.186663,244.267284 C348.757925,249.10323 363.230063,234.183362 378.561278,235.343556 C386.975824,235.983288 394.244934,241.43728 399.917043,247.58522 C405.589152,253.733159 410.259005,260.802747 416.536873,266.354326 C422.043775,271.233643 428.652057,274.77928 435.315408,278.064687 C439.203281,279.983885 443.355485,281.881397 447.694923,281.599481 C452.60708,281.285036 458.003844,278.346603 462.012868,281.100706 C463.274537,282.074669 464.260637,283.351645 464.876457,284.808987 C469.810641,294.914595 465.834658,308.370667 456.175552,314.31259 C454.49044,315.342668 452.441873,316.481176 452.342749,318.465431 C452.374127,319.392239 452.655423,320.294138 453.15777,321.078577 C454.919979,324.439884 456.902463,327.790348 457.563291,331.509472 C458.22412,335.228596 457.332002,339.511552 454.25915,341.766881 C452.252842,343.080726 449.869968,343.723283 447.463634,343.599335 C436.317664,343.545121 426.757683,334.924994 415.633741,334.263575 C414.210267,334.103304 412.769148,334.320423 411.459509,334.892465 C409.102555,336.09603 408.155368,338.882662 407.197167,341.311478 C402.042707,353.986859 389.244667,362.802158 375.587551,365.220131 C361.930434,367.638104 347.667559,364.233425 335.442237,357.77104 C334.548413,357.350221 333.727099,356.7941 333.008186,356.122916 C331.987593,354.902644 331.267608,353.466459 330.904549,351.926703 C327.159856,340.270557 322.093507,328.072264 311.718504,321.338807 C304.989069,317.001636 295.858626,314.561978 292.807803,307.243002 C290.891401,302.613073 292.091905,297.354253 291.607298,292.366507 C290.633776,283.640047 284.671775,276.232593 276.26507,273.304642 C274.458806,272.708281 272.476321,272.285407 271.154665,270.930041 C270.081601,269.599362 269.396321,268.006441 269.17218,266.321797 C267.531123,258.981136 266.440757,251.228443 264.149886,244.061269 C262.398691,238.444633 256.175892,234.139991 258.521832,227.710135 Z" id="Path" fill="#000000"></path>
            <g id="Group" opacity="0.1" transform="translate(258.000000, 225.000000)" fill="#000000">
                <path d="M198.007895,112.572231 C195.987932,113.868366 193.598032,114.495541 191.188421,114.361846 C180.014211,114.361846 170.420526,105.684923 159.257368,105.034154 C157.829855,104.869905 156.383554,105.083359 155.068421,105.652385 C152.692105,106.856308 151.752632,109.643769 150.791053,112.073308 C145.618421,124.763308 132.764211,133.581231 119.058947,135.999923 C105.353684,138.418615 91.0405263,135.012923 78.7831579,128.548615 C77.8869085,128.126442 77.0628844,127.57028 76.3405263,126.9 C75.3183515,125.678088 74.5960711,124.241959 74.2294737,122.702538 C70.4715789,111.032077 65.3873684,98.841 54.9757895,92.0946923 C48.2115789,87.702 39.0489474,85.3266923 35.9984211,77.9946923 C34.0642105,73.3525385 35.2689474,68.0921538 34.7936842,63.1137692 C33.8199885,54.3799536 27.8302058,46.9672399 19.3863158,44.0462308 C17.5736842,43.4496923 15.5842105,43.0158462 14.2578947,41.6709231 C13.1797632,40.3375768 12.4954119,38.739323 12.2794737,37.0504615 C10.6215789,29.7184615 9.53842105,21.9526154 7.23947368,14.7941538 C5.69210526,10.0001538 0.817894737,6.11723077 1.06105263,0.997846154 C0.917943463,1.26816415 0.792428942,1.54710739 0.685263158,1.833 C-1.68,8.26476923 4.57578947,12.5706923 6.35526316,18.1022308 C8.65421053,25.2606923 9.73736842,33.0265385 11.3952632,40.3585385 C11.6112013,42.0474 12.2955526,43.6456537 13.3736842,44.979 C14.7,46.3239231 16.6894737,46.7577692 18.5021053,47.3543077 C26.9493097,50.2769958 32.9397973,57.694799 33.9094737,66.4326923 C34.3847368,71.4110769 33.18,76.6714615 35.1142105,81.3136154 C38.1647368,88.6781538 47.3273684,91.0751538 54.0915789,95.4136154 C64.4810526,102.170769 69.5652632,114.351 73.3452632,126.021462 C73.7118605,127.560882 74.434141,128.997012 75.4563158,130.218923 C76.1786739,130.889203 77.002698,131.445365 77.8989474,131.867538 C90.1563158,138.375231 104.425263,141.726692 118.174737,139.318846 C131.924211,136.911 144.701053,128.082231 149.906842,115.392231 C150.901579,112.962692 151.818947,110.175231 154.184211,108.971308 C155.499343,108.402282 156.945644,108.188828 158.373158,108.353077 C169.536316,109.014692 179.13,117.637385 190.304211,117.680769 C192.717469,117.804858 195.10767,117.166199 197.123684,115.858615 C199.142999,114.252477 200.391932,111.89555 200.572105,109.350923 C200.013694,110.623107 199.130547,111.732567 198.007895,112.572231 Z" id="Path"></path>
                <path d="M199.931053,85.0772308 C198.24,86.1618462 196.173158,87.2464615 196.073684,89.2313077 C196.063908,89.6296877 196.127562,90.0265235 196.261579,90.4026923 C197.101446,89.6228917 198.037078,88.9488507 199.046842,88.3961538 C204.57335,84.8440985 208.348245,79.1991499 209.469474,72.8102308 C207.835429,77.8607629 204.463641,82.1970907 199.931053,85.0772308 Z" id="Path"></path>
            </g>
            <path d="M287.313497,762.411465 C282.212853,774.24178 287.456712,785.376195 289.792212,792.726648 C292.127712,800.077101 284.151759,805.089762 276.991027,806.862134 C269.830296,808.634507 251.653055,827.92401 251.653055,827.92401 C251.653055,827.92401 229.620035,841.374469 222.040677,839.884806 C214.461318,838.395143 230.435257,822.75912 230.435257,822.75912 L249.581951,788.63823 C249.857364,785.115232 255.77323,770.153363 255.77323,770.153363 L266.72364,715.568637 L268.17782,708.316045 L307,706 C307,706 304.961946,712.219614 302.152736,720.624792 C297.426653,734.760279 290.508285,755.028392 287.313497,762.411465 Z" id="Path" fill="#CC818C"></path>
            <path d="M596.918084,572.31276 C595.544172,574.87082 579.749689,577.95554 579.749689,577.95554 L569.165077,579.965444 C569.165077,579.965444 551.853795,588.30601 539.213812,588.30601 L471.133762,598.613488 L462,600 L462,562.230993 C462,562.230993 466.594359,562.703912 473.101203,563.305809 C487.642679,564.552594 511.702613,566.20781 515.032974,563.886209 C519.847159,560.532785 523.001659,547.635003 531.10224,549.118248 C539.20282,550.601493 548.83119,561.478623 548.83119,561.478623 C548.83119,561.478623 560.097262,566.712973 571.088552,564.025935 C582.079842,561.338897 598.291995,569.7547 596.918084,572.31276 Z" id="Path" fill="#CC818C"></path>
            <path d="M473.488027,595.673214 C473.488027,595.673214 472.51428,596.75491 471.091953,598.604611 L462,600 L462,562 C462,562 466.573329,562.475946 473.050388,563.081697 C483.925721,571.573015 473.488027,595.673214 473.488027,595.673214 Z" id="Path" fill="#000000" opacity="0.1"></path>
            <path d="M342,586.957283 L378.619846,616.960371 C384.339391,621.641943 391.43878,624.396301 398.872481,624.817808 C410.253581,625.477097 428.018664,627.087494 440.918712,631 L446.290063,608.973237 C446.290063,608.973237 461.699676,609.513639 465.001737,604.379825 C466.941083,601.349017 469.100353,598.459391 471.462767,595.733402 C471.462767,595.733402 482.612723,570.204838 469.954827,562.369017 C469.954827,562.369017 455.921071,558.175502 453.026265,554.392692 C450.131459,550.609882 430.605278,543.725167 424.551501,544.125064 C418.497724,544.524961 400.611566,545.476068 400.611566,545.476068 C400.611566,545.476068 393.589185,537.640247 390.430214,538.450849 C387.271243,539.261451 376.253369,538.450849 376.253369,538.450849 C376.253369,538.450849 373.226481,530.809573 370.199593,519.86104 C367.172704,508.912506 349.154463,505 349.154463,505 L342,586.957283 Z" id="Path" fill="#565987"></path>
            <path d="M342,586.957283 L378.619846,616.960371 C384.339391,621.641943 391.43878,624.396301 398.872481,624.817808 C410.253581,625.477097 428.018664,627.087494 440.918712,631 L446.290063,608.973237 C446.290063,608.973237 461.699676,609.513639 465.001737,604.379825 C466.941083,601.349017 469.100353,598.459391 471.462767,595.733402 C471.462767,595.733402 482.612723,570.204838 469.954827,562.369017 C469.954827,562.369017 455.921071,558.175502 453.026265,554.392692 C450.131459,550.609882 430.605278,543.725167 424.551501,544.125064 C418.497724,544.524961 400.611566,545.476068 400.611566,545.476068 C400.611566,545.476068 393.589185,537.640247 390.430214,538.450849 C387.271243,539.261451 376.253369,538.450849 376.253369,538.450849 C376.253369,538.450849 373.226481,530.809573 370.199593,519.86104 C367.172704,508.912506 349.154463,505 349.154463,505 L342,586.957283 Z" id="Path" fill="#501BE3" opacity="0.359881882"></path>
            <path d="M325,317.525308 L320.960976,318.2709 L320.708537,318.2709 L320.115854,318.378957 L313.20122,319.643223 L311.071951,322.128531 L310.984146,322.214976 L304.146341,330.189573 L298.384146,335.754502 L298.329268,335.819336 L293.456098,340.487393 L285.213415,348.559242 L283.830488,351.91981 L280.823171,359.364929 L280.043902,361.255924 L271.812195,369.900474 L266.554878,380.976303 L254.262195,388 L241.036585,381.246445 L235,372.601896 L236.371951,360.218578 L236.646341,357.744076 L240.67439,351.379526 L244.329268,345.587678 L251.463415,335.592417 L265.182927,326.407583 L267.641463,325.770047 L270.396341,325.056872 C270.606881,324.761233 270.801065,324.454626 270.978049,324.138389 C271.210393,323.758492 271.419307,323.365174 271.603659,322.960569 C274.687805,316.412322 273.60122,306.676398 271.515854,298.042654 C269.917539,291.583978 267.799883,285.260716 265.182927,279.132701 L301.402439,274 C301.402439,274 301.05122,280.91564 301.05122,291.699716 C301.05122,294.401137 301.05122,297.329479 301.128049,300.463128 C301.303659,310.188246 310.479268,314.402464 317.404878,316.196209 C319.188326,316.66406 320.998972,317.024913 322.826829,317.276777 C324.165854,317.482085 325,317.525308 325,317.525308 Z" id="Path" fill="#CC818C"></path>
            <path d="M268.030645,322.526654 C268.030645,322.526654 269.679266,316.018953 256.490297,299.478545 C243.301329,282.938137 240.828397,255.551561 240.828397,255.551561 C240.828397,255.551561 237.531155,241.451541 240.828397,237.384228 C244.125639,233.316914 249.621043,188.576467 249.621043,188.576467 L258.688459,163.359124 C258.688459,163.359124 302.926458,118.889832 284.516856,113.466747 C272.009317,109.77905 257.039838,128.770691 248.807723,141.308863 C244.741574,147.470065 242.113707,154.445999 241.114158,161.732199 L216.099081,229.249601 C216.099081,229.249601 213.626149,237.384228 216.099081,251.484247 C218.572012,265.584267 224.067416,290.530456 224.067416,290.530456 L238.080695,325.541889 C238.080695,325.541889 245.455527,347.342689 241.630726,350 L250.170583,337.537752 L268.030645,322.526654 Z" id="Path" fill="#CC818C"></path>
            <path d="M487.540994,384.985135 C487.540994,384.985135 482.578801,398.022098 472.378736,396.935684 C462.178671,395.849271 413.108089,381.997498 413.108089,381.997498 C413.108089,381.997498 392.707959,371.948172 384.713314,372.219775 C376.718669,372.491379 340.053571,355.651968 340.053571,355.651968 C340.053571,355.651968 337.47323,358.998122 334.595158,362.518102 C331.463462,366.37487 327.978899,370.448921 327.096732,370.590155 C325.442667,370.861758 299.804666,374.392602 299.804666,374.392602 L282.436988,366.516104 L280.782924,359.421823 L280,356.162583 L283.848457,351.936434 L288.909894,346.38486 L298.404225,335.716279 L298.459361,335.651094 L311.129495,322.081788 L311.217712,321.994875 L319.333655,318.735635 L320.899503,318.105515 L321.153126,318.105515 C322.123511,317.942553 325.85067,317.605764 330.845945,320.386983 C334.324698,322.327761 338.187539,323.506174 342.170773,323.841778 C350.099118,324.39896 357.606795,327.567346 363.486152,332.837283 L404.286411,353.989755 L468.519252,376.804441 C468.519252,376.804441 474.0328,345.57005 483.405833,352.360135 C492.778865,359.15022 487.540994,384.985135 487.540994,384.985135 Z" id="Path" fill="#CC818C"></path>
            <path d="M335,362.297254 C331.863611,366.155383 328.373827,370.230871 327.490337,370.372155 C325.833793,370.643854 300.157372,374.175944 300.157372,374.175944 L282.763666,366.296666 L281.107123,359.199883 L280.323026,361.101777 L272.040309,369.796152 L266.750414,380.93582 L254.381557,388 L241.073992,381.207519 L235,372.513144 L236.380453,360.058452 C237.076201,358.580408 238.975704,354.55926 240.709553,351.168454 C241.528731,349.300267 242.558563,347.528548 243.77968,345.886621 C244.884042,345.169335 246.043622,337.463945 246.043622,337.463945 C251.057427,323.237774 267.854776,321.053312 267.854776,321.053312 L270.538377,323.531209 L271.709001,324.726685 C271.234125,324.650609 271.79735,323.639888 271.18995,323.802908 C270.218112,324.074607 269.78741,325.520047 268.539481,326.313409 C261.747653,330.660596 251.134732,340.800411 246.938156,345.614921 C245.922142,346.777794 244.872998,347.918931 243.801767,349.027464 C237.738818,355.341754 238.854224,363.71009 238.854224,363.71009 C237.341248,370.230871 250.726118,375.121457 250.726118,375.121457 C254.458863,369.013658 279.715627,352.168307 279.715627,352.168307 L296.722805,333.42106 C301.935395,324.48759 312.183876,318.586283 317.904473,315.825819 C320.433462,314.608606 322.090006,314 322.090006,314 L328.451132,316.67352 C326.771575,316.230697 324.994298,316.306576 323.360022,316.89088 C322.421199,317.176663 321.508676,317.54023 320.632247,317.977677 C320.300939,318.140696 319.96963,318.314584 319.660409,318.499339 C317.920859,319.493331 316.285764,320.654641 314.779128,321.966221 L300.48868,337.322661 C289.566538,349.0492 297.794036,368.013805 313.950856,368.285504 L314.094423,368.285504 C323.967421,370.524306 331.046383,366.024967 335,362.297254 Z" id="Path" fill="#000000" opacity="0.1"></path>
            <path d="M307,706 C307,706 304.97593,712.335596 302.185996,720.897512 C291.485777,721.706076 273.816193,717.519266 267,715.747071 L268.444201,708.359234 L307,706 Z" id="Path" fill="#000000" opacity="0.1"></path>
            <path d="M271.443017,325.559513 L267.923769,322.008527 C267.923769,322.008527 255.221484,323.719063 247.336169,337.078564 C247.336169,337.078564 243.651956,347.092776 242.519198,347.807304 C241.38644,348.521832 234.875832,362.520077 234.875832,362.520077 C234.875832,362.520077 227.089496,385.15761 233.589107,399.058419 C240.088718,412.959229 240.374657,419.357499 240.374657,419.357499 L245.235618,439.927232 L247.248188,457.963641 L264.712456,500.45638 L280.79102,523.007304 C280.79102,523.007304 279.284342,539.647136 275.985047,541.953112 C272.685752,544.259087 274.19243,556.157054 274.19243,556.157054 L272.135869,587.423049 C272.135869,587.423049 265.669251,596.755213 265.262338,611.911858 C264.855425,627.068504 262.512926,631.398975 262.512926,631.398975 C262.512926,631.398975 261.413161,644.119731 264.437514,649.944213 C267.461868,655.768696 259.620544,661.853007 259.620544,661.853007 L266.362103,684.447235 L263.744662,713.136601 C263.744662,713.136601 294.813023,721.667627 306.360555,718.14912 C317.908088,714.630613 323.956795,717.066502 323.956795,717.066502 L344.577389,634.885003 L351.725861,570.339344 C351.725861,570.339344 352.143772,524.598752 358.324451,510.654638 C363.625318,498.745845 356.674803,456.318062 332.798906,448.306692 C327.81697,446.639461 325.287511,441.074807 321.03142,438.021826 C317.226234,435.304455 311.012561,428.884533 314.05891,417.278873 C318.325999,401.03961 329.048707,375.468183 329.048707,375.468183 L336.98901,359.900142 C336.98901,359.900142 328.355855,373.649385 312.552232,370.130878 L312.409263,370.130878 C296.319701,369.849398 288.126452,350.957721 299.003128,339.287104 L313.234087,323.978891 C313.234087,323.978891 321.075411,316.866094 326.849177,318.663239 L320.525528,316 C320.525528,316 302.720333,322.495705 295.230934,335.346376 L278.294553,354.021529 C278.294553,354.021529 253.164923,370.726318 249.447718,376.853933 C249.447718,376.853933 236.118566,371.982154 237.625244,365.486449 C237.625244,365.486449 236.525479,357.139467 242.552191,350.849459 C243.651956,349.766842 244.66374,348.619267 245.675524,347.460866 C251.097365,341.224989 266.087162,324.682593 271.443017,325.559513 Z" id="Path" fill="#501BE3"></path>
            <path d="M274,437 C274,437 270.197888,465.249449 273.078276,471 L274,437 Z" id="Path" fill="#000000" opacity="0.1"></path>
            <path d="M277,448 L280.840527,464 C280.840527,464 282.196589,454.21811 277,448 Z" id="Path" fill="#000000" opacity="0.1"></path>
            <path d="M251,444 C251,444 259.584615,485.472172 269,498" id="Path" fill="#000000" opacity="0.1"></path>
            <path d="M311.613084,494.331853 C311.613084,494.331853 296.753271,507.939026 291,506.948424 C291,506.948424 313.856075,507.906369 321,496.2042 C321,496.236857 316.379439,492.971135 311.613084,494.331853 Z" id="Path" fill="#000000" opacity="0.1"></path>
            <path d="M331,493 C331,493 312.639666,506.744444 309,508 C309,508 328.839961,502.166667 331,493 Z" id="Path" fill="#000000" opacity="0.1"></path>
            <path d="M268,393 C268,393 258.666667,405.300086 254,403.886933 C254,403.886933 265.397647,404.305226 268,393 Z" id="Path" fill="#000000" opacity="0.1"></path>
            <path d="M279,408 C279,408 299.366972,380.954667 309,382.031313 C309,382.031313 285.880734,401.680091 279,408 Z" id="Path" fill="#000000" opacity="0.1"></path>
            <path d="M307,399 C307,399 293.689452,405.02433 295.105468,406.783556 C296.521484,408.542783 307,399 307,399 Z" id="Path" fill="#000000" opacity="0.1"></path>
            <path d="M316,608 C316,608 272.968743,633.127454 269,634.357469 C269,634.357469 276.40028,639.991378 283.383951,637.245809 C290.367623,634.500239 316,608 316,608 Z" id="Path" fill="#000000" opacity="0.1"></path>
            <path d="M280,659.274733 C280,659.274733 262.324208,657.455035 263.020017,663.182058 C263.715826,668.909082 280,659.274733 280,659.274733 Z" id="Path" fill="#000000" opacity="0.1"></path>
            <path d="M302,274 C302,274 301.650909,280.884627 301.650909,291.620342 C293.456769,298.242054 282.538957,300.586452 272.294545,297.924078 C270.705917,291.494366 268.601096,285.199461 266,279.098927 L302,274 Z" id="Path" fill="#000000" opacity="0.1"></path>
            <ellipse id="Oval" fill="#CC818C" cx="280.5" cy="264" rx="33.5" ry="33"></ellipse>
            <path d="M289.081305,284.370645 C290.017455,297.732758 292.880971,313.017633 304.709499,319.736497 C313.255996,324.586609 324.027225,323.311969 333.487844,320.546649 C342.948464,317.781329 352.21084,313.654953 362.056933,313.190466 C369.623225,312.833999 377.10141,314.659542 384.645676,315.124029 C392.189942,315.588517 400.450087,314.432699 405.835701,309.22612 C413.54517,301.815926 412.135438,288.345793 404.83347,280.557528 C397.531502,272.769263 386.110475,269.939131 375.295192,270.230786 C362.07896,270.587253 347.320834,274.551598 336.868997,266.687719 C329.853381,261.394724 327.199121,252.212997 321.29587,245.74258 C311.438764,234.940548 267.847225,219.342415 258.61789,236.949726 C254.289574,245.191676 273.959733,251.078784 278.519333,257.041505 C285.722179,266.450075 288.22225,272.034725 289.081305,284.370645 Z" id="Path" fill="#000000" opacity="0.1"></path>
            <path d="M290.081296,282.366587 C291.02846,295.74048 293.880963,311.026473 305.709492,317.735025 C314.255989,322.585492 325.027219,321.310759 334.487839,318.55604 C343.948459,315.80132 353.210836,311.66384 363.067943,311.199318 C370.623223,310.842825 378.101408,312.657699 385.656687,313.133023 C393.211967,313.608348 401.450086,312.441643 406.835701,307.234683 C414.54517,299.813144 413.135438,286.352828 405.83347,278.563994 C398.531501,270.77516 387.110473,267.94482 376.306203,268.236496 C363.08997,268.582187 348.32083,272.557625 337.868992,264.682368 C330.853375,259.388985 328.199115,250.21739 322.295864,243.735697 C312.438757,232.932875 268.847216,217.344404 259.61788,234.953003 C255.289563,243.184753 274.959723,249.072291 279.530337,255.046251 C286.722171,264.444706 289.222241,270.018962 290.081296,282.366587 Z" id="Path" fill="#000000"></path>
            <path d="M250,375 C251.026535,366.506246 255.763459,358.854291 263,354" id="Path" fill="#000000" opacity="0.1"></path>
            <path d="M375.341275,544.411686 C375.23278,545.478642 374.953289,546.524406 374.512121,547.514109 C372.981764,551.788166 371.140107,555.959832 369,560 C372.118085,559.749629 374.687294,557.463633 376.006933,554.829295 C377.159936,552.119048 377.796229,549.241906 377.887127,546.327568 C378.001819,545.417254 378.029177,544.499219 377.968875,543.584373 C377.887127,542.735289 377.303216,539.491352 375.796725,540.068294 C374.58219,540.547265 375.364631,543.551716 375.341275,544.411686 Z" id="Path" fill="#000000" opacity="0.1"></path>
            <path d="M409.39687,304.705403 C403.979394,309.953999 395.709453,311.130033 388.124988,310.650908 C380.540522,310.171783 373.000282,308.342397 365.448985,308.71263 C355.49852,309.180865 346.277756,313.340541 336.769535,316.128177 C327.261313,318.915813 316.459531,320.200739 307.868963,315.311487 C296.005798,308.538402 293.13122,293.13018 292.191454,279.660236 C291.32908,267.224766 288.808296,261.595047 281.588681,252.110552 C277.221533,246.371941 259.089575,240.709556 261.168116,233 C260.567272,233.695211 260.048034,234.455007 259.620266,235.264954 C255.27523,243.562527 275.021374,249.497143 279.609644,255.518872 C286.829259,264.992479 289.338987,270.633086 290.201361,283.057667 C291.152183,296.5385 294.015705,311.946723 305.889926,318.708918 C314.469438,323.59817 325.282276,322.313244 334.779442,319.536497 C344.276607,316.759751 353.574764,312.589186 363.469948,312.12095 C371.054413,311.761606 378.561486,313.590993 386.145951,314.070117 C393.730416,314.549242 402.000358,313.373208 407.406777,308.124613 C408.942341,306.624045 410.163253,304.840667 411,302.876017 C410.514198,303.52552 409.97823,304.137131 409.39687,304.705403 Z" id="Path" fill="#000000" opacity="0.1"></path>
            <polygon id="Path" fill="#CC818C" points="247.08826 403 243 412 256 409.37875"></polygon>
            <polygon id="Path" fill="#000000" opacity="0.1" points="247 403 243.708447 412 243 412"></polygon>
            <ellipse id="Oval" fill="#6C63FF" opacity="0.1" cx="566" cy="790" rx="45" ry="6"></ellipse>
            <ellipse id="Oval" fill="#6C63FF" opacity="0.1" cx="739" cy="808" rx="45" ry="6"></ellipse>
            <ellipse id="Oval" fill="#6C63FF" opacity="0.1" cx="943" cy="784" rx="45" ry="6"></ellipse>
            <ellipse id="Oval" fill="#6C63FF" opacity="0.1" cx="670" cy="856.5" rx="32" ry="4.5"></ellipse>
            <ellipse id="Oval" fill="#6C63FF" opacity="0.1" cx="850" cy="852.5" rx="32" ry="4.5"></ellipse>
            <path d="M740.462184,806 C740.462184,806 677.038243,601.946919 750.389409,520.217436 C805.253876,459.077288 867.541701,466.395053 895.437205,473.950971 C910.046313,477.76898 922.209529,487.691405 928.70444,501.08949 C938.455182,521.743775 936.701372,555.214975 867.861578,594.369351 C752.595459,659.861189 745.425796,749.709495 745.425796,749.709495 L740.462184,806 Z" id="Path" fill="#7ED321"></path>
            <path d="M885,503 C885,503 698.250154,560.353571 740.117376,806" id="Path" stroke="#565987"></path>
            <path d="M776,523 C776,523 801.513901,540.184705 793.410258,566" id="Path" stroke="#565987"></path>
            <path d="M867,539 C867,539 851.214602,522.722669 832,531.702106" id="Path" stroke="#565987"></path>
            <path d="M793,617.397782 C793,617.397782 765.190869,603.12357 758,621" id="Path" stroke="#565987"></path>
            <path d="M724,646.098765 C724,646.098765 744.627154,644.518519 745,654" id="Path" stroke="#565987"></path>
            <path d="M738,808 C738,808 812.239187,659.807435 832.634569,663.052528 C842.325131,664.588538 846.790066,673.945222 848.807555,683.334357 C851.298824,695.488589 849.865241,708.102561 844.706429,719.419787 C834.178003,743.119781 805.878033,788.15085 738,808 Z" id="Path" fill="#7ED321"></path>
            <path d="M832,691 C832,691 754.062604,802.121495 739,807" id="Path" stroke="#565987"></path>
            <path d="M839,708.5 L821,708.5" id="Path" stroke="#565987"></path>
            <path d="M817,749 L788,750" id="Path" stroke="#565987"></path>
            <path d="M800,716 L803,731" id="Path" stroke="#565987"></path>
            <path d="M769.25,761 L769.75,774" id="Path" stroke="#565987"></path>
            <path d="M740,808 C740,808 665.783651,659.807435 645.394545,663.052528 C635.706964,664.588538 631.243402,673.945222 629.226534,683.334357 C626.701518,695.4774 628.09609,708.090971 633.216186,719.419787 C643.741374,743.119781 672.032637,788.15085 740,808 Z" id="Path" fill="#7ED321"></path>
            <path d="M646,691 C646,691 723.937396,802.121495 739,807" id="Path" stroke="#565987"></path>
            <path d="M639,708.5 L657,708.5" id="Path" stroke="#565987"></path>
            <path d="M660,749 L689,750" id="Path" stroke="#565987"></path>
            <path d="M678,716 L675,731" id="Path" stroke="#565987"></path>
            <path d="M707.75,761 L707.25,774" id="Path" stroke="#565987"></path>
            <path d="M867.666262,842.222736 C869.676233,840.595531 871.140936,838.394884 871.864719,835.914751 C872.400459,833.404653 871.328978,830.40345 868.934545,829.486718 C866.244909,828.460852 863.369403,830.316142 861.19364,832.193258 C859.017877,834.070375 856.514109,836.220328 853.660471,835.81653 C856.641819,833.11598 857.982792,829.050698 857.191985,825.110417 C857.074114,824.305553 856.733298,823.549569 856.207972,822.927724 C854.721018,821.334357 852.009515,822.021906 850.216424,823.276955 C844.531013,827.271284 842.945658,834.976193 842.923791,841.917159 C842.344316,839.407061 842.825389,836.798742 842.814456,834.277731 C842.803522,831.75672 842.092846,828.820997 839.928017,827.489553 C838.590789,826.750601 837.082911,826.374321 835.554624,826.398207 C832.996189,826.310899 830.153483,826.561909 828.404126,828.428112 C826.21743,830.741767 826.796904,834.637875 828.688397,837.158887 C830.579889,839.679898 833.444461,841.306005 836.079431,843.073987 C838.204177,844.326903 840.014143,846.047702 841.371236,848.105096 C841.532521,848.389293 841.664402,848.68914 841.764842,849 L857.782393,849 C861.367782,847.195572 864.69248,844.915862 867.666262,842.222736 Z" id="Path" fill="#7ED321"></path>
            <path d="M584.674151,783.223799 C586.680661,781.594561 588.14095,779.39409 588.860134,776.91605 C589.406608,774.410381 588.33552,771.468943 585.931039,770.499358 C583.242391,769.475302 580.378872,771.327319 578.19298,773.212017 C576.007087,775.096716 573.51517,777.221088 570.67351,776.828896 C573.651346,774.118241 574.983261,770.048528 574.181867,766.10899 C574.059634,765.306834 573.719459,764.553328 573.198216,763.930148 C571.700879,762.339593 569.001302,763.015034 567.208871,764.267868 C561.52555,768.25515 559.940778,775.946465 559.90799,782.875185 C559.339658,780.38041 559.820554,777.776693 559.809625,775.249235 C559.798695,772.721778 559.08828,769.802129 556.913318,768.46214 C555.571999,767.742884 554.063852,767.389612 552.541533,767.438084 C549.994968,767.340037 547.142379,767.590603 545.404594,769.453514 C543.218702,771.773981 543.797963,775.652321 545.677831,778.168884 C547.557698,780.685448 550.432147,782.308685 553.077076,784.073548 C555.192913,785.331038 556.997252,787.047637 558.356007,789.09578 C558.519749,789.382033 558.651682,789.685232 558.749467,790 L574.772058,790 C578.362128,788.19318 581.692575,785.914088 584.674151,783.223799 Z" id="Path" fill="#7ED321"></path>
            <path d="M678.665208,842.222736 C680.675669,840.595531 682.140727,838.394884 682.864686,835.914751 C683.400557,833.404653 682.328815,830.40345 679.933801,829.486718 C677.24351,828.460852 674.367305,830.316142 672.191014,832.193258 C670.014722,834.070375 667.510346,836.220328 664.656014,835.81653 C667.642079,833.118289 668.987644,829.052661 668.199323,825.110417 C668.081423,824.305553 667.740524,823.549569 667.21507,822.927724 C665.727755,821.334357 663.015593,822.021906 661.222066,823.276955 C655.535273,827.271284 653.949533,834.976193 653.927661,841.917159 C653.348045,839.407061 653.829235,836.798742 653.818299,834.277731 C653.807363,831.75672 653.096514,828.820997 650.931158,827.489553 C649.593606,826.750601 648.085361,826.374321 646.556703,826.398207 C643.997646,826.310899 641.15425,826.561909 639.404467,828.428112 C637.217239,830.741767 637.796855,834.637875 639.688807,837.158887 C641.580759,839.679898 644.446028,841.306005 647.081637,843.073987 C649.2069,844.326903 651.017306,846.047702 652.374729,848.105096 C652.536052,848.389293 652.667966,848.68914 652.76843,849 L668.789874,849 C672.372297,847.194728 675.694078,844.915049 678.665208,842.222736 Z" id="Path" fill="#7ED321"></path>
            <path d="M946.514099,721 C946.514099,721 952.519823,728.860143 943.751466,740.705094 C934.98311,752.550045 927.754403,762.599643 930.648069,770 C930.648069,770 943.8825,747.952189 954.670964,747.645666 C965.459427,747.339142 958.405432,734.257149 946.514099,721 Z" id="Path" fill="#7ED321"></path>
            <path d="M946.344696,721 C946.876043,721.756307 947.29276,722.585595 947.581592,723.461487 C958.216688,735.823621 963.87107,747.36526 953.655635,747.660639 C944.146997,747.923197 932.738841,764.781648 930,769.037285 C930.09011,769.363391 930.197006,769.684716 930.320268,770 C930.320268,770 943.705249,747.966957 954.616438,747.660639 C965.527627,747.35432 958.3713,734.24827 946.344696,721 Z" id="Path" fill="#000000" opacity="0.1"></path>
            <path d="M957,731.815218 C957,734.679301 956.776,737 956.496,737 C956.216,737 956,734.645339 956,731.815218 C956,728.985097 956.28,730.309594 956.56,730.309594 C956.84,730.309594 957,728.985097 957,731.815218 Z" id="Path" fill="#FFD037"></path>
            <path d="M961.571741,735.012537 C959.228188,736.421061 957.180218,737.270832 957.011314,736.921611 C956.842409,736.57239 958.584239,735.128944 960.927792,733.720419 C963.271345,732.311894 962.352926,733.336276 962.52183,733.720419 C962.690735,734.104562 963.936407,733.604012 961.571741,735.012537 Z" id="Path" fill="#FFD037"></path>
            <path d="M914.478706,721 C914.478706,721 908.470367,728.860143 917.242543,740.705094 C926.014719,752.550045 933.246576,762.599643 930.351648,770 C930.351648,770 917.122376,747.952189 906.318288,747.645666 C895.514201,747.339142 902.658663,734.257149 914.478706,721 Z" id="Path" fill="#7ED321"></path>
            <path d="M913.652487,721 C913.119724,721.757155 912.699391,722.586094 912.404332,723.461487 C901.778449,735.823621 896.123093,747.36526 906.329243,747.660639 C915.850565,747.923197 927.315915,764.781648 930,769.037285 C929.911207,769.365109 929.800506,769.686723 929.668631,770 C929.668631,770 916.292389,747.966957 905.368274,747.660639 C894.444159,747.35432 901.701129,734.24827 913.652487,721 Z" id="Path" fill="#000000" opacity="0.1"></path>
            <path d="M903,731.824347 C903,734.683387 903.228346,737 903.503937,737 C903.779528,737 904,734.683387 904,731.824347 C904,728.965307 903.724409,730.321373 903.448819,730.321373 C903.173228,730.321373 903,728.999208 903,731.824347 Z" id="Path" fill="#FFD037"></path>
            <path d="M899.428191,735.012537 C901.771098,736.421061 903.80795,737.270832 903.987362,736.921611 C904.166774,736.57239 902.41487,735.128944 900.071962,733.720419 C897.729055,732.311894 898.647221,733.336276 898.467809,733.720419 C898.288398,734.104562 897.085283,733.604012 899.428191,735.012537 Z" id="Path" fill="#FFD037"></path>
            <path d="M905,768.863793 C905,768.863793 921.927064,768.361789 927.040448,764.83708 C932.153832,761.312372 953.081238,757.114765 954.348564,762.764979 C955.61589,768.415193 979.783241,790.845156 960.674172,790.994689 C941.565104,791.144222 916.273689,788.110837 911.182346,785.098813 C906.091002,782.08679 905,768.863793 905,768.863793 Z" id="Path" fill="#A8A8A8"></path>
            <path d="M961.018797,789.062769 C941.904945,789.211382 916.596177,786.196659 911.50356,783.203166 C907.634493,780.931509 906.080252,772.768404 905.573195,769 L905,769 C905,769 906.102298,782.15226 911.17287,785.135137 C916.243442,788.118014 941.563233,791.143352 960.677084,790.994739 C966.188575,790.994739 968.095551,789.062769 967.996344,786.26035 C967.213713,787.969401 965.119346,789.030923 961.018797,789.062769 Z" id="Path" fill="#000000" opacity="0.2"></path>
        </g>
    </g>
</svg>