<?xml version="1.0" encoding="UTF-8"?>
<svg width="1153px" height="772px" viewBox="0 0 1153 772" version="1.1" xmlns="http://www.w3.org/2000/svg" xmlns:xlink="http://www.w3.org/1999/xlink">
    <!-- Generator: Sketch 52.3 (67297) - http://www.bohemiancoding.com/sketch -->
    <title>undraw_personal_trainer_ote3</title>
    <desc>Created with Sketch.</desc>
    <defs>
        <linearGradient x1="49.9953168%" y1="100.003183%" x2="49.9953168%" y2="-0.00620307471%" id="linearGradient-1">
            <stop stop-color="#808080" stop-opacity="0.25" offset="0%"></stop>
            <stop stop-color="#808080" stop-opacity="0.12" offset="54%"></stop>
            <stop stop-color="#808080" stop-opacity="0.1" offset="100%"></stop>
        </linearGradient>
    </defs>
    <g id="Page-1" stroke="none" stroke-width="1" fill="none" fill-rule="evenodd">
        <g id="undraw_personal_trainer_ote3">
            <path d="M669.39,127.13 C595.53,124.55 525.19,100.73 458.06,74.64 C390.93,48.55 324.35,19.64 252.26,5.82 C205.84,-3.07 152.81,-4.32 115.45,20.55 C79.5,44.47 67.88,85.77 61.64,124.08 C56.94,152.91 54.18,183.26 67.05,210.24 C75.99,228.98 91.86,244.73 102.84,262.68 C141.06,325.12 114.06,402.13 72.65,463.11 C53.23,491.71 30.71,519 15.73,549.45 C0.75,579.9 -6.18,614.79 6.93,645.85 C19.93,676.63 50.88,699.76 84.42,716.02 C152.54,749.02 232.81,758.51 311.08,763.87 C484.35,775.72 658.54,770.59 832.27,765.45 C896.56,763.55 961.14,761.62 1024.38,751.68 C1059.51,746.16 1095.77,737.4 1121.27,716.24 C1153.64,689.39 1161.66,643.92 1139.97,610.24 C1103.59,553.76 1002.97,539.74 977.56,479.12 C963.56,445.76 977.94,408.59 998.28,377.65 C1041.92,311.27 1115.06,253.04 1118.92,177.16 C1121.56,125.05 1086.4,72.87 1032.03,48.16 C975.03,22.32 896.03,25.57 853.98,68.35 C810.69,112.45 734.61,129.4 669.39,127.13 Z" id="Path" fill="#6C63FF" opacity="0.139039249"></path>
            <g id="Group" opacity="0.5" transform="translate(461.000000, 402.000000)">
                <polygon id="Path" fill="#F5A623" points="39.76 0.58 6.3 1.27 0.83 8.78 0.83 34.73 7.66 39.51 39.76 39.51 46.59 32 46.59 7.41"></polygon>
                <path d="M39.06,4.68 C39.06,4.68 8.33,9.46 5.6,4.68 L6.29,1.27 L39.06,0.55 L39.06,4.68 Z" id="Path" fill="#FFFFFF" opacity="0.2"></path>
                <path d="M42.49,75.7 L47.95,81.17 L47.95,107.17 L42.49,112.55 C42.49,112.55 22.69,119.38 9.71,113.91 L3.56,107.77 L3.56,81.77 L9.03,75.62 L42.49,75.7 Z" id="Path" fill="#6C63FF"></path>
                <path d="M41.12,81.85 C41.12,81.85 17.22,87.31 9.03,81.85 L9.03,75.7 L42.49,75.7 L41.12,81.85 Z" id="Path" fill="#FFFFFF" opacity="0.2"></path>
                <path d="M29.51,39.33 L29.51,76.27 C29.348424,79.3153127 26.7560315,81.6574052 23.71,81.51 C20.6639685,81.6574052 18.071576,79.3153127 17.91,76.27 L17.91,39.33 C17.91,36.19 20.91,33.76 24.39,34.12 C27.1781355,34.2912535 29.387352,36.5393039 29.51,39.33 Z" id="Path" fill="#F5A623"></path>
                <polygon id="Path" fill="#F5A623" points="59.89 2.32 54.42 9.83 54.42 35.78 61.25 40.56 93.35 40.56 100.18 33.05 100.18 8.46 93.35 1.64"></polygon>
                <path d="M92.66,5.73 C92.66,5.73 61.93,10.51 59.2,5.73 L59.88,2.32 L92.66,1.64 L92.66,5.73 Z" id="Path" fill="#FFFFFF" opacity="0.2"></path>
                <path d="M96.06,76.75 L101.52,82.22 L101.52,108.22 L96.06,113.63 C96.06,113.63 76.25,120.46 63.28,114.99 L57.13,108.85 L57.13,82.9 L62.6,76.75 L96.06,76.75 Z" id="Path" fill="#6C63FF"></path>
                <path d="M94.71,82.9 C94.71,82.9 70.81,88.36 62.62,82.9 L62.62,76.75 L96.06,76.75 L94.71,82.9 Z" id="Path" fill="#FFFFFF" opacity="0.2"></path>
                <path d="M83.06,40.38 L83.06,77.32 C82.8930909,80.3627694 80.3040409,82.7018421 77.26,82.56 C74.2121453,82.7075158 71.616872,80.3668562 71.45,77.32 L71.45,40.38 C71.45,37.24 74.45,34.81 77.94,35.17 C80.7281355,35.3412535 82.937352,37.5893039 83.06,40.38 Z" id="Path" fill="#F5A623"></path>
                <polygon id="Path" fill="#F5A623" points="161.57 21.39 134.02 21.96 129.52 28.14 129.52 49.5 135.14 53.44 161.57 53.44 167.19 47.25 167.19 27.01"></polygon>
                <path d="M161,24.77 C161,24.77 135.71,28.7 133.46,24.77 L134.02,21.96 L161.02,21.39 L161,24.77 Z" id="Path" fill="#FFFFFF" opacity="0.2"></path>
                <path d="M163.81,83.23 L168.31,87.73 L168.31,109.09 L163.81,113.59 C163.81,113.59 147.51,119.21 136.81,114.71 L131.75,109.65 L131.75,88.29 L136.25,83.23 L163.81,83.23 Z" id="Path" fill="#F5A623"></path>
                <path d="M162.69,88.29 C162.69,88.29 143.01,92.79 136.27,88.29 L136.27,83.23 L163.81,83.23 L162.69,88.29 Z" id="Path" fill="#FFFFFF" opacity="0.2"></path>
                <path d="M153.13,53.29 L153.13,83.7 C152.995412,86.2078455 150.858353,88.1347755 148.35,88.01 C145.843464,88.1346769 143.709277,86.2063028 143.58,83.7 L143.58,53.29 C143.657231,51.9893457 144.280084,50.7817719 145.295093,49.964813 C146.310103,49.147854 147.622891,48.7974729 148.91,49 C151.206557,49.1408562 153.026941,50.9914364 153.13,53.29 Z" id="Path" fill="#F5A623"></path>
                <polygon id="Path" fill="#F5A623" points="205.68 22.26 178.13 22.82 173.64 29 173.64 50.37 179.26 54.3 205.68 54.3 211.3 48.12 211.3 27.88"></polygon>
                <path d="M205.12,25.63 C205.12,25.63 179.82,29.57 177.57,25.63 L178.13,22.82 L205.13,22.26 L205.12,25.63 Z" id="Path" fill="#FFFFFF" opacity="0.2"></path>
                <path d="M207.93,84.1 L212.42,88.59 L212.42,109.95 L207.93,114.45 C207.93,114.45 191.62,120.07 180.93,115.58 L175.88,110.55 L175.88,89.16 L180.38,84.1 L207.93,84.1 Z" id="Path" fill="#F5A623"></path>
                <path d="M206.8,89.16 C206.8,89.16 187.13,93.65 180.38,89.16 L180.38,84.1 L207.93,84.1 L206.8,89.16 Z" id="Path" fill="#FFFFFF" opacity="0.2"></path>
                <path d="M197.25,54.15 L197.25,84.55 C197.115412,87.0578455 194.978353,88.9847755 192.47,88.86 C189.961647,88.9847755 187.824588,87.0578455 187.69,84.55 L187.69,54.15 C187.69,51.57 190.19,49.57 193.03,49.87 C195.324953,50.0059146 197.146497,51.8533568 197.25,54.15 Z" id="Path" fill="#F5A623"></path>
            </g>
            <path d="M1049.06,534.62 C1046.91,530.73 1042.89,528.17 1038.66,526.99 C1034.38039,525.961203 1029.95459,525.683744 1025.58,526.17 C1018.51194,526.672726 1011.50548,527.827638 1004.65,529.62 C1000.4,530.74 995.99,532.24 993.12,535.62 C993.04,535.72 992.95,535.84 992.86,535.94 C988.47,537.09 984.11,538.86 979.86,540.3 C975.594985,541.715186 971.255037,542.893648 966.86,543.83 C972.61,540.56 978.21,537.1 982.95,532.48 C985.190407,530.305556 987.201006,527.906242 988.95,525.32 C992.198042,526.250305 995.606884,526.478698 998.95,525.99 C1005.72,524.83 1011.19,519.99 1016.28,515.27 L1032.65,500.21 C1035.26,497.81 1037.91,495.35 1039.65,492.21 C1042,487.84 1042.21,482.64 1042.27,477.65 C1042.35,470.79 1042.27,463.93 1042.07,457.08 L1047.25,461.08 C1046.46249,452.630993 1048.03408,444.129138 1051.79,436.52 C1053.59,432.89 1055.95,429.28 1056,425.21 C1056.08,418.93 1050.68,413.99 1045.15,411.21 C1039.62,408.43 1033.4,406.65 1028.87,402.38 C1022.13,396.03 1020.87,385.9 1017.54,377.2 C1015.56491,372.436514 1013.22461,367.832804 1010.54,363.43 L1004.06,352.13 C1000.80117,346.175293 997.167176,340.43372 993.18,334.94 C986.44,326.05 977.95,318.72 969.52,311.47 L925.68,273.7 C915.02,264.51 904.32,255.31 892.79,247.27 C869.4,230.96 843.01,219.76 816.79,208.67 C810.19,205.87 803.32,203.03 796.18,203.37 C790.801662,203.718457 785.705193,205.899633 781.74,209.55 C777.982439,208.408742 774.307219,207.012158 770.74,205.37 L770.46,205.24 C770.54,204.65 770.63,204.07 770.69,203.48 C770.78,202.7 770.83,201.92 770.89,201.13 C772.864807,200.825604 774.77664,200.200712 776.55,199.28 C777.449945,198.85474 778.245388,198.236821 778.88,197.47 C779.68544,196.134653 780.097897,194.599201 780.07,193.04 C780.87,182.59 781.67,172.04 780.81,161.64 C779.95,151.24 777.34,140.71 771.81,131.87 C770.1,129.13 767.96,126.46 764.99,125.27 C760.99,123.67 756.36,125.16 752.09,124.44 C744.7,123.19 740.09,115.96 734.74,110.63 C721.21,97.14 698.07,95.11 682.45,106.03 C676.53,110.18 671.79,115.81 666.51,120.77 C661.23,125.73 655.04,130.22 647.91,131.19 C646.595635,131.245672 645.309161,131.586911 644.14,132.19 C642.68,133.11 642.02,134.88 641.46,136.52 C639.46,142.18 637.54,147.99 636.93,153.91 C636.86,153.55 636.8,153.19 636.74,152.83 C636.468203,155.022539 636.411266,157.236388 636.57,159.44 C636.769998,162.2484 637.582345,164.978978 638.95,167.44 C640.088466,169.77958 642.029758,171.632147 644.42,172.66 C646.111176,173.258263 647.896488,173.546216 649.69,173.51 L650.48,173.51 C650.19,174.28 649.91,175.05 649.65,175.83 C647.423392,182.438499 646.291811,189.366481 646.3,196.34 C646.3,231.34 674.23,259.7 708.71,259.7 C712.859725,259.679727 716.997006,259.244224 721.06,258.4 C722.41,258.83 723.76,259.27 725.06,259.74 C727.722188,260.61969 730.332953,261.647971 732.88,262.82 C733.96,263.33 738.33,265.88 743.61,269.17 L743.25,269.92 C732.761942,279.715645 728.370033,294.405032 731.76,308.35 C735.58,323.22 748.11,335.97 746.85,351.28 C746.67,353.46 746.21,355.67 746.58,357.83 C747.09,360.83 749.12,363.27 751.15,365.49 C752.91,367.43 754.74,369.31 756.6,371.15 C756.45,380.92 755.6,390.68 754.68,400.42 C754.6,401.27 754.58,402.13 754.57,403 C754.62389,407.21097 756.152566,411.269746 758.89,414.47 C761.79,418 762.95,423.29 762.4,428.01 C761.61,434.77 758.28,440.9 756.05,447.31 C745.99,476.14 758.35,508.65 751.39,538.42 C749.68,545.75 746.8,552.88 746.39,560.42 C746.16,565.13 746.9,570.07 745.09,574.42 C743.52,578.2 740.25,580.93 737.16,583.58 C732.793333,587.32 728.54,591.186667 724.4,595.18 C718.142944,591.759036 711.684455,588.72014 705.06,586.08 C703.979802,585.64493 702.878412,585.26445 701.76,584.94 C693.94,577.62 684.08,572.94 674.82,567.56 C667.14,563.11 659.82,558.11 652.46,553.11 C645.46,548.31 638.31,543.47 632.39,537.3 C629.39,534.18 626.72,530.74 623.49,527.89 C620.651142,525.526626 617.643105,523.374209 614.49,521.45 C600.301517,512.258654 586.77501,502.0837 574.01,491 C564.28,482.56 556.32,471.69 545.92,464.12 C539.55,459.48 532.14,455.25 524.34,456.12 C521.856684,456.412225 519.447363,457.154336 517.23,458.31 C515.162677,457.433561 512.953672,456.938907 510.71,456.85 C504.37,456.65 498.55,460.09 493.11,463.4 C461.11,482.846667 428.61,501.426667 395.61,519.14 C388.95,522.72 382.25,526.27 375.89,530.37 C363.480587,538.396862 352.485329,548.422348 343.35,560.04 C341.67,562.17 339.55,564.59 336.88,564.27 C336.149014,564.158026 335.446308,563.906817 334.81,563.53 C330.7,561.3 328.18,556.99 325.81,552.9 C324.09,549.9 322.23,546.77 319.71,544.49 C319.71,544.49 319.71,544.49 319.71,544.49 C319.170588,543.07067 318.451389,541.726373 317.57,540.49 C321.12,531.73 324.18,522.76 327.02,513.73 C328.5,508.99 329.93,504.22 331.82,499.62 C336.48,488.24 343.91,477.93 346.54,465.89 C347.17,462.98 347.54,459.99 348.03,457.05 C376.78,451.39 398.48,425.71 398.48,394.87 C398.48,359.87 370.54,331.51 336.07,331.51 C301.6,331.51 273.67,359.87 273.67,394.87 C273.607312,416.518869 284.574898,436.709026 302.77,448.44 C302.77,448.56 302.77,448.68 302.77,448.79 C302.71003,450.801091 302.512905,452.805747 302.18,454.79 C301.03,461.49 298.18,467.79 295.31,473.9 C293.41,477.99 291.51,482.1 289.54,486.18 C288.594729,485.990115 287.677394,485.680977 286.81,485.26 C285.12,484.32 284.38,482.26 283.74,480.44 C280.907799,472.100432 277.440993,463.990044 273.37,456.18 C271.782102,452.860412 269.76483,449.7639 267.37,446.97 C263.15,442.35 257.37,439.61 251.78,436.84 C250.78,436.36 249.85,435.84 248.89,435.38 C248.059601,434.762744 247.191222,434.198298 246.29,433.69 C241.64,431.06 236.48,429.17 232.6,425.49 C229.69,422.73 227.69,419.14 224.97,416.21 C220.44,411.34 214.19,408.56 208.12,405.91 C204.96,404.53 201.64,403.12 198.19,403.31 C197.703851,403.333655 197.21961,403.387088 196.74,403.47 C195.910372,403.611518 195.089137,403.798466 194.28,404.03 C193.492538,403.611865 192.748841,403.116067 192.06,402.55 C188.35,399.69 186.91,394.78 185.7,390.21 C183.7,382.57 181.59,374.66 182.83,366.84 C183.04587,365.490797 183.339695,364.155228 183.71,362.84 C184.02,362.33 184.32,361.84 184.59,361.29 C200.743763,356.434672 213.553278,344.068821 218.974769,328.096167 C224.39626,312.123512 221.760664,294.515231 211.9,280.83 C211.39,280.13 210.9,279.45 210.33,278.77 L210.93,278.44 C216.46,275.06 217.72,266.98 215.16,260.96 C212.6,254.94 207.16,250.69 201.65,247.35 C200.85,246.86 200.04,246.4 199.22,245.94 L198.52,245.56 C197.9,245.22 197.29,244.89 196.67,244.56 L195.94,244.19 C195.21,243.82 194.48,243.47 193.75,243.13 L193.42,242.97 C192.51,242.56 191.6,242.16 190.68,241.78 C189.79,241.41 188.9,241.07 188,240.78 L187.63,240.64 C186.78,240.33 185.92,240.04 185.06,239.76 L184.87,239.7 C178.579987,237.655398 172.022693,236.55016 165.41,236.42 C158.936724,236.458683 152.485142,237.172546 146.16,238.55 C140.001743,239.665071 133.971352,241.397133 128.16,243.72 C118.555427,247.790181 110.087702,254.140116 103.49,262.22 C102.099384,262.325417 100.720737,262.552961 99.37,262.9 C93.96,264.27 89.09,267.29 84.64,270.71 C80.9127844,273.450057 77.6105156,276.725369 74.84,280.43 C71.577083,285.176965 69.3269917,290.545186 68.23,296.2 C64.44,313.93 69.1,332.2 72.53,350.02 C75.96,367.84 77.94,387.26 69.53,403.25 C66.36,409.25 61.86,414.46 58.53,420.35 C55.2,426.24 52.89,433.35 54.81,439.88 C57.14,447.81 64.81,452.8 68.81,460 C73.49,468.39 72.2,479.66 66.08,487 C65.81,487.32 65.54,487.64 65.25,488 C64.96,488.36 64.55,488.74 64.17,489.08 C70.48,491.3 77.51,488.91 83.17,485.35 C87.6964872,482.676095 91.535277,478.981132 94.38,474.56 C101.53,462.82 98.32,447.64 100.84,434.07 C104.15,416.3 117.51,400.45 115.67,382.46 C114.43,370.39 106.55,360.3 100.36,349.92 C96.2453758,342.95329 92.7967813,335.614145 90.06,328 C89.95,327.68 89.84,327.35 89.72,327 C87.91,321.85 86.52,316.39 87.45,311 C87.7671686,309.254132 88.2908462,307.55218 89.01,305.93 C89.01,306.12 89.01,306.32 89.01,306.51 C89.131654,311.723179 90.2908915,316.85986 92.42,321.62 C98.67,334.62 113.71,340.62 123.26,351.16 C123.66,351.6 124.04,352.05 124.42,352.51 C124.53,352.63 124.63,352.76 124.73,352.89 L125.54,353.89 L125.88,354.36 C126.13,354.71 126.38,355.06 126.61,355.42 L126.92,355.87 C127.24,356.38 127.56,356.87 127.86,357.42 C130.29,354.73 132.8,351.9 133.78,348.42 C133.87,348.12 133.93,347.81 133.99,347.5 C134.07,347.58 134.14,347.67 134.22,347.76 C134.41,348.83 134.56,349.9 134.7,350.98 C134.699901,352.523058 134.864161,354.061737 135.19,355.57 C135.95,365.17 135.34,375.03 134.7,384.66 C134.36,389.81 135.7,397.46 132.42,401.3 L132.32,401.41 C132.127698,401.633912 131.91696,401.841305 131.69,402.03 C131.13,402.61 130.56,403.18 130.03,403.78 C119.03,416.18 114.03,433.78 114.29,450.64 C114.55,469.83 120.68,488.42 127.63,506.27 C130.057232,512.78681 132.916927,519.134264 136.19,525.27 C137.879572,528.582817 140.114043,531.588028 142.8,534.16 C145.61,536.65 149.03,538.29 152.4,539.89 C153.24,540.29 154.09,540.68 154.93,541.09 L157.08,542.09 L173.45,549.87 C176.45,554.28 179.35,558.81 182.28,563.35 C182.7,563.99 183.11,564.65 183.54,565.29 C186.74,570.29 189.96,575.29 193.24,580.15 L220.83,621.01 C222.83,624.01 224.92,627.01 227.73,629.23 C228.529396,629.858176 229.394433,630.397987 230.31,630.84 C230.774971,631.063898 231.252425,631.260889 231.74,631.43 C231.134359,632.339292 230.875311,633.435808 231.01,634.52 C231.378725,635.582396 232.080068,636.497648 233.01,637.13 C239.25,642.29 246.18,647.73 248.14,655.66 C249.53,661.31 248.14,667.36 249.39,673.04 C251.68,683.28 261.81,689.49 271.39,693.43 C292.86,702.25 316.71,705.64 339.52,701.54 C362.33,697.44 384,685.61 398.77,667.54 C403.31,661.96 407.18,655.87 411.49,650.11 C414.49,646.05 417.79,642.18 421.2,638.45 C424.87954,636.767335 428.426351,634.808399 431.81,632.59 C439.02,627.8 445.23,621.65 451.81,615.95 C456.72,611.67 461.86,607.63 466.37,602.95 C470.419371,598.510783 474.202643,593.835954 477.7,588.95 C485.7,578.35 493.963333,567.96 502.49,557.78 C507.05,552.33 511.88,546.78 518.25,543.78 L518.54,543.66 C519.3,548.14 522.85,551.94 525.34,555.81 C535.64,571.81 546.42,588.28 562.34,598.48 C571.06,604.06 580.92,607.48 590.76,610.6 C615.76,618.5 641.16,624.7 666.58,630.91 C667.42,629.31 668.24,627.83 669.16,626.39 C669.553847,626.80662 669.921231,627.247482 670.26,627.71 C670.37,627.87 670.46,628.04 670.57,628.2 C670.386403,628.236009 670.205865,628.286159 670.03,628.35 C668.397912,629.11003 667.114925,630.460919 666.44,632.13 C663.7,637.62 663.44,643.99 663.31,650.13 C663.22,656.13 663.31,662.13 663.31,668.13 C663.163905,670.369827 663.505072,672.614705 664.31,674.71 C666.25,678.71 671.18,680.2 675.59,680.71 C683.25,681.56 690.97,680.84 698.59,679.81 C699.029868,681.607477 699.748579,683.32496 700.72,684.9 C705,691.9 712.39,696.52 720.08,699.23 C727.77,701.94 735.92,703.02 743.91,704.61 C758.1,707.43 772.62,711.94 786.73,708.76 C792.36,707.49 797.73,705.03 803.36,703.95 C816.25,701.51 829.61,706.45 842.59,704.47 C848.86,703.47 854.79,700.97 860.47,698.1 C863.333324,696.843855 865.929972,695.051658 868.12,692.82 C870.2,690.48 871.45,687.16 870.59,684.13 C870.1,682.39 868.98,680.91 868.23,679.27 C867.224658,676.646709 866.653834,673.877029 866.54,671.07 C865.496022,660.449097 863.698155,649.915869 861.16,639.55 C861.09,639.26 861.01,638.96 860.93,638.66 C870.74,634.77 879.53,628.66 888.21,622.58 L906.88,609.52 C912.88,605.29 919.03,601.04 925.77,598.08 C936.11,593.54 947.56,592.24 958.83,592.25 C963.44,592.25 968.06,592.48 972.65,592.9 C972.064848,593.538248 971.624773,594.295586 971.36,595.12 C970.44,597.98 971.9,601.12 974.07,603.21 C976.24,605.3 979.07,606.48 981.62,607.93 C988.66572,611.897237 994.532133,617.663577 998.62,624.64 C1001.18,629.03 1003.04,634.36 1001.42,639.19 C999.42,645.25 992.29,649.43 992.7,655.81 C992.94,659.57 995.97,662.68 999.42,664.07 C1002.87,665.46 1006.7,665.44 1010.42,665.33 C1016.51,665.14 1022.78,664.67 1028.23,661.9 C1031.9,660.03 1035.01,657.21 1038.06,654.42 C1040.84,651.87 1043.68,649.22 1045.26,645.78 C1046.74,642.54 1046.97,638.87 1047.04,635.31 C1047.34,618.55 1044.45,601.56 1047.78,585.14 C1048.78,580.14 1050.38,575.25 1051.23,570.21 C1052.57,562.21 1052.06,554.13 1051.55,546.09 C1051.3,542.13 1051,538.05 1049.06,534.62 Z" id="Path" fill="url(#linearGradient-1)"></path>
            <path d="M837.78,302.83 C833.85,305.48 832.48,310.6 831.98,315.32 C829.85,335.39 838.13,355.26 837.58,375.43 C837.14,391.48 831.16,406.79 825.26,421.72 C815.2,447.19 809.96,474.85 807.93,502.16 C805.9,529.47 802.93,557.91 788.27,581.01 C784.94,586.24 781.06,591.1 777.8,596.36 C774.38,601.86 771.67,607.76 768.65,613.48 C759.752018,630.373396 748.281705,645.780724 734.65,659.15 C730.65,663.05 726.41,666.83 721.31,669.08 C714.670301,671.960819 707.148981,672.040143 700.45,669.3 C693.61,666.47 687.85,660.09 687.57,652.69 C687.32,646.07 691.27,640.1 695.23,634.8 C708.651777,616.844024 724.085652,600.484117 741.23,586.04 C744.34,583.42 747.62,580.71 749.23,576.97 C751.04,572.66 750.3,567.77 750.53,563.1 C750.9,555.65 753.8,548.58 755.53,541.32 C762.53,511.83 750.09,479.63 760.21,451.06 C762.46,444.71 765.8,438.64 766.59,431.95 C767.15,427.27 765.99,422.04 763.06,418.53 C760.316182,415.376034 758.781655,411.350116 758.73,407.17 C758.73,406.31 758.73,405.46 758.83,404.62 C760.05,391.53 761.26,378.38 760.6,365.25 C759.94,352.12 757.33,338.92 751.27,327.25 C748.13,321.2 744.07,315.54 742.13,309.01 C739.01,298.44 741.89,287.01 746.54,277.01 C750.17,269.19 755.01,261.74 761.77,256.38 C774.33,246.43 793.13,245.28 806.88,253.51 C817.02,259.57 823.96,269.76 829.59,280.15 C833.63,287.74 837.84,294.17 837.78,302.83 Z" id="Path" fill="#000000" opacity="0.06"></path>
            <path d="M804.45,223.13 C802.53,228.31 800.62,233.49 798.72,238.67 C797.46,242.07 796.21,245.5 794.91,248.9 C788.91,264.57 782.2,279.99 771.7,292.96 C773.27,291.02 758.5,281.26 747.61,274.6 C742.3,271.33 737.9,268.81 736.82,268.31 C734.253152,267.15029 731.62606,266.128828 728.95,265.25 C724.8,263.85 720.6,262.64 716.45,261.13 C706.85,257.66 713.56,252.45 717.67,246.85 C731.12,228.51 733.67,203.45 748.94,186.6 C754.540169,197.239974 763.399069,205.808016 774.22,211.05 C774.43,211.16 774.65,211.26 774.87,211.35 C783.94,215.59 793.96,217.42 803.34,220.97 C803.85,221.16 804.44,221.43 804.61,221.97 C804.673591,222.36397 804.617869,222.767956 804.45,223.13 Z" id="Path" fill="#A1616A"></path>
            <path d="M778.34,593.55 C769.511052,606.198528 767.757161,622.481425 773.69,636.72 C774.427896,638.677646 775.577072,640.454265 777.06,641.93 C778.947804,643.405152 781.146719,644.431085 783.49,644.93 C803.35,650.58 824.55,649.47 844.89,645.93 C851.780346,644.869597 858.551905,643.144892 865.11,640.78 C875.18,636.93 884.17,630.78 893.05,624.64 L911.83,611.7 C917.91,607.51 924.04,603.3 930.83,600.36 C941.23,595.87 952.75,594.58 964.08,594.59 C973.812155,594.601624 983.521623,595.529046 993.08,597.36 C999.45,598.59 1007.08,599.86 1011.56,595.21 C1014.12,592.58 1014.88,588.73 1015.38,585.1 C1017.3585,570.976326 1017.32147,556.643261 1015.27,542.53 C1015.21987,541.342644 1014.78857,540.203025 1014.04,539.28 C1013.33391,538.680962 1012.47535,538.289762 1011.56,538.15 C1002.71,536.15 993.83,540.3 985.23,543.15 C967.36,549.09 948.17,549.8 929.99,554.69 C910.91,559.82 892.99,569.53 873.27,571.5 C863.87,572.44 854.43,571.62 845.01,571.83 C836.27,572.02 828.12,575.04 819.56,575.4 C803.06,576.13 788.71,579.01 778.34,593.55 Z" id="Path" fill="#A1616A"></path>
            <path d="M778.34,593.55 C769.511052,606.198528 767.757161,622.481425 773.69,636.72 C774.427896,638.677646 775.577072,640.454265 777.06,641.93 C778.947804,643.405152 781.146719,644.431085 783.49,644.93 C803.35,650.58 824.55,649.47 844.89,645.93 C851.780346,644.869597 858.551905,643.144892 865.11,640.78 C875.18,636.93 884.17,630.78 893.05,624.64 L911.83,611.7 C917.91,607.51 924.04,603.3 930.83,600.36 C941.23,595.87 952.75,594.58 964.08,594.59 C973.812155,594.601624 983.521623,595.529046 993.08,597.36 C999.45,598.59 1007.08,599.86 1011.56,595.21 C1014.12,592.58 1014.88,588.73 1015.38,585.1 C1017.3585,570.976326 1017.32147,556.643261 1015.27,542.53 C1015.21987,541.342644 1014.78857,540.203025 1014.04,539.28 C1013.33391,538.680962 1012.47535,538.289762 1011.56,538.15 C1002.71,536.15 993.83,540.3 985.23,543.15 C967.36,549.09 948.17,549.8 929.99,554.69 C910.91,559.82 892.99,569.53 873.27,571.5 C863.87,572.44 854.43,571.62 845.01,571.83 C836.27,572.02 828.12,575.04 819.56,575.4 C803.06,576.13 788.71,579.01 778.34,593.55 Z" id="Path" fill="#000000" opacity="0.06"></path>
            <path d="M794.48,572.41 C794.01,574.62 793.59,576.96 794.25,579.12 C795.068585,581.244099 796.451664,583.104341 798.25,584.5 C815.25,599.72 839.54,602.87 862.25,605.34 C868.4,606.01 874.66,606.68 880.75,605.57 C886.3,604.57 891.48,602.12 896.59,599.7 C907.59,594.49 918.65,589.22 928.08,581.56 C937.33,574.06 944.75,564.46 954.33,557.39 C965.22,549.39 978.61,544.81 988.33,535.39 C995.357377,528.609968 1000.02884,519.757677 1001.66,510.13 C1002.76,503.56 1002.4,496.85 1001.66,490.23 C1000.87,482.62 999.6,474.88 995.98,468.14 C991.79,460.34 984.75,454.45 977.32,449.61 C961.6,439.39 943.09,433.05 924.32,433.21 C898.32,433.44 874.32,448.57 855.66,465.56 C835.922436,483.554582 819.947875,505.283383 808.66,529.49 C802.287305,543.199313 797.528745,557.602514 794.48,572.41 Z" id="Path" fill="#464353"></path>
            <path d="M794.48,572.41 C794.01,574.62 793.59,576.96 794.25,579.12 C795.068585,581.244099 796.451664,583.104341 798.25,584.5 C815.25,599.72 839.54,602.87 862.25,605.34 C868.4,606.01 874.66,606.68 880.75,605.57 C886.3,604.57 891.48,602.12 896.59,599.7 C907.59,594.49 918.65,589.22 928.08,581.56 C937.33,574.06 944.75,564.46 954.33,557.39 C965.22,549.39 978.61,544.81 988.33,535.39 C995.357377,528.609968 1000.02884,519.757677 1001.66,510.13 C1002.76,503.56 1002.4,496.85 1001.66,490.23 C1000.87,482.62 999.6,474.88 995.98,468.14 C991.79,460.34 984.75,454.45 977.32,449.61 C961.6,439.39 943.09,433.05 924.32,433.21 C898.32,433.44 874.32,448.57 855.66,465.56 C835.922436,483.554582 819.947875,505.283383 808.66,529.49 C802.287305,543.199313 797.528745,557.602514 794.48,572.41 Z" id="Path" fill="#000000" opacity="0.06"></path>
            <path d="M837.78,302.83 C833.85,305.48 832.48,310.6 831.98,315.32 C829.85,335.39 838.13,355.26 837.58,375.43 C837.14,391.48 831.16,406.79 825.26,421.72 C815.2,447.19 809.96,474.85 807.93,502.16 C805.9,529.47 802.93,557.91 788.27,581.01 C784.94,586.24 781.06,591.1 777.8,596.36 C774.38,601.86 771.67,607.76 768.65,613.48 C759.752018,630.373396 748.281705,645.780724 734.65,659.15 C730.65,663.05 726.41,666.83 721.31,669.08 C714.670301,671.960819 707.148981,672.040143 700.45,669.3 C693.61,666.47 687.85,660.09 687.57,652.69 C687.32,646.07 691.27,640.1 695.23,634.8 C708.651777,616.844024 724.085652,600.484117 741.23,586.04 C744.34,583.42 747.62,580.71 749.23,576.97 C751.04,572.66 750.3,567.77 750.53,563.1 C750.9,555.65 753.8,548.58 755.53,541.32 C762.53,511.83 750.09,479.63 760.21,451.06 C762.46,444.71 765.8,438.64 766.59,431.95 C767.15,427.27 765.99,422.04 763.06,418.53 C760.316182,415.376034 758.781655,411.350116 758.73,407.17 C758.73,406.31 758.73,405.46 758.83,404.62 C760.05,391.53 761.26,378.38 760.6,365.25 C759.94,352.12 757.33,338.92 751.27,327.25 C748.13,321.2 744.07,315.54 742.13,309.01 C739.01,298.44 741.89,287.01 746.54,277.01 C750.17,269.19 755.01,261.74 761.77,256.38 C774.33,246.43 793.13,245.28 806.88,253.51 C817.02,259.57 823.96,269.76 829.59,280.15 C833.63,287.74 837.84,294.17 837.78,302.83 Z" id="Path" fill="#A1616A"></path>
            <ellipse id="Oval" fill="#A1616A" cx="782.53" cy="310.62" rx="37.85" ry="59.39"></ellipse>
            <path d="M686,620.97 C688.263245,624.159355 688.995745,628.188102 688,631.97 C691.567618,634.531837 695.904708,635.795205 700.29,635.55 C704.642356,635.312693 708.921438,634.328335 712.94,632.64 C716.435001,631.365534 719.744229,629.630207 722.78,627.48 C728,623.62 731.78,618.1 734.78,612.38 C736.47,609.22 737.91,605.13 735.78,602.29 C734.942751,601.326426 733.923188,600.537964 732.78,599.97 C725.075185,595.574534 717.052877,591.760595 708.78,588.56 C706.508794,587.512868 704.040887,586.960656 701.54,586.94 C698.47,587.11 695.68,588.79 693.24,590.67 C687.756053,594.934563 683.333919,600.410889 680.32,606.67 C679.38,608.67 676.54,613.42 677.95,615.48 C678.59,616.43 680.95,616.76 681.95,617.36 C683.540106,618.263379 684.920489,619.493794 686,620.97 Z" id="Path" fill="#FBBEBE"></path>
            <path d="M686,620.97 C688.263245,624.159355 688.995745,628.188102 688,631.97 C691.567618,634.531837 695.904708,635.795205 700.29,635.55 C704.642356,635.312693 708.921438,634.328335 712.94,632.64 C716.435001,631.365534 719.744229,629.630207 722.78,627.48 C728,623.62 731.78,618.1 734.78,612.38 C736.47,609.22 737.91,605.13 735.78,602.29 C734.942751,601.326426 733.923188,600.537964 732.78,599.97 C725.075185,595.574534 717.052877,591.760595 708.78,588.56 C706.508794,587.512868 704.040887,586.960656 701.54,586.94 C698.47,587.11 695.68,588.79 693.24,590.67 C687.756053,594.934563 683.333919,600.410889 680.32,606.67 C679.38,608.67 676.54,613.42 677.95,615.48 C678.59,616.43 680.95,616.76 681.95,617.36 C683.540106,618.263379 684.920489,619.493794 686,620.97 Z" id="Path" fill="#000000" opacity="0.03"></path>
            <path d="M727.41,597.8 C744.33,600.94 759.89,609.12 776.52,613.53 C783.25,615.31 790.18,616.53 796.61,619.15 C803.04,621.77 809.1,626.25 811.87,632.63 C813.04098,635.692414 813.817223,638.891478 814.18,642.15 C814.9,646.76 815.49,651.91 812.75,655.69 C809.86,659.69 804.4,660.57 799.51,661.16 C781.93,663.25 764.35,665.35 746.71,666.83 C743.138386,667.046565 739.582385,667.470614 736.06,668.1 C733.16,668.68 730.33,669.56 727.45,670.24 C723.72,671.11 719.93,671.66 716.15,672.24 C706.48,673.63 696.7,675.02 686.99,673.96 C682.56,673.47 677.6,672.04 675.65,668.04 C674.840563,665.966835 674.499094,663.740457 674.65,661.52 C674.6,655.58 674.55,649.65 674.65,643.72 C674.74,637.63 675.04,631.31 677.8,625.88 C678.48436,624.21751 679.774739,622.877089 681.41,622.13 C682.416386,621.841773 683.468256,621.746765 684.51,621.85 C689.71,622.03 695.09,622.25 699.74,624.57 C703.43,626.4 706.43,629.45 710.19,631.11 C717.31,634.27 725.9,632 733.11,634.97 C734.79,629.79 734.41,624.55 733.16,619.24 C731.91,613.93 730.16,608.72 729.63,603.3 C729.609069,602.109109 729.378898,600.931174 728.95,599.82 C728.41,598.71 728.59,597.63 727.41,597.8 Z" id="Path" fill="#464353"></path>
            <path d="M727.41,597.8 C744.33,600.94 759.89,609.12 776.52,613.53 C783.25,615.31 790.18,616.53 796.61,619.15 C803.04,621.77 809.1,626.25 811.87,632.63 C813.04098,635.692414 813.817223,638.891478 814.18,642.15 C814.9,646.76 815.49,651.91 812.75,655.69 C809.86,659.69 804.4,660.57 799.51,661.16 C781.93,663.25 764.35,665.35 746.71,666.83 C743.138386,667.046565 739.582385,667.470614 736.06,668.1 C733.16,668.68 730.33,669.56 727.45,670.24 C723.72,671.11 719.93,671.66 716.15,672.24 C706.48,673.63 696.7,675.02 686.99,673.96 C682.56,673.47 677.6,672.04 675.65,668.04 C674.840563,665.966835 674.499094,663.740457 674.65,661.52 C674.6,655.58 674.55,649.65 674.65,643.72 C674.74,637.63 675.04,631.31 677.8,625.88 C678.48436,624.21751 679.774739,622.877089 681.41,622.13 C682.416386,621.841773 683.468256,621.746765 684.51,621.85 C689.71,622.03 695.09,622.25 699.74,624.57 C703.43,626.4 706.43,629.45 710.19,631.11 C717.31,634.27 725.9,632 733.11,634.97 C734.79,629.79 734.41,624.55 733.16,619.24 C731.91,613.93 730.16,608.72 729.63,603.3 C729.609069,602.109109 729.378898,600.931174 728.95,599.82 C728.41,598.71 728.59,597.63 727.41,597.8 Z" id="Path" fill="#000000" opacity="0.06"></path>
            <path d="M162.2,427.29 C158.79,426.21 155.5,429.23 153.59,432.29 C145.65,444.77 146.3,461.43 152.65,474.79 C154.160814,478.178111 156.244694,481.28025 158.81,483.96 C162.25,487.35 166.68,489.52 170.81,491.96 C182.269575,498.730169 192.09061,507.950196 199.57,518.96 C204.46,526.17 208.31,534.1 213.86,540.81 C227.52,557.33 249.97,564.81 263.22,581.61 C266.39,585.61 269.07,590.25 273.3,593.16 C278.420369,596.680508 285.045108,597.15401 290.614125,594.397523 C296.183141,591.641037 299.82411,586.086335 300.13,579.88 C305.28,572.31 309.49,563.95 313.5,555.71 C319.433029,543.132962 324.446176,530.142226 328.5,516.84 C329.99,512.14 331.43,507.41 333.33,502.84 C338.02,491.56 345.49,481.35 348.13,469.43 C349.19,464.65 349.45,459.68 350.99,455.04 C352.369272,450.875246 354.728798,447.102747 357.87,444.04 C368.27,433.93 373.87,419.2 382.14,407.3 C385.5,402.49 388.99,397.69 391.21,392.25 C393.43,386.81 394.28,380.58 392.21,375.08 C390.14,369.58 384.73,365.14 378.87,365.45 C376.247458,365.721994 373.703223,366.503268 371.38,367.75 C363.304046,371.582367 355.896305,376.687428 349.44,382.87 C346.616743,385.586907 343.945993,388.457963 341.44,391.47 C329.22,406.07 319.66,423.79 318.82,442.81 C318.54,449.33 319.06,456.56 314.92,461.61 C303.5,475.56 299.83,494.74 290.09,509.92 C285.58,516.92 280.41,524.17 272.7,527.36 C271.561214,527.907744 270.301406,528.155575 269.04,528.08 C265.96,527.73 264.19,524.49 262.89,521.67 C257.809803,510.671352 251.930738,500.059623 245.3,489.92 C242.68,485.92 239.79,481.82 235.6,479.47 C232.74,477.88 229.42,477.17 226.73,475.31 C222.98,472.72 221.02,468.31 219.07,464.18 C212.750121,450.841181 204.748399,438.366425 195.26,427.06 C190.92,421.89 185.2,416.55 178.5,417.32 C172.12,418.07 168.22,424.78 162.2,427.29 Z" id="Path" fill="#FBBEBE"></path>
            <path d="M162.2,427.29 C158.79,426.21 155.5,429.23 153.59,432.29 C145.65,444.77 146.3,461.43 152.65,474.79 C154.160814,478.178111 156.244694,481.28025 158.81,483.96 C162.25,487.35 166.68,489.52 170.81,491.96 C182.269575,498.730169 192.09061,507.950196 199.57,518.96 C204.46,526.17 208.31,534.1 213.86,540.81 C227.52,557.33 249.97,564.81 263.22,581.61 C266.39,585.61 269.07,590.25 273.3,593.16 C278.420369,596.680508 285.045108,597.15401 290.614125,594.397523 C296.183141,591.641037 299.82411,586.086335 300.13,579.88 C305.28,572.31 309.49,563.95 313.5,555.71 C319.433029,543.132962 324.446176,530.142226 328.5,516.84 C329.99,512.14 331.43,507.41 333.33,502.84 C338.02,491.56 345.49,481.35 348.13,469.43 C349.19,464.65 349.45,459.68 350.99,455.04 C352.369272,450.875246 354.728798,447.102747 357.87,444.04 C368.27,433.93 373.87,419.2 382.14,407.3 C385.5,402.49 388.99,397.69 391.21,392.25 C393.43,386.81 394.28,380.58 392.21,375.08 C390.14,369.58 384.73,365.14 378.87,365.45 C376.247458,365.721994 373.703223,366.503268 371.38,367.75 C363.304046,371.582367 355.896305,376.687428 349.44,382.87 C346.616743,385.586907 343.945993,388.457963 341.44,391.47 C329.22,406.07 319.66,423.79 318.82,442.81 C318.54,449.33 319.06,456.56 314.92,461.61 C303.5,475.56 299.83,494.74 290.09,509.92 C285.58,516.92 280.41,524.17 272.7,527.36 C271.561214,527.907744 270.301406,528.155575 269.04,528.08 C265.96,527.73 264.19,524.49 262.89,521.67 C257.809803,510.671352 251.930738,500.059623 245.3,489.92 C242.68,485.92 239.79,481.82 235.6,479.47 C232.74,477.88 229.42,477.17 226.73,475.31 C222.98,472.72 221.02,468.31 219.07,464.18 C212.750121,450.841181 204.748399,438.366425 195.26,427.06 C190.92,421.89 185.2,416.55 178.5,417.32 C172.12,418.07 168.22,424.78 162.2,427.29 Z" id="Path" fill="#000000" opacity="0.03"></path>
            <ellipse id="Oval" fill="#FBBEBE" cx="161.5" cy="355.72" rx="26.36" ry="23.79"></ellipse>
            <circle id="Oval" fill="#FBBEBE" cx="186.22" cy="350.83" r="9.49"></circle>
            <ellipse id="Oval" fill="#FBBEBE" cx="164.96" cy="346.01" rx="36.31" ry="9.71"></ellipse>
            <path d="M132.58,343.94 C133.46342,346.740372 134.158309,349.596763 134.66,352.49 C131.611293,349.394997 128.969963,345.923631 126.8,342.16 C126.215049,341.510958 125.744986,340.766974 125.41,339.96 C122.17,332.42 119.96,324.79 119.96,316.53 C119.957925,289.926503 140.270917,267.724865 166.769804,265.367951 C193.26869,263.011036 217.181215,281.279084 221.874465,307.465329 C226.567716,333.651575 210.488027,359.087258 184.82,366.08 C186.39,361.02 188.54,356.08 188.82,350.83 C188.988707,349.078857 188.734942,347.312793 188.08,345.68 C187.202424,343.943255 185.906919,342.451878 184.31,341.34 C178.59,336.97 171.23,335.06 164.03,335.18 C156.821599,335.479385 149.740188,337.177565 143.18,340.18 C141.11,341.07 138.63,342.27 136.18,343.09 C135.011943,343.494726 133.805728,343.779526 132.58,343.94 Z" id="Path" fill="#FBBEBE"></path>
            <path d="M262.83,456.32 C259.54,461.59 252.51,463.2 246.33,462.73 C234.81,461.88 224.33,455.73 215.43,448.33 C206.53,440.93 198.75,432.33 189.65,425.21 C172.72,411.94 153.65,406.61 132.11,406.3 C136.32,402.81 134.77,394.53 135.11,389.09 C135.85,378.09 136.55,366.8 135.11,355.96 C134.96,354.79 134.79,353.64 134.59,352.49 C134.93,352.85 135.29,353.2 135.66,353.56 C148.689525,366.064021 167.323436,370.816447 184.75,366.08 C184.199018,367.821794 183.768009,369.599289 183.46,371.4 C182.22,379.13 184.3,386.97 186.35,394.54 C187.57,399.07 189.02,403.93 192.75,406.76 C195.17,408.6 198.22,409.32 201.09,410.29 C206.810971,412.239931 212.09158,415.298198 216.63,419.29 C219.79,422.06 222.63,425.29 226.02,427.7 C229.243927,429.739534 232.640228,431.492895 236.17,432.94 C244.833071,436.937809 253.018046,441.899111 260.57,447.73 C261.995253,448.619395 263.104343,449.934909 263.74,451.49 C264.117464,453.15657 263.788041,454.905046 262.83,456.32 Z" id="Path" fill="#FBBEBE"></path>
            <path d="M321.9,553.21 C321.21,557.77 317.03,561.33 314.08,564.87 C306.06,574.55 297.93,584.26 288.96,593.12 C279.36,602.59 268.82,611.03 258.29,619.47 L244.63,630.4 C242.944848,631.940747 240.969785,633.130544 238.82,633.9 C236.301735,634.528205 233.640551,634.211567 231.34,633.01 C230.42381,632.571351 229.555794,632.038477 228.75,631.42 C225.92,629.22 223.84,626.22 221.81,623.27 C212.57,609.783333 203.32,596.293333 194.06,582.8 C190.76,577.98 187.52,573.03 184.3,568.08 C183.87,567.44 183.46,566.79 183.03,566.15 C180.09,561.65 177.16,557.15 174.15,552.8 L157.69,545.09 L155.53,544.09 L152.98,542.9 C149.59,541.31 146.15,539.69 143.33,537.23 C140.629689,534.691767 138.380933,531.712588 136.68,528.42 C133.386298,522.33065 130.506448,516.026384 128.06,509.55 C121.06,491.88 114.9,473.46 114.64,454.44 C114.41,437.71 119.35,420.31 130.47,408.03 C131.989975,406.340311 133.623791,404.756612 135.36,403.29 C137.5,401.5 139.71,400.45 142.46,400.84 C145.21,401.23 147.82,401.63 150.46,402.08 C157.74,403.333333 164.963333,404.866667 172.13,406.68 C178.59,408.33 185.28,410.21 191.81,408.9 C192.86,408.69 193.9,408.39 194.94,408.12 C195.79,407.9 196.63,407.69 197.5,407.55 C197.98289,407.466529 198.470493,407.413093 198.96,407.39 C202.43,407.21 205.76,408.6 208.96,409.97 C215.07,412.59 221.36,415.35 225.96,420.17 C228.7,423.07 230.71,426.63 233.63,429.36 C237.53,433.01 242.73,434.88 247.41,437.49 C248.314093,437.991495 249.185808,438.549259 250.02,439.16 C251.86576,440.543451 253.543775,442.137565 255.02,443.91 C261.08,451.06 264.68,460.71 271.37,467.82 C276.723941,473.499932 281.377184,479.801618 285.23,486.59 C285.86,487.72 286.47,488.86 287.07,490.02 C288.07,491.95 289,493.91 289.86,495.89 C290.08,496.4 290.3,496.89 290.5,497.42 C291.758309,500.416238 292.856523,503.477219 293.79,506.59 C296.06,514.14 297.57,522.29 302.61,528.35 C306.13,532.56 311.01,535.35 315.12,538.98 C317.7668,541.222063 319.849484,544.054925 321.2,547.25 C321.942157,549.14337 322.18326,551.196195 321.9,553.21 Z" id="Path" fill="#FBBEBE"></path>
            <path d="M294.06,493.15 C292.913333,494.596667 291.736667,496.023333 290.53,497.43 C290.33,497.69 290.11,497.94 289.89,498.19 C279.363695,510.503543 267.313627,521.427907 254.03,530.7 C245.81,536.44 237.14,541.53 228.49,546.61 L212.49,555.98 C205.8,559.91 199.02,563.87 191.6,566.13 C189.22,566.84 186.73,567.41 184.3,568.08 C183.87,567.44 183.46,566.79 183.03,566.15 C180.09,561.65 177.16,557.15 174.15,552.8 L157.69,545.09 C166.780186,539.344076 174.844867,532.117635 181.55,523.71 C191.55,511.38 199.24,497.32 206.82,483.35 C208.16381,481.094663 209.209209,478.674447 209.93,476.15 C210.93,471.96 210.09,467.56 208.86,463.44 C204.35747,448.667971 194.890214,435.904837 182.06,427.31 C173.06,421.31 162.82,417.66 152.64,414.14 C145.53,411.68 137.74,409.3 130.51,410.31 C132.027531,408.621063 133.661532,407.040527 135.4,405.58 C137.54,403.78 139.75,402.73 142.5,403.12 C145.25,403.51 147.86,403.91 150.5,404.37 C155.85,406.01 161.11,407.97 166.34,409.99 C169.780536,411.251203 173.123,412.76534 176.34,414.52 C179.54208,416.474951 182.618142,418.629197 185.55,420.97 C194.22089,427.579658 203.350554,433.564734 212.87,438.88 C223.87,444.95 235.42,449.88 246.96,454.88 C248.183784,455.508597 249.534531,455.850559 250.91,455.88 C252.32735,455.877533 253.562522,454.914099 253.91,453.54 C253.955686,452.811557 253.788939,452.085515 253.43,451.45 C251.43,447.36 246.89,445.3 242.78,443.31 C225.72,435.05 210.72,423.16 195.88,411.36 C195.519522,411.07435 195.202827,410.737441 194.94,410.36 L197.5,409.79 C214.10772,421.718541 231.647554,432.292603 249.95,441.41 C250.916667,441.903333 251.886667,442.383333 252.86,442.85 C253.56,443.2 254.25,443.54 254.96,443.85 C259.89,446.27 264.82,448.85 268.53,452.85 C270.922683,455.609018 272.940158,458.672217 274.53,461.96 C278.617267,469.681903 282.107462,477.70534 284.97,485.96 C285.024467,486.136446 285.087882,486.310004 285.16,486.48 C285.522829,487.741013 286.150077,488.910286 287,489.91 C287.299417,490.245253 287.654675,490.526076 288.05,490.74 C289.93,491.85 292.51,491.73 294.06,493.15 Z" id="Path" fill="#000000" opacity="0.06"></path>
            <path d="M197.54,407.55 C214.145563,419.478894 231.6857,430.049795 249.99,439.16 L252.9,440.61 C258.5,443.35 264.33,446.07 268.58,450.61 C270.970632,453.374223 272.98788,456.440441 274.58,459.73 C278.669938,467.449272 282.156994,475.473178 285.01,483.73 C285.65,485.56 286.4,487.57 288.1,488.51 C289.8,489.45 292.5,489.38 294.01,490.8 C292.65,492.5 291.27,494.18 289.84,495.8 C279.316588,508.11926 267.266196,519.047279 253.98,528.32 C245.76,534.06 237.09,539.15 228.44,544.23 L212.44,553.6 C205.75,557.52 198.97,561.48 191.55,563.74 C188.76,564.59 185.81,565.23 182.98,566.05 C180.04,561.55 177.11,557.05 174.1,552.7 L155.48,543.98 C165.48,538.32 174.2,530.27 181.48,521.32 C191.48,509 199.17,494.94 206.75,480.97 C208.092109,478.713794 209.13741,476.293804 209.86,473.77 C210.86,469.58 210.02,465.17 208.79,461.05 C204.285097,446.32518 194.84563,433.601499 182.06,425.02 C173.06,419.02 162.82,415.38 152.64,411.85 C145.53,409.4 137.74,407.01 130.51,408.03 C132.029975,406.340311 133.663791,404.756612 135.4,403.29 C137.54,401.5 139.75,400.45 142.5,400.84 C145.25,401.23 147.86,401.63 150.5,402.08 C155.85,403.73 161.11,405.69 166.34,407.71 C169.782311,408.96686 173.125094,410.481141 176.34,412.24 C179.54208,414.194951 182.618142,416.349197 185.55,418.69 C194.235074,425.28441 203.378138,431.252799 212.91,436.55 C223.91,442.63 235.46,447.6 247,452.55 C248.223534,453.179257 249.574437,453.521258 250.95,453.55 C252.369815,453.554708 253.608882,452.588236 253.95,451.21 C253.994884,450.484806 253.828126,449.762191 253.47,449.13 C251.47,445.04 246.93,442.97 242.82,440.99 C225.76,432.73 210.76,420.83 195.92,408.99 C195.556621,408.707522 195.239483,408.37014 194.98,407.99 L197.54,407.55 Z" id="Path" fill="#02689A"></path>
            <circle id="Oval" fill="#F5A623" cx="337.65" cy="399.07" r="62.77"></circle>
            <path d="M400.06,648.89 C411.81,645.2 423.74,641.44 434.06,634.69 C441.31,629.95 447.56,623.85 454.14,618.21 C459.09,613.97 464.25,609.97 468.79,605.29 C472.857312,600.910514 476.663868,596.2959 480.19,591.47 C488.216667,580.963333 496.506667,570.656667 505.06,560.55 C509.65,555.16 514.5,549.67 520.91,546.67 C532.3,541.32 545.67,544.93 557.69,548.6 C575.69,554.1 593.6,559.93 610.44,568.3 C620.02,573.07 629.3,578.39 638.97,582.96 C656.65,591.31 675.42,597.04 694.12,602.74 C695.509442,603.331458 697.052896,603.457741 698.52,603.1 C699.568822,602.619061 700.46995,601.866395 701.13,600.92 C703.568412,597.908133 705.521911,594.534214 706.92,590.92 C707.472921,590.068224 707.266949,588.93319 706.45,588.33 C698.45,580.54 688.07,575.75 678.37,570.2 C670.65,565.79 663.26,560.84 655.88,555.89 C648.79,551.14 641.64,546.34 635.69,540.23 C632.69,537.14 629.99,533.73 626.74,530.91 C623.868625,528.561207 620.826943,526.428687 617.64,524.53 C603.385294,515.427117 589.779295,505.346248 576.92,494.36 C567.14,486 559.13,475.23 548.68,467.73 C542.27,463.13 534.81,458.94 526.97,459.78 C517.43,460.78 510.39,468.78 503.74,475.68 C481.39,498.89 453.19,515.5 428.25,535.91 C407.89,552.55 388.86,572.32 364.06,581.1 C365.17,584.78 365.56,588.46 366.68,592.1 C368.07576,597.159833 369.816502,602.118106 371.89,606.94 C373.946062,611.210219 376.260348,615.351222 378.82,619.34 L388.76,635.57 C390.76,638.87 392.85,642.22 395.71,644.84 C397.21,646.28 400.06,646.8 400.06,648.89 Z" id="Path" fill="#464353"></path>
            <path d="M400.06,648.89 C411.81,645.2 423.74,641.44 434.06,634.69 C441.31,629.95 447.56,623.85 454.14,618.21 C459.09,613.97 464.25,609.97 468.79,605.29 C472.857312,600.910514 476.663868,596.2959 480.19,591.47 C488.216667,580.963333 496.506667,570.656667 505.06,560.55 C509.65,555.16 514.5,549.67 520.91,546.67 C532.3,541.32 545.67,544.93 557.69,548.6 C575.69,554.1 593.6,559.93 610.44,568.3 C620.02,573.07 629.3,578.39 638.97,582.96 C656.65,591.31 675.42,597.04 694.12,602.74 C695.509442,603.331458 697.052896,603.457741 698.52,603.1 C699.568822,602.619061 700.46995,601.866395 701.13,600.92 C703.568412,597.908133 705.521911,594.534214 706.92,590.92 C707.472921,590.068224 707.266949,588.93319 706.45,588.33 C698.45,580.54 688.07,575.75 678.37,570.2 C670.65,565.79 663.26,560.84 655.88,555.89 C648.79,551.14 641.64,546.34 635.69,540.23 C632.69,537.14 629.99,533.73 626.74,530.91 C623.868625,528.561207 620.826943,526.428687 617.64,524.53 C603.385294,515.427117 589.779295,505.346248 576.92,494.36 C567.14,486 559.13,475.23 548.68,467.73 C542.27,463.13 534.81,458.94 526.97,459.78 C517.43,460.78 510.39,468.78 503.74,475.68 C481.39,498.89 453.19,515.5 428.25,535.91 C407.89,552.55 388.86,572.32 364.06,581.1 C365.17,584.78 365.56,588.46 366.68,592.1 C368.07576,597.159833 369.816502,602.118106 371.89,606.94 C373.946062,611.210219 376.260348,615.351222 378.82,619.34 L388.76,635.57 C390.76,638.87 392.85,642.22 395.71,644.84 C397.21,646.28 400.06,646.8 400.06,648.89 Z" id="Path" fill="#501BE3" opacity="0.579926525"></path>
            <path d="M673.82,629.84 C676.079333,633.031001 676.811503,637.057938 675.82,640.84 C679.374146,643.40881 683.700899,644.682837 688.08,644.45 C692.440499,644.209111 696.728284,643.228466 700.76,641.55 C704.253179,640.271416 707.561877,638.536366 710.6,636.39 C715.83,632.53 719.6,627.01 722.65,621.28 C724.34,618.13 725.78,614.04 723.6,611.2 C722.767619,610.231286 721.746938,609.441959 720.6,608.88 C712.910534,604.488254 704.905127,600.674404 696.65,597.47 C694.377511,596.425449 691.910876,595.870116 689.41,595.84 C686.33,596.01 683.54,597.7 681.1,599.58 C675.619693,603.845692 671.201054,609.321929 668.19,615.58 C667.25,617.58 664.41,622.34 665.81,624.4 C666.45,625.35 668.81,625.68 669.81,626.27 C671.381551,627.166568 672.747617,628.382741 673.82,629.84 Z" id="Path" fill="#FBBEBE"></path>
            <path d="M719.61,606.18 C736.53,609.33 752.09,617.5 768.72,621.91 C775.45,623.69 782.38,624.91 788.81,627.53 C795.24,630.15 801.3,634.63 804.07,641.01 C805.239841,644.072769 806.016048,647.271685 806.38,650.53 C807.1,655.14 807.69,660.29 804.95,664.07 C802.06,668.07 796.6,668.96 791.71,669.54 C774.13,671.64 756.55,673.73 738.91,675.21 C735.345529,675.432275 731.79651,675.856288 728.28,676.48 C725.38,677.07 722.55,677.94 719.67,678.62 C715.95,679.5 712.15,680.04 708.37,680.62 C698.7,682 688.92,683.4 679.21,682.33 C674.78,681.84 669.82,680.41 667.87,676.41 C667.060563,674.336835 666.719094,672.110457 666.87,669.89 C666.87,663.96 666.77,658.02 666.87,652.09 C666.96,646 667.26,639.68 670.02,634.25 C670.706906,632.589174 671.996498,631.249569 673.63,630.5 C674.636386,630.211773 675.688256,630.116765 676.73,630.22 C681.93,630.4 687.31,630.62 691.96,632.94 C695.65,634.77 698.31,629.3 702.07,630.94 C709.2,634.09 704.37,624.54 711.57,627.51 C713.25,622.33 720.39,625.41 719.15,620.1 C717.91,614.79 722.36,617.1 721.85,611.64 C721.828037,610.449218 721.597901,609.271461 721.17,608.16 C720.61,607.09 720.79,606.01 719.61,606.18 Z" id="Path" fill="#464353"></path>
            <path d="M212.77,286.23 C208.89,288.49 204.08,288.07 199.56,287.97 C195.607124,287.888322 191.65351,288.092185 187.73,288.58 C186.317132,288.678714 184.935928,289.045226 183.66,289.66 C181.998475,290.731728 180.685003,292.264111 179.88,294.07 C178.279692,297.143881 177.201656,300.462473 176.69,303.89 C176.13,307.74 176.19,311.95 173.79,315 C170.52,319.15 165.42,318.51 160.79,319.33 C156.760508,320.103306 152.898373,321.579108 149.38,323.69 C142.359817,327.929081 137.533602,335.015076 136.16,343.1 C136.03,344.01 135.94,344.91 135.9,345.82 C135.8,348.4 136.06,351.03 135.72,353.56 C135.6377,354.191533 135.510715,354.816434 135.34,355.43 C135.295708,355.6104 135.238904,355.787495 135.17,355.96 C135.02,354.79 134.85,353.64 134.65,352.49 C131.601293,349.394997 128.959963,345.923631 126.79,342.16 C126.205049,341.510958 125.734986,340.766974 125.4,339.96 C122.16,332.42 119.95,324.79 119.95,316.53 C119.948578,294.309201 134.239821,274.608585 155.36339,267.712301 C176.48696,260.816016 199.649636,268.288922 212.76,286.23 L212.77,286.23 Z" id="Path" fill="#000000" opacity="0.06"></path>
            <path d="M216.06,266.55 C213.49,260.6 208.06,256.38 202.48,253.07 C191.48,246.51 178.82,242.39 165.98,242.22 C159.501648,242.221716 153.040764,242.891932 146.7,244.22 C140.520987,245.324529 134.467649,247.043047 128.63,249.35 C118.997661,253.35602 110.483295,259.64313 103.82,267.67 C102.420276,267.776144 101.032013,268.000274 99.67,268.34 C94.23,269.7 89.33,272.69 84.86,276.08 C81.1192898,278.789603 77.7971239,282.034274 75,285.71 C71.7263649,290.404097 69.4620003,295.726205 68.35,301.34 C64.54,318.9 69.23,337.02 72.67,354.65 C76.11,372.28 78.12,391.54 69.67,407.38 C66.48,413.38 61.95,418.48 58.55,424.32 C55.15,430.16 52.89,437.19 54.82,443.67 C57.12,451.55 64.86,456.55 68.9,463.64 C73.9857047,473.173114 72.0740917,484.929329 64.23,492.36 C70.58,494.56 77.65,492.19 83.37,488.67 C87.9051859,486.02933 91.7636152,482.369471 94.64,477.98 C101.83,466.34 98.64,451.31 101.14,437.86 C104.47,420.26 117.91,404.56 116.06,386.74 C114.81,374.74 106.89,364.79 100.66,354.5 C96.5044113,347.637536 93.0119709,340.394824 90.23,332.87 C88.23,327.5 86.61,321.73 87.6,316.09 C87.9275797,314.368068 88.4544577,312.690112 89.17,311.09 C89.17,311.28 89.17,311.47 89.17,311.66 C89.2839656,316.839821 90.4474226,321.942703 92.59,326.66 C100.03,341.86 119.84,347.46 128.23,362.15 C130.68,359.48 133.23,356.68 134.23,353.2 C135.11,350.1 134.66,346.8 134.79,343.58 C135.14,334.58 140.61,326.1 148.27,321.46 C151.785644,319.345595 155.649027,317.872702 159.68,317.11 C164.3,316.28 169.4,316.91 172.68,312.76 C175.08,309.76 175.02,305.5 175.59,301.66 C176.096921,298.228181 177.175177,294.905531 178.78,291.83 C179.582158,290.024957 180.896481,288.495056 182.56,287.43 C183.837541,286.810024 185.223038,286.443275 186.64,286.35 C190.560135,285.861902 194.510445,285.658036 198.46,285.74 C203.03,285.85 207.92,286.26 211.84,283.91 C217.36,280.55 218.63,272.55 216.06,266.55 Z" id="Path" fill="#464353"></path>
            <path d="M774.87,211.35 C774.87,211.49 774.87,211.62 774.87,211.76 C773.06,227.36 758.06,226.64 754.56,251.22 C753.18,260.85 738.56,262.63 728.95,265.22 C724.8,263.82 720.6,262.61 716.45,261.1 C706.85,257.63 713.56,252.42 717.67,246.82 C731.12,228.48 733.67,203.42 748.94,186.57 C754.540169,197.209974 763.399069,205.778016 774.22,211.02 C774.43,211.16 774.65,211.26 774.87,211.35 Z" id="Path" fill="#000000" opacity="0.06"></path>
            <path d="M775.22,202.4 C775.218607,204.765607 775.085066,207.12929 774.82,209.48 C770.99042,243.239712 740.994462,267.824162 707.140025,264.949972 C673.285589,262.075782 647.863435,232.786419 649.77994,198.86429 C651.696444,164.942161 680.255825,138.702603 714.218561,139.659892 C748.181297,140.61718 775.217309,168.423776 775.22,202.4 Z" id="Path" fill="#A1616A"></path>
            <path d="M800.47,209.42 C807.66,209.07 814.57,211.89 821.21,214.66 C847.54,225.66 874.09,236.75 897.62,252.9 C909.22,260.9 919.97,269.98 930.7,279.09 L974.79,316.55 C983.26,323.74 991.79,331 998.59,339.8 C1002.59258,345.227479 1006.24338,350.905771 1009.52,356.8 L1016.06,367.95 C1018.73916,372.31419 1021.07936,376.877595 1023.06,381.6 C1026.42,390.21 1027.67,400.25 1034.45,406.54 C1039,410.77 1045.27,412.49 1050.83,415.28 C1056.39,418.07 1061.83,422.97 1061.74,429.19 C1061.74,433.19 1059.32,436.79 1057.5,440.39 C1053.73032,447.912525 1052.15027,456.342936 1052.94,464.72 L980.84,409.62 C977.97,407.43 974.97,405.17 971.44,404.43 C966.86,403.43 962.19,405.16 957.77,406.72 C922.925435,419.008339 885.896587,423.875805 849.06,421.01 C832.77,419.73 816.23,416.8 801.97,408.83 C794.08,404.43 787.1,398.6 780.17,392.83 C771.52,385.59 762.84,378.33 755.17,370.05 C753.17,367.84 751.09,365.41 750.58,362.45 C750.2,360.31 750.67,358.13 750.85,355.97 C752.11,340.8 739.51,328.17 735.67,313.44 C732.191749,299.281024 736.901674,284.364331 747.88,274.77 C756.47,282.29 756.16,295.5 755.16,306.87 C753.81,322.18 758.09,329.77 756.74,345.09 C762.18,344.89 761.19,348.39 763.51,343.46 C765.83,338.53 766.28,332.97 766.72,327.54 C768.326667,307.9 770.276667,288.293333 772.57,268.72 C773.71,258.93 775.01,249.16 776.26,239.38 C777.02,233.43 776.92,227.87 780.06,222.59 C784.42,215.28 791.83,209.83 800.47,209.42 Z" id="Path" fill="#7ED321"></path>
            <path d="M809.88,227.26 C814.46,225.82 819.39,227.14 823.99,228.51 C832.123333,230.923333 840.21,233.473333 848.25,236.16 C854.82,238.35 861.48,240.7 867.04,244.83 C872.81,249.11 877.04,255.06 881.23,260.91 C884.23,265.12 887.23,269.38 889.23,274.16 C891.83,280.42 892.53,287.28 893.23,294.02 C893.689064,296.928554 893.651871,299.893875 893.12,302.79 C892.180924,305.934568 890.527927,308.819613 888.29,311.22 C884.847325,315.294799 880.855939,318.872239 876.43,321.85 C864.66,329.77 850.43,333.07 836.57,335.98 C824.2,338.57 811.74,340.98 799.12,341.76 C794.21,342.07 788.51,341.76 785.51,337.88 C784.656205,336.670357 783.982514,335.343187 783.51,333.94 C776.136191,314.410608 772.944027,293.550822 774.14,272.71 C774.248492,268.911226 774.836481,265.141377 775.89,261.49 C776.928329,258.568014 778.216424,255.740897 779.74,253.04 C783.53,245.87 787.52,238.45 794.05,233.65 C800.88,228.65 809.73,227.07 818.2,227.39" id="Path" fill="#A1616A"></path>
            <path d="M855.95,301.42 C852.02,304.07 850.65,309.19 850.15,313.91 C848.02,333.98 856.3,353.85 855.75,374.02 C855.31,390.02 849.33,405.38 843.43,420.31 C833.37,445.78 828.13,473.44 826.1,500.75 C824.07,528.06 821.1,556.5 806.44,579.6 C803.11,584.83 799.23,589.69 795.97,594.95 C792.55,600.45 789.84,606.35 786.82,612.07 C777.922018,628.963396 766.451705,644.370724 752.82,657.74 C748.82,661.64 744.58,665.42 739.48,667.67 C732.840301,670.550819 725.318981,670.630143 718.62,667.89 C711.78,665.06 706.02,658.68 705.74,651.28 C705.49,644.66 709.44,638.69 713.4,633.39 C726.821777,615.434024 742.255652,599.074117 759.4,584.63 C762.51,582.01 765.79,579.3 767.4,575.56 C769.21,571.25 768.47,566.36 768.7,561.69 C769.07,554.24 771.97,547.17 773.7,539.91 C780.7,510.42 768.26,478.22 778.38,449.65 C780.63,443.3 783.97,437.23 784.76,430.54 C785.32,425.86 784.15,420.63 781.23,417.12 C778.487094,413.964735 776.949625,409.940392 776.89,405.76 C776.89,404.9 776.89,404.05 777,403.21 C778.22,390.12 779.43,376.97 778.77,363.84 C778.11,350.71 775.5,337.51 769.44,325.84 C766.3,319.79 762.24,314.13 760.3,307.6 C757.18,297.03 760.06,285.6 764.71,275.6 C768.34,267.78 773.18,260.33 779.94,254.97 C792.5,245.02 811.3,243.87 825.05,252.1 C835.19,258.16 842.13,268.35 847.76,278.74 C851.8,286.33 856.06,292.76 855.95,301.42 Z" id="Path" fill="#000000" opacity="0.06"></path>
            <path d="M858.23,301.42 C854.3,304.07 852.93,309.19 852.43,313.91 C850.3,333.98 858.58,353.85 858.03,374.02 C857.59,390.02 851.61,405.38 845.71,420.31 C835.65,445.78 830.42,473.44 828.38,500.75 C826.34,528.06 823.38,556.5 808.72,579.6 C805.39,584.83 801.52,589.69 798.25,594.95 C794.84,600.45 792.12,606.35 789.1,612.07 C780.199132,628.961577 768.729135,644.368482 755.1,657.74 C751.1,661.64 746.85,665.42 741.75,667.67 C735.110301,670.550819 727.588981,670.630143 720.89,667.89 C714.06,665.06 708.3,658.68 708.02,651.28 C707.76,644.66 711.71,638.69 715.68,633.39 C729.101373,615.433685 744.53529,599.073733 761.68,584.63 C764.79,582.01 768.08,579.3 769.68,575.56 C771.5,571.25 770.75,566.36 770.98,561.69 C771.35,554.24 774.25,547.17 775.98,539.91 C782.98,510.42 770.54,478.22 780.66,449.65 C782.91,443.3 786.26,437.23 787.05,430.54 C787.6,425.86 786.44,420.63 783.52,417.12 C780.726026,413.986468 779.144194,409.957407 779.06,405.76 C779.06,404.9 779.06,404.05 779.17,403.21 C780.38,390.12 781.59,376.97 780.93,363.84 C780.27,350.71 777.66,337.51 771.6,325.84 C768.46,319.79 764.4,314.13 762.46,307.6 C759.34,297.03 762.22,285.6 766.87,275.6 C770.51,267.78 775.34,260.33 782.1,254.97 C794.66,245.02 813.46,243.87 827.21,252.1 C837.35,258.16 844.29,268.35 849.92,278.74 C854.06,286.33 858.3,292.76 858.23,301.42 Z" id="Path" fill="#A1616A"></path>
            <path d="M959.36,562.55 L958.5,562.81" id="Path" fill="#464353"></path>
            <path d="M784.21,607.17 C784.247018,606.832936 784.307159,606.498816 784.39,606.17" id="Path" fill="#464353"></path>
            <path d="M998.61,538.55 C1001.49,535.22 1005.93,533.73 1010.2,532.62 C1017.08089,530.841177 1024.11026,529.696394 1031.2,529.2 C1035.60096,528.726203 1040.05036,529.000064 1044.36,530.01 C1048.62,531.18 1052.66,533.72 1054.82,537.57 C1056.73,540.97 1057.03,545.01 1057.28,548.9 C1057.8,556.9 1058.28,564.9 1056.96,572.78 C1056.11,577.78 1054.52,582.62 1053.49,587.58 C1050.15,603.84 1053.05,620.67 1052.75,637.27 C1052.68,640.81 1052.45,644.44 1050.96,647.65 C1049.37,651.06 1046.51,653.65 1043.72,656.21 C1040.65,658.98 1037.53,661.77 1033.83,663.62 C1028.35,666.37 1022.04,666.83 1015.91,667.02 C1012.18,667.13 1008.34,667.14 1004.91,665.77 C1001.48,664.4 998.39,661.32 998.14,657.59 C997.74,651.26 1004.88,647.12 1006.92,641.12 C1008.54,636.34 1006.68,631.06 1004.1,626.71 C999.96259,619.775729 994.058063,614.064453 986.99,610.16 C984.37,608.72 981.58,607.51 979.4,605.48 C977.22,603.45 975.74,600.3 976.67,597.48 C977.78,594.07 981.75,592.48 985.32,592.14 C988.89,591.8 992.66,592.06 995.87,590.47 C998.73,589.06 1000.72,586.34 1002.09,583.47 C1005.00555,577.343947 1005.41107,570.320917 1003.22,563.9 C1002.35288,561.457633 1001.09668,559.171484 999.5,557.13 C998,555.21 994.92,553.59 993.85,551.49 C991.95,547.71 996.06,541.55 998.61,538.55 Z" id="Path" fill="#0A5BBB"></path>
            <path d="M940.5,393.63 C923.98,379.03 900.95,375.06 879.35,370.63 C868.223333,368.356667 857.15,365.823333 846.13,363.03 C838.89,361.19 831.63,359.23 824.13,358.72 C816.63,358.21 808.91,359.26 802.49,363.08 C796.07,366.9 791.23,373.82 791.19,381.29 C791.19,384.29 791.9,387.23 791.68,390.2 C791.33,394.98 788.68,399.2 786.87,403.67 C784.101808,410.736018 783.677622,418.504587 785.66,425.83 C788.86,437.5 798.08,447.78 797.28,459.83 C795.95,480 796.36,501.08 800.5,520.83 C804.64,540.58 809.81,560.42 809.69,580.63 C809.57,600.84 803.45,622.09 788.36,635.55 C798.584206,645.149475 811.088569,651.981614 824.69,655.4 C836.32,658.31 850.15,658.02 858.43,649.35 C860.35,647.35 861.94,644.68 861.54,641.93 C861.12748,640.194943 860.398633,638.550801 859.39,637.08 C853.7,626.89 854.39,614.33 856.91,602.95 C859.43,591.57 863.74,580.51 864.83,568.89 C865.63,560.46 864.73,551.89 866.34,543.57 C867.58,537.2 870.26,531.2 871.87,524.91 C876.62,506.25 871.63,486.66 866.67,468.07 C870.82,477.62 878.67,485.07 886.79,491.55 C899.11,501.37 914.01,510.04 929.67,508.3 C943.61,506.74 955.48,497.05 963.67,485.68 C963.74,472.53 968.3,460.1 967.49,446.98 C966.967482,441.217048 965.936808,435.511532 964.41,429.93 C962.88,423.69 961.31,417.39 958.41,411.66 C954.58,404.05 946.88,399.26 940.5,393.63 Z" id="Path" fill="#000000" opacity="0.06"></path>
            <path d="M943.92,393.63 C927.4,379.03 904.38,375.06 882.77,370.63 C871.643333,368.356667 860.573333,365.823333 849.56,363.03 C842.32,361.19 835.05,359.23 827.56,358.72 C820.07,358.21 812.35,359.26 805.93,363.08 C799.51,366.9 794.66,373.82 794.63,381.29 C794.63,384.29 795.33,387.23 795.11,390.2 C794.77,394.98 792.06,399.2 790.3,403.67 C787.535116,410.737103 787.114437,418.505653 789.1,425.83 C792.29,437.5 801.51,447.78 800.72,459.83 C799.38,480 799.79,501.08 803.93,520.83 C808.07,540.58 813.24,560.42 813.12,580.63 C813,600.84 806.84,622.02 791.74,635.46 C801.96551,645.057674 814.469379,651.889543 828.07,655.31 C839.7,658.22 853.54,657.93 861.81,649.26 C863.73,647.26 865.32,644.59 864.92,641.84 C864.50748,640.104943 863.778633,638.460801 862.77,636.99 C857.08,626.8 857.77,614.24 860.29,602.86 C862.81,591.48 867.12,580.42 868.22,568.8 C869.01,560.37 868.11,551.8 869.73,543.48 C870.96,537.11 873.65,531.11 875.25,524.82 C880,506.16 875.02,486.57 870.05,467.98 C874.2,477.53 882.05,484.98 890.18,491.46 C902.5,501.28 917.39,509.95 933.05,508.21 C946.99,506.65 958.86,496.96 967.05,485.59 C967.11,472.44 971.67,460.01 970.86,446.89 C970.337482,441.127048 969.306808,435.421532 967.78,429.84 C966.26,423.6 964.68,417.3 961.78,411.57 C958.06,404.05 950.3,399.26 943.92,393.63 Z" id="Path" fill="#A1616A"></path>
            <path d="M829.16,645.98 C821.823799,641.511918 815.488393,635.57822 810.55,628.55 C808.77,626.03 807.17,623.35 804.95,621.21 C802.73,619.07 799.72,617.48 796.65,617.8 C793.18,618.16 790.4,620.8 788.2,623.52 C782.3,630.83 778.5,639.77 771.95,646.52 C764.39,654.33 753.84,658.52 743.31,661.2 C732.78,663.88 721.91,665.29 711.59,668.68 C708.35,669.74 704.94,671.18 703.19,674.11 C700.97,677.84 702.19,682.73 704.53,686.43 C708.84,693.43 716.26,697.94 724,700.62 C731.74,703.3 739.93,704.37 748,705.95 C762.26,708.74 776.87,713.21 791.06,710.06 C796.72,708.8 802.06,706.36 807.78,705.3 C820.78,702.88 834.19,707.77 847.24,705.81 C853.55,704.86 859.51,702.34 865.24,699.5 C868.113524,698.257861 870.726126,696.483327 872.94,694.27 C875.03,691.95 876.29,688.66 875.43,685.66 C874.94,683.93 873.81,682.47 873.06,680.84 C871.88,678.32 871.64,675.49 871.36,672.72 C870.280588,662.176134 868.44926,651.722857 865.88,641.44 C864.99,637.85 863.66,633.85 860.31,632.28 C859.626993,631.911334 858.827686,631.821726 858.08,632.03 C856.89,632.48 856.5,633.92 856.14,635.13 C854.138932,641.948765 848.514169,647.090446 841.543593,648.472797 C834.573017,649.855147 827.411781,647.249086 822.96,641.71" id="Path" fill="#0A5BBB"></path>
            <path d="M775.22,202.4 C775.218607,204.765607 775.085066,207.12929 774.82,209.48 C768.428363,210.437245 761.96372,208.286079 757.42,203.69 C755.31,201.45 753.73,198.74 751.64,196.48 C749.55,194.22 746.64,192.34 743.64,192.58 C741.08,192.77 738.86,194.39 737.11,196.27 C734.832892,198.717622 733.164487,201.667307 732.24,204.88 C731.57,207.15 731.24,209.73 729.36,211.24 C727.48,212.75 725.17,212.65 722.94,212.57 C720.05,212.47 717.05,212.33 714.5,210.97 C709.7,208.38 708.08,202.45 706.3,197.29 C703.3,188.62 696.55,172.22 686.06,170.47 C681.06,169.64 674.98,172.28 671.06,175.13 C665.15,179.42 660.79,182.2 653.15,182.08 C663.097049,153.051407 692.570712,135.466948 722.840425,140.501576 C753.110138,145.536205 775.304942,171.714453 775.32,202.4 L775.22,202.4 Z" id="Path" fill="#000000" opacity="0.06"></path>
            <path d="M653.06,179.79 C651.257336,179.828894 649.462293,179.544396 647.76,178.95 C642.91,177.05 640.55,171.45 640.14,166.26 C639.5,158.35 642.14,150.59 644.79,143.1 C645.35,141.47 646.02,139.72 647.48,138.81 C648.662227,138.229671 649.953818,137.905922 651.27,137.86 C658.45,136.86 664.68,132.47 669.98,127.55 C675.28,122.63 680.06,117.05 685.98,112.95 C701.68,102.12 724.98,104.14 738.56,117.5 C743.94,122.78 748.56,129.94 756.02,131.18 C760.32,131.89 764.93,130.41 769.02,132.01 C772.02,133.18 774.16,135.83 775.88,138.54 C781.46,147.3 784.08,157.68 784.95,168.03 C785.82,178.38 785.02,188.79 784.21,199.14 C784.255516,200.68964 783.856462,202.219923 783.06,203.55 C782.420197,204.317215 781.617388,204.932132 780.71,205.35 C772.912358,209.193797 763.529739,207.614584 757.42,201.43 C755.3,199.2 753.73,196.49 751.64,194.22 C749.55,191.95 746.64,190.09 743.64,190.33 C741.09,190.52 738.85,192.14 737.11,194.02 C734.832892,196.467622 733.164487,199.417307 732.24,202.63 C731.58,204.9 731.24,207.48 729.36,208.98 C727.48,210.48 725.17,210.4 722.93,210.32 C720.05,210.21 717.05,210.08 714.5,208.71 C709.69,206.13 708.07,200.2 706.3,195.04 C703.3,186.37 696.56,169.96 686.06,168.22 C681.06,167.38 674.98,170.03 671.06,172.88 C665.06,177.14 660.74,179.92 653.06,179.79 Z" id="Path" fill="#464353"></path>
            <path d="M321.9,553.21 C321.21,557.77 317.03,561.33 314.08,564.87 C306.06,574.55 297.93,584.26 288.96,593.12 C279.36,602.59 268.82,611.03 258.29,619.47 L244.63,630.4 C242.944848,631.940747 240.969785,633.130544 238.82,633.9 C236.301735,634.528205 233.640551,634.211567 231.34,633.01 C231.54,632.61 231.75,632.24 231.98,631.87 L248.36,604.42 C251.58,599.04 253.69,594.14 257.36,589.09 C262.89,581.53 268.47,573.93 275.28,567.52 C283.89,559.41 294.93,553.52 305.17,547.66 C306.65,543.22 312.85,541.99 317.04,544.09 C318.592827,544.894858 319.991036,545.968059 321.17,547.26 C321.920579,549.147652 322.171998,551.196889 321.9,553.21 Z" id="Path" fill="#000000" opacity="0.06"></path>
            <path d="M249.5,605.55 L233.12,633.01 C232.45,634.12 231.76,635.38 232.05,636.64 C232.418009,637.697457 233.119989,638.606521 234.05,639.23 C240.33,644.34 247.29,649.73 249.26,657.58 C250.67,663.18 249.26,669.18 250.52,674.8 C252.83,684.94 263.02,691.1 272.66,695 C294.26,703.74 318.24,707.1 341.19,703 C364.14,698.9 385.92,687.22 400.78,669.26 C405.34,663.74 409.24,657.7 413.57,652 C425.57,636.25 440.8,623.32 455.91,610.52 C475.36,594.04 486.82,569.46 503.91,550.52 C507.02,547.07 510.45,543.52 514.91,542.38 C517.41,541.75 520.91,542.68 521.01,545.26 C521.24,550.26 525.26,554.35 528.01,558.53 C538.37,574.37 549.21,590.7 565.22,600.8 C573.98,606.34 583.91,609.73 593.81,612.8 C618.91,620.62 644.5,626.8 670.06,632.92 C671.350255,630.340438 672.898134,627.898006 674.68,625.63 C677.33,622.38 680.82,619.9 683.48,616.63 C688.35,610.74 690.06,602.95 691.62,595.47 C676.35,586.12 660.68,576.47 645.62,566.75 C638.04,561.87 630.41,556.88 624.27,550.28 C620.27,545.94 616.91,540.97 612.9,536.6 C608.798042,532.359501 604.378552,528.438123 599.68,524.87 L563.68,496.04 C553.34,487.77 542.8,479.04 532.68,470.48 C526.99,465.66 520.68,460.59 513.24,460.36 C506.87,460.16 501.01,463.57 495.53,466.85 C463.343333,486.123333 430.676667,504.53 397.53,522.07 C390.82,525.61 384.08,529.13 377.68,533.2 C365.227621,541.121747 354.171667,551.049128 344.96,562.58 C343.27,564.69 341.13,567.09 338.45,566.77 C337.71328,566.661667 337.003958,566.413914 336.36,566.04 C332.23,563.83 329.7,559.56 327.36,555.51 C325.02,551.46 322.41,547.2 318.22,545.1 C314.03,543 307.84,544.23 306.35,548.68 C296.06,554.71 285.06,560.55 276.44,568.66 C269.63,575.07 264.05,582.66 258.52,590.23 C254.83,595.28 252.71,600.18 249.5,605.55 Z" id="Path" fill="#501BE3"></path>
            <path d="M222.67,438.07 C222.67,438.07 239.14,445.38 250.95,453.63" id="Path" fill="#000000" opacity="0.06"></path>
            <path d="M1047.53,453.1 C1047.83,462.43 1048.07,471.78 1047.96,481.1 C1047.9,486.04 1047.69,491.19 1045.32,495.52 C1043.63,498.63 1040.96,501.06 1038.32,503.44 L1021.85,518.37 C1016.74,523 1011.23,527.83 1004.42,528.98 C996.63,530.3 989.02,526.51 981.53,523.98 C973.98741,521.438788 966.088929,520.112248 958.13,520.05 C953.57,520.05 948.97,520.41 944.47,519.69 C941.216112,519.070583 938.023596,518.163694 934.93,516.98 L920.06,511.82 C920.48,508.07 924.06,505.68 927.06,503.31 C937.71,494.67 942.38,480.78 945.74,467.49 C948.471121,457.114454 950.416627,446.547881 951.56,435.88 C952.07,430.6 952.3,425.23 951.19,420.04 C950.143011,415.853311 948.668602,411.785281 946.79,407.9 L941.56,396.11 C938.56,389.45 932.56,386.49 926.45,382.56 C935.67,386.06 946.91,387.43 953.92,394.37 C955.272572,395.9077 956.875102,397.205952 958.66,398.21 C960.57,399.12 962.74,399.21 964.83,399.55 C975.24,401.11 984.09,407.65 992.69,413.7 C1003.21667,421.113333 1014.03667,428.076667 1025.15,434.59 C1030.15,437.53 1035.31,440.42 1039.52,444.43 C1043.73,448.44 1047.03,453.78 1047.3,459.59" id="Path" fill="#464353"></path>
            <path d="M150.77,436.72 C137.66,439.31 130.84,454.72 131.61,468.05 C132.349945,479.956223 137.240156,491.226355 145.43,499.9 C150.9,505.65 157.72,510.09 162.66,516.3 C169.96,525.46 172.5,537.57 179.03,547.3 C183.77,554.36 190.42,559.9 197.03,565.21 C212.27,577.37 228.006667,588.88 244.24,599.74 C250.84,604.15 258.06,608.61 266,608.44 C273.48,608.28 280.37,603.89 285.25,598.21 C290.13,592.53 293.25,585.63 296.42,578.83 C307.84,553.93 319.34,528.76 324.8,501.92 C326.51,493.49 327.66,484.8 331.48,477.09 C334.48,471.09 338.92,465.95 342.88,460.53 C352.235569,447.668739 358.802386,432.995582 362.16,417.45 C364.34,407.31 365.07,396.45 361.49,386.75 C357.91,377.05 349.22,368.64 338.87,367.88 C330.68,367.28 322.64,371.48 317.14,377.59 C311.64,383.7 308.4,391.51 306.19,399.42 C303.021784,410.799596 301.804558,422.633742 302.59,434.42 C303.23,443.93 305.17,453.53 303.53,462.93 C302.37,469.56 299.48,475.75 296.62,481.85 C289.23,497.59 281.72,513.53 270.55,526.85 C266.91,531.19 261.9,535.58 256.33,534.56 C248.63,533.16 246.59,523.41 242.79,516.56 C238.13,508.16 229.29,503.11 222.36,496.44 C212.5,486.94 206.59,474.2 199.58,462.44 C192.57,450.68 183.5,439.07 170.58,434.56 C157.66,430.05 140.44,435.84 137.12,449.12" id="Path" fill="#000000" opacity="0.06"></path>
            <path d="M160.66,445.85 C147.54,448.44 130.84,450.13 131.66,463.48 C132.391568,475.388233 137.282965,486.6611 145.48,495.33 C150.95,501.09 157.77,505.53 162.71,511.74 C170.01,520.9 172.55,533 179.08,542.74 C183.82,549.81 190.47,555.35 197.08,560.65 C212.32,572.816667 228.056667,584.326667 244.29,595.18 C250.89,599.6 258.11,604.06 266.05,603.89 C273.53,603.73 280.42,599.33 285.3,593.66 C290.18,587.99 293.3,581.08 296.47,574.27 C307.89,549.37 319.39,524.2 324.85,497.36 C326.56,488.94 327.71,480.24 331.53,472.54 C334.53,466.54 338.97,461.4 342.93,455.97 C352.287123,443.113339 358.85416,428.443095 362.21,412.9 C364.39,402.75 365.12,391.9 361.54,382.19 C357.96,372.48 349.27,364.09 338.92,363.32 C330.73,362.72 322.69,366.93 317.19,373.03 C311.69,379.13 308.45,386.95 306.24,394.87 C303.071214,406.249488 301.853977,418.083732 302.64,429.87 C303.28,439.39 305.22,448.99 303.58,458.38 C302.42,465.02 299.53,471.21 296.67,477.31 C289.28,493.05 281.77,508.98 270.6,522.31 C266.96,526.65 261.95,531.03 256.38,530.02 C248.68,528.61 246.64,518.86 242.84,512.02 C238.18,503.62 229.34,498.57 222.41,491.9 C212.55,482.41 206.64,469.66 199.63,457.9 C192.62,446.14 183.55,434.54 170.63,430.02 C157.71,425.5 173.89,454.45 170.56,467.73" id="Path" fill="#000000" opacity="0.06"></path>
            <path d="M150.77,434.43 C137.66,437.02 130.84,452.43 131.61,465.76 C132.347649,477.669724 137.238019,488.943762 145.43,497.62 C150.9,503.37 157.72,507.81 162.66,514.02 C169.96,523.18 172.5,535.29 179.03,545.02 C183.77,552.09 190.42,557.63 197.03,562.94 C212.27,575.1 228.006667,586.606667 244.24,597.46 C250.84,601.88 258.06,606.34 266,606.17 C273.48,606.01 280.37,601.62 285.25,595.94 C290.13,590.26 293.25,583.36 296.42,576.56 C307.84,551.66 319.34,526.49 324.8,499.64 C326.51,491.22 327.66,482.52 331.48,474.82 C334.48,468.82 338.92,463.68 342.88,458.25 C352.237123,445.393339 358.80416,430.723095 362.16,415.18 C364.34,405.03 365.07,394.18 361.49,384.47 C357.91,374.76 349.22,366.37 338.87,365.61 C330.68,365 322.64,369.21 317.14,375.32 C311.64,381.43 308.4,389.24 306.19,397.15 C303.021784,408.529596 301.804558,420.363742 302.59,432.15 C303.23,441.66 305.17,451.26 303.53,460.65 C302.37,467.29 299.48,473.48 296.62,479.58 C289.23,495.32 281.72,511.26 270.55,524.58 C266.91,528.92 261.9,533.3 256.33,532.29 C248.63,530.88 246.59,521.14 242.79,514.29 C238.13,505.88 229.29,500.83 222.36,494.17 C212.5,484.67 206.59,471.93 199.58,460.17 C192.57,448.41 183.5,436.81 170.58,432.3 C157.66,427.79 140.44,433.58 137.12,446.86" id="Path" fill="#FBBEBE"></path>
            <g id="Group" opacity="0.06" transform="translate(64.000000, 243.000000)" fill="#000000">
                <path d="M36.66,111.55 C32.5044113,104.687536 29.0119709,97.4448237 26.23,89.92 L25.89,88.92 C23.7797358,86.6547725 22.0050257,84.0987857 20.62,81.33 C18.4761008,76.6131484 17.3125811,71.5099921 17.2,66.33 C17.2,66.14 17.2,65.95 17.2,65.76 C16.4844577,67.3601122 15.9575797,69.0380675 15.63,70.76 C14.63,76.4 16.28,82.16 18.26,87.54 C21.0439208,95.0639952 24.5362737,102.306526 28.69,109.17 C34.9,119.55 42.83,129.55 44.06,141.46 C45.91,159.28 32.47,174.97 29.15,192.58 C26.61,206.03 29.83,221.06 22.64,232.7 C19.7661041,237.088912 15.9069595,240.746025 11.37,243.38 C8.52440792,245.193398 5.40896551,246.543536 2.14,247.38 C1.54386082,248.087429 0.902517791,248.755495 0.22,249.38 C6.57,251.58 13.64,249.21 19.36,245.69 C23.8951859,243.04933 27.7536152,239.389471 30.63,235 C37.82,223.36 34.63,208.33 37.13,194.88 C40.46,177.28 53.9,161.58 52.05,143.76 C50.81,131.78 42.89,121.79 36.66,111.55 Z" id="Path"></path>
                <path d="M152.06,23.55 C149.49,17.6 144.06,13.38 138.48,10.07 C131.406485,5.8254983 123.708956,2.72083945 115.67,0.87 C120.829081,2.67087485 125.794046,4.9858482 130.49,7.78 C136.07,11.1 141.49,15.31 144.08,21.27 C146.67,27.23 145.38,35.27 139.82,38.59 C135.9,40.94 131.01,40.52 126.44,40.42 C122.490615,40.3297047 118.539941,40.5302465 114.62,41.02 C113.204517,41.1222186 111.820681,41.4885282 110.54,42.1 C108.871347,43.18109 107.556955,44.7284563 106.76,46.55 C105.152054,49.6250511 104.070428,52.9476694 103.56,56.38 C103,60.22 103.05,64.43 100.65,67.48 C97.39,71.63 92.29,71 87.65,71.82 C83.6205076,72.5933057 79.7583727,74.0691083 76.24,76.18 C68.58,80.81 63.11,89.27 62.76,98.3 C62.64,101.52 63.08,104.81 62.21,107.91 C61.6487689,109.718515 60.7682036,111.41191 59.61,112.91 C61.3819277,114.8042 62.9319515,116.894384 64.23,119.14 C66.68,116.47 69.23,113.67 70.23,110.19 C71.11,107.09 70.66,103.79 70.79,100.57 C71.14,91.57 76.61,83.09 84.27,78.45 C87.7856441,76.3355954 91.6490267,74.862702 95.68,74.1 C100.3,73.27 105.4,73.9 108.68,69.75 C111.08,66.75 111.02,62.49 111.59,58.65 C112.096921,55.2181815 113.175177,51.8955311 114.78,48.82 C115.582158,47.0149566 116.896481,45.4850562 118.56,44.42 C119.837541,43.800024 121.223038,43.4332746 122.64,43.34 C126.560135,42.8519016 130.510445,42.6480362 134.46,42.73 C139.03,42.84 143.92,43.25 147.84,40.9 C153.36,37.55 154.63,29.55 152.06,23.55 Z" id="Path"></path>
            </g>
            <path d="M150.58,362.1 C150.58,362.1 162.39,372.26 184.82,366.1 C184.82,366.08 170.93,371.55 150.58,362.1 Z" id="Path" fill="#000000" opacity="0.06"></path>
            <path d="M783.99,190.7 C784.013072,192.244207 783.596913,193.763186 782.79,195.08 C782.149832,195.84432 781.346927,196.455895 780.44,196.87 C772.647979,200.71791 763.267379,199.142388 757.16,192.96 C755.04,190.72 753.47,187.96 751.38,185.75 C749.29,183.54 746.38,181.61 743.38,181.85 C740.83,182.05 738.6,183.67 736.85,185.54 C734.583983,187.995725 732.917146,190.942637 731.98,194.15 C731.33,196.43 730.98,199 729.11,200.51 C727.24,202.02 724.92,201.92 722.68,201.84 C719.79,201.74 716.79,201.61 714.25,200.24 C709.44,197.66 707.82,191.72 706.04,186.57 C703.04,177.89 696.3,161.49 685.81,159.74 C680.81,158.91 674.72,161.56 670.81,164.4 C664.9,168.69 660.54,171.47 652.89,171.4 C651.087629,171.434627 649.293335,171.150248 647.59,170.56 C643.19,168.83 640.84,164.05 640.13,159.31 C639.858214,161.482441 639.801272,163.676385 639.96,165.86 C640.38,171.04 642.74,176.64 647.59,178.55 C649.293335,179.140248 651.087629,179.424627 652.89,179.39 C660.54,179.51 664.89,176.73 670.81,172.44 C674.74,169.6 680.81,166.94 685.81,167.78 C696.26,169.48 703.06,185.88 706,194.55 C707.78,199.71 709.4,205.65 714.21,208.23 C716.75,209.59 719.75,209.73 722.64,209.83 C724.88,209.91 727.34,209.92 729.07,208.5 C730.8,207.08 731.29,204.41 731.94,202.14 C732.874787,198.931641 734.541914,195.984216 736.81,193.53 C738.56,191.66 740.81,190.04 743.34,189.84 C746.42,189.6 749.34,191.47 751.34,193.74 C753.34,196.01 755,198.74 757.12,200.95 C763.227379,207.132388 772.607979,208.70791 780.4,204.86 C781.304869,204.442467 782.107074,203.831425 782.75,203.07 C783.558234,201.750081 783.974423,200.227524 783.95,198.68 C784.73252,190.257047 785.066325,181.798424 784.95,173.34 C784.87,179.13 784.44,184.92 783.99,190.7 Z" id="Path" fill="#000000" opacity="0.06"></path>
            <path d="M89.81,617.3 C89.81,617.3 91.4,615.53 88.41,614.83 L88.41,611.92 L90.21,611.92 C90.2019775,604.674361 85.1284559,598.421047 78.04,596.92 L78.04,593.39 L78.51,593.39 L78.51,588.8 L66.94,588.8 L66.94,593.39 L67.27,593.39 L67.27,596.96 C60.2512223,598.533463 55.2643787,604.767018 55.27,611.96 L56.86,611.96 L56.86,614.75 C56.86,614.75 53.07,616.54 56.86,619.75 C60.65,622.96 60.06,625.28 60.06,625.28 C60.06,625.28 58.47,631.28 55.28,632.06 L55.28,687.69 C55.2773464,690.969808 56.5783854,694.116192 58.8966227,696.436305 C61.2148601,698.756418 64.3601908,700.060001 67.64,700.06 L77.41,700.06 C84.2417624,700.06 89.78,694.521762 89.78,687.69 L89.78,632.06 C89.78,632.06 84.19,627.87 85.19,625.28 C86.5315719,622.509958 88.0757667,619.842712 89.81,617.3 Z" id="Path" fill="#464353"></path>
        </g>
    </g>
</svg>