<?xml version="1.0" encoding="UTF-8"?>
<svg width="1135px" height="792px" viewBox="0 0 1135 792" version="1.1" xmlns="http://www.w3.org/2000/svg" xmlns:xlink="http://www.w3.org/1999/xlink">
    <!-- Generator: Sketch 52.3 (67297) - http://www.bohemiancoding.com/sketch -->
    <title>undraw_pilates_gpdb</title>
    <desc>Created with Sketch.</desc>
    <defs>
        <linearGradient x1="49.9993511%" y1="99.9992914%" x2="49.9993511%" y2="0.00518749242%" id="linearGradient-1">
            <stop stop-color="#808080" stop-opacity="0.25" offset="0%"></stop>
            <stop stop-color="#808080" stop-opacity="0.12" offset="54%"></stop>
            <stop stop-color="#808080" stop-opacity="0.1" offset="100%"></stop>
        </linearGradient>
    </defs>
    <g id="Page-1" stroke="none" stroke-width="1" fill="none" fill-rule="evenodd">
        <g id="undraw_pilates_gpdb">
            <path d="M1113.06,226.65 C1102.26501,201.588298 1087.67392,178.339011 1069.8,157.72 L469.62,151.81 L963.77,82.41 C931.851013,69.6928353 897.866403,62.9508256 863.51,62.52 C766.436054,-15.1048722 629.897628,-19.7331556 527.79,51.14 C488.050923,30.7180389 443.999329,20.108898 399.32,20.2 C265.97,20.2 154.85,112.56 129.92,235.04 L1113.06,226.65 Z" id="Path" fill="#F0EFFF"></path>
            <path d="M1134.12,329.37 C1134.14955,296.157545 1127.80128,263.248372 1115.42,232.43 L75.23,341.61 C64.5327887,361.003616 56.3470374,381.679694 50.87,403.14 L372.98,451.14 L43.52,486.14 C53.43,624.79 172.3,734.28 317.52,734.28 C390.61,734.28 457.02,706.53 506.24,661.28 C555.6,707.38 622.65,735.73 696.53,735.73 C806.15,735.73 900.75,673.32 944.81,583.08 C1033.2,555.08 1101.81,484.59 1125.36,396.47 L717.99,333.34 L1134.06,333.34 C1134.06,332.02 1134.12,330.7 1134.12,329.37 Z" id="Path" fill="#F0EFFF"></path>
            <ellipse id="Oval" fill="#F8E71C" cx="486.58" cy="736.78" rx="416.07" ry="39.5"></ellipse>
            <path d="M813.34,657.14 C812.09,658.28 807.46,660.49 801.22,663.14 L800.08,663.62 C800.824441,663.035565 801.315089,662.186779 801.45,661.25 C801.45,651.65 728.36,670.84 714.2,670.84 C707.71,670.84 700.54,668.92 694.69,666.84 C684.43785,663.165091 673.840736,660.535077 663.06,658.99 C658.406872,656.105366 653.546977,653.568461 648.52,651.4 L648.52,651.33 C648.81,650.76 649.08,650.18 649.31,649.6 C649.31,649.51 649.38,649.41 649.42,649.31 L649.78,648.39 C649.89,648.09 650,647.79 650.09,647.49 C654.38,634.84 651.89,620.67 647.35,608 C645.1,601.75 642.35,595.13 643.9,588.68 C644.19441,587.484221 644.609889,586.321551 645.14,585.21 C645.37,584.73 645.62,584.21 645.88,583.79 C646,583.56 646.14,583.32 646.28,583.09 C646.64,582.48 647.01,581.87 647.4,581.27 C647.66,580.88 647.92,580.48 648.19,580.09 C648.92,579.02 649.67,577.94 650.38,576.85 L650.47,576.72 C650.71,576.36 650.94,575.99 651.16,575.62 C651.38,575.25 651.52,575.04 651.69,574.75 L651.94,574.31 C651.984104,574.256344 652.024211,574.199525 652.06,574.14 C652.17,573.93 652.3,573.7 652.41,573.48 L652.54,573.22 C652.828375,572.670202 653.088709,572.106145 653.32,571.53 C653.42,571.26 653.53,571 653.61,570.74 C653.69,570.48 653.68,570.49 653.72,570.37 C653.82,570.05 653.92,569.74 654.01,569.37 L654.07,569.14 L654.13,568.9 C654.18,568.7 654.24,568.5 654.28,568.3 C654.28181,568.326636 654.28181,568.353364 654.28,568.38 C655.47,563.38 654.92,557.89 653.94,552.73 C652.982109,547.783598 651.685727,542.908801 650.06,538.14 C648.37,533.14 646.29,527.88 647.25,522.66 C647.580891,521.088763 648.076982,519.556915 648.73,518.09 C648.73,518.09 648.73,518.09 648.73,518.09 C649.16,517.09 649.61,516.09 650.02,515.03 C650.26,514.43 650.48,513.82 650.69,513.21 L650.87,512.66 C650.97,512.36 651.04,512.06 651.12,511.76 L651.18,511.48 C651.18,511.43 651.18,511.38 651.18,511.34 C651.819905,508.185479 651.981715,504.952653 651.66,501.75 C651.14,494.22 649.36,486.62 645.19,480.34 C642.802173,476.713238 639.591741,473.701531 635.82,471.55 C634.577935,470.854346 633.267733,470.288043 631.91,469.86 C632.02,469.66 632.15,469.47 632.26,469.28 C632.61854,468.654984 632.884637,467.981321 633.05,467.28 C633.292848,465.622266 633.163032,463.931242 632.67,462.33 C631,455.26 629.28,448.07 625.86,441.66 C622.44,435.25 617.03,429.55 610.08,427.37 C606.61,426.27 602.86,426.08 599.53,424.58 C598.12,423.94 596.81,423.08 595.44,422.34 C591.750696,420.324028 587.641591,419.197449 583.44,419.05 C582.62,419 581.82,419.05 581.01,419.05 L580.5,419.05 C579.84,419.05 579.19,419.16 578.5,419.24 C577.67,419.35 576.83,419.44 576.05,419.59 C574.53,419.89 573.26,420.48 572.86,422.21 C572.86,422.21 572.86,422.28 572.86,422.32 C572.86,422.36 572.86,422.56 572.79,422.68 C572.35,422.61 571.9,422.54 571.45,422.49 C569.816242,422.309243 568.173727,422.219105 566.53,422.22 C544.998813,422.275729 526.837831,438.268683 524.06,459.62 C523.138679,459.749889 522.210283,459.823359 521.28,459.84 C517.497073,459.839782 513.728617,459.372923 510.06,458.45 L503.64,456.61 C503.64,456.61 503.7,456.45 503.84,456.13 L505.01,455.24 L504.14,455.41 C505.58,452.1 509.62,442.8 511.86,438.34 C514.6,432.86 534.24,426.01 534.24,426.01 C561.24,424.64 582.24,405.01 582.24,405.01 C582.24,405.01 638.36,414.14 673.06,411.37 C707.76,408.6 719.65,419.6 719.65,419.6 C719.65,419.6 742.5,482.19 780.42,465.2 C808.95,452.43 758.05,415.97 731.12,398.71 C732.67,399.58 734.2,400.48 735.7,401.44 C737.2,402.4 738.93,403.52 740.64,404.64 C737.44,402.49 734.39,400.49 731.59,398.7 C722.226493,392.696798 711.851993,388.441288 700.97,386.14 L601.85,365.21 L601.53,365.21 L601.36,365.21 C575.287793,368.037406 549.689615,374.218478 525.2,383.6 C495.81,394.85 461.63,410.44 458.37,413.6 C449.57,422.2 436.44,430.5 436.44,430.5 C426.76,431.89 413.94,440.85 405.29,447.72 L403.87,448.85 C403.71,448.09 403.66,447.63 403.66,447.63 C403.66,447.63 391.49,455 391.32,459.11 C391.15,463.22 366.48,483.11 366.48,483.11 C366.48,483.11 352.6,505.08 345.06,506.14 C337.52,507.2 326.55,530.98 326.55,530.98 L313.55,556.51 C313.55,556.51 306.7,563.51 307.55,567.82 C308.4,572.13 302.24,577.24 302.24,577.24 C302.24,577.24 292.3,585.8 292.47,588.72 C292.64,591.64 287.33,594.72 287.33,594.72 C287.33,594.72 279.97,607.91 277.74,614.94 C277.569813,615.476835 277.569813,616.053165 277.74,616.59 L277.61,616.65 C277.61,616.65 271.4,630.65 271.61,636.18 C271.73,640.38 269.36,644.87 268.24,646.75 L267.78,646.92 L268.15,646.92 C267.87,647.39 267.68,647.67 267.67,647.69 C267.67,647.69 240.03,628.69 199.6,637.58 C159.17,646.47 161.87,670.14 161.87,670.14 C161.87,670.14 163.47,699.26 175.12,709.25 C186.77,719.24 194.12,719.7 200.7,727.25 C207.28,734.8 241.59,738.25 241.59,738.25 C241.59,738.25 309.43,741.67 345.98,738.25 C382.53,734.83 399.06,734.82 399.06,734.82 C399.06,734.82 439.21,729.82 457.25,732.99 C475.29,736.16 500.88,735.28 500.88,735.28 C501.340513,734.418231 501.677162,733.495811 501.88,732.54 L502.25,732.54 C502.703619,731.710389 503.04015,730.821948 503.25,729.9 C511.942933,728.003286 520.763251,726.746583 529.64,726.14 C548.36,725.23 564.8,717.92 564.8,717.92 C564.8,717.92 578.87,718.04 599.99,732.65 C621.11,747.26 684.06,738.93 684.06,738.93 L718.79,736.19 C718.79,736.19 741.62,732.53 748.94,742.13 C756.26,751.73 774.06,755.38 780,742.13 C785.94,728.88 813.81,703.3 813.81,703.3 C813.81,703.3 839.4,688.67 850.81,650.77 C862.22,612.87 818.35,652.59 813.34,657.14 Z M613.87,506.04 C615.8,503.98 617.38,501.6 619.32,499.54 C621.94,496.77 625.2,494.66 627.79,491.87 C629.159219,490.417535 630.244562,488.721685 630.99,486.87 L631.05,486.98 L631.59,488.41 C631.66,488.64 631.71,488.86 631.77,489.09 C631.83,489.32 631.89,489.62 631.94,489.89 C631.99,490.16 632,490.19 632.02,490.34 C632.08,490.75 632.12,491.17 632.14,491.59 C632.14,491.76 632.14,491.93 632.14,492.1 C632.14,492.27 632.14,492.65 632.14,492.93 C632.14,493.21 632.14,493.38 632.14,493.6 C632.14,494.013333 632.1,494.423333 632.02,494.83 C632.02,495.08 631.95,495.33 631.91,495.58 C631.87,495.83 631.84,496.01 631.8,496.22 C631.76,496.43 631.73,496.62 631.68,496.82 C631.68,496.82 631.68,496.82 631.68,496.88 C631.58,497.32 631.48,497.76 631.37,498.2 C631.069459,499.374474 630.698795,500.529879 630.26,501.66 C629.51,503.66 628.63,505.66 627.86,507.66 C627.65,508.2 627.45,508.75 627.26,509.29 C627.18,509.53 627.1,509.76 627.01,510 C626.92,510.24 626.84,510.55 626.75,510.82 L626.75,510.94 C626.450473,511.925484 626.206753,512.927074 626.02,513.94 C626.01523,514.016592 626.01523,514.093408 626.02,514.17 C626.02,514.24 626.02,514.32 626.02,514.39 L625.93,515.07 C625.93,515.07 625.93,515.07 625.93,515.15 C625.93,515.23 625.93,515.43 625.93,515.56 C625.93,515.95 625.93,516.33 625.86,516.72 C625.86,516.92 625.86,517.11 625.86,517.3 C625.86,517.77 625.86,518.24 625.93,518.7 C625.93,518.88 625.93,519.07 626,519.25 C626.07,519.43 626,519.69 626.07,519.91 C626.074652,519.943171 626.074652,519.976829 626.07,520.01 C626.07,520.22 626.14,520.42 626.18,520.62 C626.22,520.82 626.29,521.21 626.35,521.51 L626.44,521.89 C626.44,522.09 626.52,522.3 626.58,522.5 C626.64,522.7 626.65,522.78 626.69,522.92 C626.73,523.06 626.69,523.13 626.77,523.23 L626.92,523.77 C626.92,523.92 627.01,524.07 627.05,524.21 L627.35,525.21 C627.45,525.5 627.54,525.79 627.63,526.08 C629.14,530.72 630.95,535.3 630.22,539.92 C630.169358,540.293401 630.099263,540.663905 630.01,541.03 C629.06,544.84 626.37,547.92 623.87,550.94 C620.180621,555.352511 616.716218,559.948353 613.49,564.71 C612.143988,566.585968 610.96609,568.577019 609.97,570.66 C609.73,571.19 609.51,571.73 609.31,572.27 L609.06,572.94 C607.34,578.34 608.26,584.2 609.19,589.79 L613.01,612.73 C613.13,613.44 613.25,614.15 613.36,614.87 L613.48,615.66 L613.57,616.28 C613.71,617.28 613.83,618.34 613.91,619.37 C613.91,619.47 613.91,619.58 613.91,619.68 C613.91,620.1 613.91,620.51 613.97,620.93 C613.97,621.07 613.97,621.21 613.97,621.35 C613.97,621.76 613.97,622.16 613.97,622.57 C613.97,622.69 613.97,622.81 613.97,622.93 C613.97,623.45 613.97,623.93 613.86,624.48 C613.86,624.48 613.86,624.56 613.86,624.6 C613.8,625.13 613.72,625.66 613.62,626.18 C613.500081,626.806377 613.339746,627.424335 613.14,628.03 C612.150621,630.752845 610.780328,633.321724 609.07,635.66 L606.56,634.76 C606.56,634.76 585.56,607.76 576.87,595.47 C568.18,583.18 570.93,577.2 570.93,577.2 C572.3,555.73 555.85,539.28 547.63,535.2 C544.56,533.67 541.75,530.37 539.43,526.84 C540.186049,526.816214 540.942667,526.863085 541.69,526.98 L541.1,525.54 C541.3,525.54 541.49,525.54 541.69,525.61 L532.15,502.39 C534.451413,501.379203 536.880799,500.689419 539.37,500.34 C540.13,500.22 540.9,500.11 541.66,500.02 C547.330141,504.139143 553.927992,506.797518 560.87,507.76 C561.3,507.82 561.73,507.84 562.16,507.89 C562.05,508.04 561.95,508.2 561.86,508.35 L561.74,508.59 C561.688302,508.686164 561.644814,508.78652 561.61,508.89 C561.566097,509.003384 561.532625,509.120536 561.51,509.24 C561.51,509.32 561.51,509.38 561.51,509.46 C561.480167,509.662239 561.480167,509.867761 561.51,510.07 C565.58,510.42 570.07,510.96 572.73,514.07 C573.238035,514.811775 573.882891,515.449843 574.63,515.95 C575.285609,516.203208 575.988906,516.309043 576.69,516.26 L581.12,516.26 C586.30196,516.354649 591.480559,515.93594 596.58,515.01 C602.89,513.66 609.29,510.88 613.87,506.04 Z M529.81,503.75 C530.445121,503.221613 531.143887,502.774806 531.89,502.42 C531.67,502.55 530.94,503.01 529.81,503.75 Z M558.87,655.33 C538.48,643.02 525.98,648.02 525.98,648.02 L523.7,648.02 C513.7,648.02 435.52,643.94 435.52,643.94 L434.16,643.94 C434.612451,643.899991 435.067549,643.899991 435.52,643.94 C435.52,643.94 434.81,639.31 433.22,636.8 C433.079599,636.580856 432.925981,636.370467 432.76,636.17 C433.69,632.17 435.57,622.83 435.18,615.41 C434.66,605.65 435.18,596.74 435.18,596.74 C456.43,604.05 485.76,589.33 486.18,589.1 C509.18,582.65 518.18,587.72 518.18,587.72 C520.01,595.94 540.57,630.66 540.57,630.66 C540.57,630.66 559.3,644.82 566.57,655.79 C567.631986,657.355384 568.833561,658.821371 570.16,660.17 C569.02,659.78 567.93,659.39 566.9,659 C564.123084,658.009103 561.43652,656.781246 558.87,655.33 Z" id="Shape" fill="url(#linearGradient-1)" fill-rule="nonzero"></path>
            <path d="M775.96,466.72 C738.66,483.43 716.19,421.87 716.19,421.87 C716.19,421.87 704.52,411.08 670.36,413.78 C636.2,416.48 580.94,407.48 580.94,407.48 C580.94,407.48 560.27,426.82 533.76,428.14 C533.76,428.14 514.44,434.88 511.76,440.28 C509.57,444.66 505.59,453.81 504.17,457.06 C504.087842,457.302336 503.990996,457.539442 503.88,457.77 C503.74,458.08 503.68,458.25 503.68,458.25 L502.57,458.77 L480.31,469.46 L449.76,478.01 L430.43,480.25 L397.63,457.52 C397.63,457.52 401.42,453.98 406.99,449.52 C415.5,442.77 428.11,433.95 437.63,432.59 C437.63,432.59 450.55,424.42 459.2,415.97 C462.41,412.82 496.03,397.49 524.93,386.42 C549.018455,377.19462 574.196131,371.114469 599.84,368.33 L697.33,388.92 C708.041402,391.177926 718.255915,395.355204 727.48,401.25 C753.93,418.28 804.06,454.14 775.96,466.72 Z" id="Path" fill="#FFC1C7"></path>
            <g id="Group" opacity="0.1" transform="translate(398.000000, 368.000000)" fill="#000000">
                <path d="M4.13,92.25 C4.13,92.25 7.92,88.7 13.49,84.25 C22,77.5 34.61,68.68 44.13,67.32 C44.13,67.32 57.05,59.15 65.7,50.7 C68.91,47.54 102.53,32.22 131.43,21.15 C155.520681,11.9472587 180.69887,5.89387212 206.34,3.14 L303.83,23.72 C314.53938,25.9796199 324.750892,30.1604444 333.97,36.06 C335.523333,37.0533333 337.143333,38.1033333 338.83,39.21 C335.68,37.09 332.68,35.12 329.93,33.36 C320.709467,27.4653324 310.498253,23.2880175 299.79,21.03 L202.3,0.44 C176.65592,3.22325893 151.47809,9.30344764 127.39,18.53 C98.48,29.6 64.86,44.93 61.66,48.08 C53,56.53 40.09,64.7 40.09,64.7 C30.57,66.06 17.95,74.88 9.45,81.63 C3.88,86.06 0.09,89.63 0.09,89.63 L32.89,112.36 L33.02,112.36 L4.13,92.25 Z" id="Path"></path>
                <path d="M322.72,56.56 C321.491892,55.5607789 320.149093,54.7114582 318.72,54.03 C319.62,56.41 331,85.89 350.41,97.21 C332.71,83.92 322.72,56.56 322.72,56.56 Z" id="Path"></path>
            </g>
            <path d="M651.65,569.01 C651.525818,569.527241 651.375627,570.03789 651.2,570.54 C651.12,570.8 651.01,571.06 650.92,571.31 C650.665692,571.934689 650.378627,572.545537 650.06,573.14 C649.93,573.41 649.78,573.68 649.65,573.94 C649.617953,573.999526 649.581168,574.056376 649.54,574.11 C649.4,574.37 649.26,574.61 649.11,574.85 C648.11,576.55 646.95,578.17 645.84,579.85 C645.47,580.39 645.1,580.94 644.75,581.5 C644.687253,581.614451 644.617104,581.724685 644.54,581.83 C644.35,582.14 644.15,582.47 643.97,582.83 C643.79,583.19 643.65,583.37 643.51,583.64 C643.37,583.91 643.35,583.92 643.28,584.06 L642.85,584.89 C642.348469,585.932007 641.949911,587.020508 641.66,588.14 C640.12,594.49 642.84,601 645.05,607.14 C649.51,619.6 651.97,633.54 647.75,645.98 C647.65,646.27 647.55,646.57 647.44,646.87 C647.33,647.17 647.14,647.66 646.98,648.05 C646.74,648.65 646.47,649.24 646.17,649.83 C643.89,654.27 639.98,658.26 635.17,657.83 C628.56,657.25 625.35,649.15 619.33,646.39 C614.1,643.99 607.49,645.95 602.56,642.99 C602.970868,641.641855 603.531006,640.343811 604.23,639.12 C605.12,637.48 606.23,635.91 607.23,634.35 C608.907574,632.045792 610.253998,629.517882 611.23,626.84 C611.42176,626.242941 611.578691,625.635252 611.7,625.02 C611.705653,624.973505 611.705653,624.926495 611.7,624.88 C611.75,624.57 611.81,624.28 611.85,623.97 C611.89,623.66 611.93,623.38 611.96,623.06 C611.96528,623.006797 611.96528,622.953203 611.96,622.9 C611.96,622.55 611.96,622.2 612.03,621.84 C612.040031,618.461367 611.704959,615.090543 611.03,611.78 C609.783333,604.26 608.53,596.74 607.27,589.22 C606.35,583.72 605.45,577.96 607.15,572.65 C607.28,572.27 607.42,571.89 607.56,571.52 C607.7,571.15 607.87,570.77 608.04,570.41 C609.022102,568.363671 610.17977,566.406342 611.5,564.56 C614.673333,559.893333 618.076667,555.376667 621.71,551.01 C624.17,548.01 626.81,545.01 627.71,541.27 C627.807306,540.908538 627.880797,540.541083 627.93,540.17 C628.51,536.56 627.49,532.96 626.29,529.35 C626.136667,528.93 625.996667,528.51 625.87,528.09 C625.45,526.85 625.03,525.6 624.67,524.33 C624.55,523.92 624.44,523.5 624.33,523.08 C624.116842,522.239204 623.946622,521.388103 623.82,520.53 C623.686777,519.682875 623.613262,518.827434 623.6,517.97 C623.6,517.57 623.6,517.16 623.6,516.76 C623.6,516.36 623.6,516.16 623.68,515.85 C623.76,515.54 623.77,515.21 623.82,514.85 C623.87,514.49 623.9,514.37 623.95,514.13 C624,513.89 624.1,513.4 624.2,513.05 C624.256684,512.761634 624.333539,512.477603 624.43,512.2 C624.48,511.97 624.55,511.74 624.61,511.52 L624.87,510.72 L625.28,509.56 C625.41,509.18 625.56,508.79 625.71,508.41 C626.46,506.41 627.32,504.41 628.07,502.49 C628.491683,501.379599 628.855504,500.24808 629.16,499.1 C629.16,499.1 629.16,499.1 629.16,499.1 C629.16,498.89 629.27,498.66 629.32,498.44 C629.381626,498.219429 629.431694,497.995792 629.47,497.77 C629.539612,497.493347 629.593036,497.212871 629.63,496.93 C629.7,496.56 629.77,496.17 629.81,495.79 C629.85,495.41 629.89,495.02 629.92,494.63 C629.95,494.24 629.92,493.86 629.92,493.48 C629.937195,492.125265 629.744926,490.776008 629.35,489.48 C629.201384,488.950919 629.007329,488.43567 628.77,487.94 C628.596437,487.597563 628.406209,487.26383 628.2,486.94 C626.92,484.86 624.93,483.27 623.77,481.1 C623.085597,479.768054 622.742019,478.287232 622.77,476.79 C622.766418,476.381913 622.793159,475.974124 622.85,475.57 C622.910329,475.156457 623.003967,474.748463 623.13,474.35 C623.171234,474.189472 623.224724,474.032344 623.29,473.88 C623.363333,473.713333 623.433333,473.553333 623.5,473.4 C623.59805,473.200108 623.708256,473.006411 623.83,472.82 C623.93,472.69 624.02,472.55 624.12,472.43 C625.18,471.09 626.88,470.43 629.21,471.11 L629.78,471.3 C631.112324,471.727653 632.398687,472.287087 633.62,472.97 C637.329839,475.085109 640.488649,478.045208 642.84,481.61 C646.94,487.79 648.69,495.27 649.2,502.67 C649.509843,505.822624 649.351461,509.003744 648.73,512.11 C648.73,512.24 648.66,512.39 648.64,512.52 C648.56,512.82 648.49,513.12 648.39,513.41 C647.782967,515.225173 647.082022,517.007576 646.29,518.75 C646.29,518.75 646.29,518.75 646.29,518.75 C645.648132,520.195132 645.158815,521.703299 644.83,523.25 C643.89,528.39 645.94,533.52 647.6,538.47 C649.172546,543.169214 650.422124,547.970399 651.34,552.84 C652.5,558.21 653.06,563.84 651.65,569.01 Z" id="Path" fill="#000000"></path>
            <g id="Group" opacity="0.1" transform="translate(602.000000, 472.000000)" fill="#000000">
                <path d="M44.43,46.77 C45.2270199,45.021647 45.9313302,43.2324983 46.54,41.41 C46.67,40.98 46.79,40.55 46.89,40.11 C45.8692139,42.2505884 45.0458029,44.4798232 44.43,46.77 Z" id="Path"></path>
                <path d="M26.41,14.94 C28.63,18.54 28.41,22.94 27.31,27.17 C27.39,26.95 27.48,26.74 27.56,26.52 C29.47,21.52 30.56,15.52 27.76,10.9 C26.47,8.82 24.47,7.22 23.32,5.06 C22.5873803,3.63071851 22.2425683,2.03423859 22.32,0.43 C20.63,2.53 20.51,6.29 22.02,9.11 C23.12,11.27 25.12,12.86 26.41,14.94 Z" id="Path"></path>
                <path d="M41.06,112.14 C41.01,112.36 40.97,112.58 40.93,112.81 C43.13,108.14 47.01,104.18 48.93,99.34 C49.3340812,98.3252237 49.6518737,97.2781811 49.88,96.21 C47.31,101.72 42.44,106.19 41.06,112.14 Z" id="Path"></path>
                <path d="M46.33,172.05 C44.27,177.13 39.98,182.3 34.51,181.82 C27.9,181.25 24.7,173.15 18.67,170.38 C13.55,168.03 7.11,169.85 2.22,167.16 C1.52514134,168.385872 0.96520452,169.68345 0.55,171.03 C5.48,174.03 12.09,172.03 17.32,174.42 C23.32,177.19 26.55,185.3 33.16,185.87 C38.63,186.34 42.92,181.17 44.98,176.09 C45.5320128,174.718883 46.0028273,173.316457 46.39,171.89 L46.33,172.05 Z" id="Path"></path>
                <path d="M9.11,139.82 C9.84,144.2 10.56,148.75 9.7,153.06 C10.0355245,152.338658 10.32608,151.597241 10.57,150.84 C12.11,146.01 11.29,140.78 10.46,135.78 C9.21333333,128.26 7.96,120.736667 6.7,113.21 C5.89,108.32 5.09,103.21 6.12,98.44 C5.77785596,99.1712042 5.48063727,99.9225998 5.23,100.69 C3.53,106 4.44,111.75 5.35,117.25 C6.61,124.783333 7.86333333,132.306667 9.11,139.82 Z" id="Path"></path>
                <path d="M27.17,65.27 C29.1,57.53 23.17,49.94 23.06,41.97 C23.0765111,40.1161804 23.3422252,38.2729987 23.85,36.49 C22.5430814,39.5031754 21.8202763,42.7371343 21.72,46.02 C21.79,53.62 27.2,60.87 26.03,68.25 C26.5198204,67.3022337 26.9021932,66.3026977 27.17,65.27 Z" id="Path"></path>
            </g>
            <path d="M845.16,649.24 C833.93,686.53 808.76,700.91 808.76,700.91 C808.76,700.91 781.35,726.08 775.5,739.14 C769.65,752.2 752.14,748.58 744.96,739.14 C737.78,729.7 715.3,733.31 715.3,733.31 L681.14,736 C681.14,736 619.24,744.21 598.46,729.83 C577.68,715.45 563.86,715.34 563.86,715.34 C563.86,715.34 547.68,722.52 529.27,723.43 C520.524315,724.012599 511.833841,725.242635 503.27,727.11 C498.5,728.11 494.33,729.11 491.34,729.82 C488.35,730.53 486.57,731.06 486.57,731.06 L440.81,726.45 L397.59,722.08 L374.23,718.92 L368.1,705.58 L362.2,692.76 L360.2,688.38 L363,642.57 L436.7,642.57 C436.7,642.57 513.56,646.57 523.43,646.57 L525.67,646.57 C525.67,646.57 537.96,641.65 558.02,653.75 C560.577636,655.184416 563.25422,656.395571 566.02,657.37 C597.9,669.28 687.47,684.76 687.47,684.76 L745.47,681.16 C745.47,681.16 778.08,669.28 796.47,661.45 C802.6,658.83 807.16,656.66 808.38,655.55 C813.25,651.04 856.39,611.94 845.16,649.24 Z" id="Path" fill="#FFC1C7"></path>
            <path d="M388.33,687.6 L391.88,700.24 L379.74,706.82 L368.11,705.54 L362.21,692.72 L360.21,688.34 L363.01,642.53 L436.66,642.53 C421.29,643.91 388.33,687.6 388.33,687.6 Z" id="Path" fill="#000000" opacity="0.1"></path>
            <path d="M386.98,687.6 L390.53,700.24 L378.4,706.82 L347.73,703.45 L331.21,690.14 C304.21,646.33 271.56,646.14 271.56,646.14 C271.56,646.14 275.61,640.23 275.44,634.84 C275.27,629.45 281.38,615.63 281.38,615.63 L281.96,615.35 C284.02,614.35 291.01,610.89 291.45,610.74 C291.45,610.74 430.12,633.15 432.82,634 C433.51689,634.289232 434.087761,634.817554 434.43,635.49 C436,637.95 436.7,642.49 436.7,642.49 C422.06,641.14 386.98,687.6 386.98,687.6 Z" id="Path" fill="#501BE3"></path>
            <path d="M550.84,500.5 C546.76559,500.414594 542.691217,500.672169 538.66,501.27 C531.95,502.36 525.52,504.91 528.37,510.84 C533.76,522.07 499.61,541.84 499.61,541.84 L451.97,572.4 L422.31,527.46 L437.6,491.06 L480.28,469.49 L503.66,458.27 C503.66,458.27 512.92,461.64 521.06,461.45 C524.82,461.37 528.35,460.53 530.62,458.27 C537.8,451.08 550.84,500.5 550.84,500.5 Z" id="Path" fill="#FFC1C7"></path>
            <path d="M550.84,500.5 C546.76559,500.414594 542.691217,500.672169 538.66,501.27 C527.407453,493.366828 520.718593,480.470617 520.74,466.72 C520.735133,464.958334 520.842015,463.198134 521.06,461.45 C524.82,461.37 528.35,460.53 530.62,458.27 C537.8,451.08 550.84,500.5 550.84,500.5 Z" id="Path" fill="#000000" opacity="0.1"></path>
            <path d="M607.9,466.72 C607.902652,477.922745 603.454923,488.667708 595.535262,496.59112 C587.615601,504.514532 576.872745,508.967348 565.67,508.97 C563.712799,508.970656 561.757976,508.833652 559.82,508.56 C537.819995,505.510767 521.939368,485.944891 523.480959,463.788142 C525.02255,441.631392 543.459702,424.45323 565.67,424.48 C567.286972,424.484367 568.902575,424.574494 570.51,424.75 C591.819329,427.222135 607.895708,445.267752 607.9,466.72 Z" id="Path" fill="#FFC1C7"></path>
            <path d="M796.63,662.27 C796.63,667.63 768.14,678.52 743.57,686.92 C726.336074,692.666252 708.216507,695.297331 690.06,694.69 C688.592252,694.614425 687.12117,694.745712 685.69,695.08 C678.95,696.87 591.33,676.2 591.33,676.2 C591.33,676.2 573.44,667.9 566.04,657.35 C597.92,669.26 687.49,684.74 687.49,684.74 L745.49,681.14 C745.49,681.14 778.1,669.26 796.49,661.43 C796.612666,661.69191 796.661092,661.982464 796.63,662.27 Z" id="Path" fill="#000000" opacity="0.1"></path>
            <path d="M532.41,514.98 C532.41,514.98 538.7,531.51 546.79,535.55 C554.88,539.59 571.05,555.77 569.71,576.89 C569.71,576.89 567.01,582.74 575.55,594.89 C584.09,607.04 604.76,633.53 604.76,633.53 C604.76,633.53 646.99,648.36 660.47,657.35 L660.52,657.35 C671.119337,658.87232 681.536302,661.469023 691.61,665.1 C697.37,667.1 704.42,669.03 710.8,669.03 C724.73,669.03 796.63,650.16 796.63,659.59 C796.63,664.96 768.14,675.85 743.56,684.25 C726.326713,689.981989 708.211208,692.602812 690.06,691.99 C688.592349,691.919354 687.121947,692.05058 685.69,692.38 C678.95,694.17 591.32,673.5 591.32,673.5 C591.32,673.5 572.85,664.97 565.66,654.14 C558.47,643.31 540.06,629.47 540.06,629.47 C540.06,629.47 519.84,595.32 518.06,587.23 C518.06,587.23 507.73,581.39 480.76,590.37 C453.79,599.35 474.89,570.14 474.89,570.14 L505,535.14 L532.41,514.98 Z" id="Path" fill="#FFC1C7"></path>
            <path d="M540.95,527.47 L531.56,504.63 C522.811829,510.183579 514.664706,516.631569 507.25,523.87 C496.01,535.1 488.37,541.87 482.98,543.19 C477.59,544.51 459.17,553.89 451.53,534.61 C443.89,515.33 447.03,502.3 454.22,496.01 C461.41,489.72 510.06,460.14 510.06,460.14 L503.67,459.65 C503.67,459.65 459.19,475.22 445.26,468.11 C445.26,468.11 420.54,472.24 415.15,463.25 C409.76,454.26 404.67,452.84 404.67,452.84 L372.01,496.95 L383.7,594.46 L413.8,594.46 L446.15,581.88 L489.29,578.28 C489.29,578.28 505.47,563 507.72,555.81 C509.97,548.62 527.06,525.22 540.95,527.47 Z" id="Path" fill="#000000" opacity="0.1"></path>
            <path d="M540.95,526.14 L531.56,503.3 C522.811829,508.853579 514.664706,515.301569 507.25,522.54 C496.01,533.78 488.37,540.54 482.98,541.86 C477.59,543.18 459.17,552.56 451.53,533.28 C443.89,514 447.03,500.97 454.22,494.68 C461.41,488.39 510.06,460.14 510.06,460.14 L503.67,458.31 C503.67,458.31 459.19,473.87 445.26,466.76 C445.26,466.76 420.54,470.89 415.15,461.9 C409.76,452.91 404.67,451.49 404.67,451.49 L372.01,495.6 L383.7,593.11 L413.8,593.11 L446.15,580.53 L489.29,576.93 C489.29,576.93 505.47,561.66 507.72,554.47 C509.97,547.28 527.06,523.87 540.95,526.14 Z" id="Path" fill="#501BE3"></path>
            <path d="M434.43,635.51 C433.91,637.99 433.49,639.58 433.49,639.58 C433.49,639.58 431.64,638.9 408.9,643.29 C386.16,647.68 363.57,643.29 363.57,643.29 C350.362514,641.758657 337.291203,639.221285 324.47,635.7 C304.93,630.14 279.31,623.56 281.47,616.7 C281.61,616.3 281.75,615.85 281.92,615.41 C283.98,614.41 290.97,610.95 291.41,610.8 C291.41,610.8 430.08,633.21 432.78,634.06 C433.485233,634.331241 434.070387,634.845468 434.43,635.51 Z" id="Path" fill="#000000" opacity="0.1"></path>
            <path d="M531.56,504.63 L539.36,522.26 C539.36,522.26 527.36,515.89 512.02,542.01 C496.68,568.13 494.66,571.84 494.66,571.84 C494.66,571.84 483.88,579.2 486.58,588.58 C486.58,588.58 454.64,599.58 433.58,592.31 C433.58,592.31 428.86,606.55 429.37,616.16 C429.684569,621.291137 429.711278,626.435873 429.45,631.57 C429.45,631.57 435.45,627.02 412.69,631.41 C389.93,635.8 367.36,634.52 367.36,634.52 C354.942176,632.49445 342.649132,629.766743 330.54,626.35 C310.99,620.79 280.66,622.22 282.85,615.35 C285.04,608.48 292.29,595.47 292.29,595.47 C292.29,595.47 297.51,592.47 297.29,589.57 C297.07,586.67 306.9,578.28 306.9,578.28 C306.9,578.28 312.96,573.23 312.12,569.01 C311.28,564.79 318.02,557.89 318.02,557.89 L330.83,532.79 C330.83,532.79 341.61,509.36 349.03,508.35 C356.45,507.34 370.09,485.77 370.09,485.77 C370.09,485.77 394.35,466.23 394.52,462.18 C394.69,458.13 406.65,450.89 406.65,450.89 C406.65,450.89 408.58,467.43 424.65,468.11 C440.72,468.79 461.95,468.11 461.95,468.11 L503.64,458.31 C503.64,458.31 485.38,474.82 481.16,476 C476.94,477.18 464.26,486.28 457.8,488 C451.34,489.72 438.21,498.54 438.72,511.14 C439.23,523.74 443.61,530.14 443.61,530.14 C443.61,530.14 456.75,555.14 469.89,552.14 C469.89,552.14 484.57,552.93 490.45,544.22 C496.33,535.51 531.56,504.63 531.56,504.63 Z" id="Path" fill="#000000" opacity="0.1"></path>
            <path d="M505,456.92 L503.86,457.79 L502.55,458.79 L480.29,469.48 L449.74,478.03 L430.41,480.27 L397.61,457.54 C397.61,457.54 401.4,454 406.97,449.54 C407.87,453.54 411.54,464.78 424.68,465.33 C440.73,466.02 461.98,465.33 461.98,465.33 L504.16,457.04 L505,456.92 Z" id="Path" fill="#000000" opacity="0.1"></path>
            <path d="M531.56,503.28 L539.36,522.28 C539.36,522.28 526.01,514.57 510.67,540.69 C495.33,566.81 493.32,570.51 493.32,570.51 C493.32,570.51 483.88,579.22 486.58,588.6 C486.58,588.6 457.42,603.37 436.36,596.12 C436.36,596.12 435.86,604.89 436.36,614.49 C436.86,624.09 433.5,636.9 433.5,636.9 C433.5,636.9 431.64,636.23 408.89,640.61 C386.14,644.99 363.57,640.61 363.57,640.61 C350.362317,639.084909 337.290784,636.550837 324.47,633.03 C304.93,627.47 279.31,620.89 281.47,614.03 C283.63,607.17 290.91,594.14 290.91,594.14 C290.91,594.14 296.13,591.14 295.97,588.24 C295.81,585.34 305.57,576.95 305.57,576.95 C305.57,576.95 311.64,571.95 310.79,567.69 C309.94,563.43 316.69,556.56 316.69,556.56 L329.5,531.46 C329.5,531.46 340.28,508.03 347.7,507.02 C355.12,506.01 368.76,484.44 368.76,484.44 C368.76,484.44 393.06,464.84 393.22,460.79 C393.38,456.74 405.36,449.5 405.36,449.5 C405.36,449.5 407.28,466.04 423.36,466.72 C439.44,467.4 460.67,466.72 460.67,466.72 L503.67,458.27 C503.67,458.27 484.07,473.43 479.86,474.61 C475.65,475.79 462.95,484.89 456.49,486.61 C450.03,488.33 436.89,497.23 437.39,509.87 C437.89,522.51 442.28,528.87 442.28,528.87 C442.28,528.87 455.42,553.81 468.57,550.78 C468.57,550.78 483.24,551.56 489.12,542.86 C495,534.16 531.56,503.28 531.56,503.28 Z" id="Path" fill="#02689A"></path>
            <path d="M400.81,564.42 C400.81,564.42 417.32,595.09 424.9,598.42 C432.48,601.75 430.97,596.06 430.97,596.06 C430.97,596.06 403.17,571.14 400.81,564.42 Z" id="Path" fill="#000000" opacity="0.1"></path>
            <path d="M368.96,587.68 C368.96,587.68 385.14,613.46 397.1,613.46 L368.96,587.68 Z" id="Path" fill="#000000" opacity="0.1"></path>
            <path d="M333.4,555.83 C333.4,555.83 352.28,615.48 386.99,620.2 C386.99,620.2 341.66,586.84 333.4,555.83 Z" id="Path" fill="#000000" opacity="0.1"></path>
            <path d="M336.77,607.39 C336.77,607.39 367.95,632.16 386.99,628.46 C386.99,628.46 354.47,622.9 336.77,607.39 Z" id="Path" fill="#000000" opacity="0.1"></path>
            <path d="M313.63,649.89 C313.63,649.89 344.8,674.66 363.85,670.95 C363.85,670.95 331.32,665.39 313.63,649.89 Z" id="Path" fill="#000000" opacity="0.1"></path>
            <path d="M321.78,663.95 C321.78,663.95 352.95,688.72 371.99,685.02 C371.99,685.02 339.47,679.46 321.78,663.95 Z" id="Path" fill="#000000" opacity="0.1"></path>
            <path d="M326.49,641.14 C326.49,641.14 357.66,665.88 376.7,662.14 C376.7,662.14 344.18,656.61 326.49,641.14 Z" id="Path" fill="#000000" opacity="0.1"></path>
            <polygon id="Path" fill="#000000" opacity="0.1" points="470.06 494.49 450.52 519.6 453.21 524.65"></polygon>
            <path d="M607.9,466.72 C607.902652,477.922745 603.454923,488.667708 595.535262,496.59112 C587.615601,504.514532 576.872745,508.967348 565.67,508.97 C563.712799,508.970656 561.757976,508.833652 559.82,508.56 C560.443265,507.848758 560.964899,507.054528 561.37,506.2 C562.62,502.71 557.37,499.07 559.02,495.73 C559.87,493.95 562.16,493.5 564.13,493.45 C566.1,493.4 568.29,493.45 569.72,492.09 C571.37,490.5 571.14,487.88 571.56,485.63 C572.22,482.21 574.62,479.36 577.23,477.03 C579.84,474.7 582.76,472.69 585.01,470.03 C588.46,465.93 590.08,460.57 590.51,455.23 C590.79,451.78 590.51,448.11 588.69,445.23 C586.69,442.14 583.26,440.4 580.12,438.5 C577.199228,436.884414 574.656125,434.665165 572.66,431.99 C571.38,430.11 570.1,427.18 570.51,424.8 C591.800392,427.269918 607.870351,445.286839 607.9,466.72 Z" id="Path" fill="#000000" opacity="0.1"></path>
            <path d="M631.06,468.79 C630.894503,469.491279 630.628413,470.164923 630.27,470.79 C630.17,470.97 630.05,471.16 629.94,471.35 L629.33,472.28 C628.368546,473.482341 627.73158,474.911209 627.48,476.43 C627.36,478.28 628.37,479.97 629.03,481.73 L629.14,482.04 C629.230361,482.288985 629.30714,482.542692 629.37,482.8 C629.777646,484.53888 629.64151,486.360999 628.98,488.02 C628.256617,489.871364 627.187611,491.568199 625.83,493.02 C623.28,495.77 620.07,497.85 617.5,500.57 C615.58,502.57 614.03,504.94 612.13,506.96 C607.63,511.72 601.33,514.45 594.92,515.75 C589.902115,516.654049 584.807948,517.066004 579.71,516.98 L575.36,516.98 C574.678849,517.020604 573.996898,516.914902 573.36,516.67 C572.62536,516.177045 571.990825,515.549297 571.49,514.82 C568.87,511.82 564.49,511.25 560.49,510.91 C560.405595,510.139243 560.644574,509.367993 561.15,508.78 C561.796896,508.013282 562.347647,507.170364 562.79,506.27 C564.05,502.77 558.79,499.14 560.45,495.78 C560.603377,495.464331 560.813545,495.179587 561.07,494.94 C561.237498,494.771625 561.421791,494.620839 561.62,494.49 C562.822044,493.814739 564.181422,493.469719 565.56,493.49 C566.3,493.49 567.07,493.49 567.82,493.4 C569.010307,493.353141 570.150769,492.909628 571.06,492.14 C572.71,490.57 572.48,487.94 572.9,485.7 C573.56,482.26 575.96,479.42 578.57,477.1 C581.18,474.78 584.1,472.76 586.35,470.1 C589.8,466.01 591.42,460.63 591.85,455.31 C592.13,451.86 591.85,448.18 590.03,445.31 C588.29,442.61 585.43,440.94 582.64,439.31 L581.46,438.61 C579.29274,437.360431 577.304676,435.82313 575.55,434.04 C575.004642,433.375853 574.506743,432.674117 574.06,431.94 C572.81,430.1 571.57,427.27 571.88,424.94 C571.892022,424.784477 571.91881,424.63045 571.96,424.48 C572.55,421.91 575.09,421.88 577.5,421.56 C578.15,421.48 578.79,421.41 579.44,421.37 C580.399212,421.314989 581.360788,421.314989 582.32,421.37 C586.429241,421.523912 590.447236,422.625952 594.06,424.59 C595.4,425.32 596.68,426.17 598.06,426.8 C601.34,428.27 605.06,428.46 608.44,429.54 C615.28,431.68 620.59,437.28 623.96,443.6 C627.33,449.92 629.01,456.97 630.66,463.93 C631.14964,465.500769 631.286227,467.160311 631.06,468.79 Z" id="Path" fill="#000000"></path>
            <path d="M503.28,727.07 C503.071132,727.979545 502.734452,728.85491 502.28,729.67 C502.28,729.67 497.82,729.83 491.28,729.78 C482.35,729.71 469.59,729.25 459.28,727.43 C453.132146,726.544173 446.91743,726.209509 440.71,726.43 L397.49,722.06 L374.13,718.9 L362.13,692.74 C369.07,693.12 375.05,692.85 375.05,692.85 C388.32,680.27 400.67,682.29 407.41,687.75 C414.15,693.21 426.74,697.56 427.63,697.56 C428.23,697.56 448.1,697.98 460.88,698.24 C470.779808,698.387327 480.488955,700.984679 489.14,705.8 C504.06,714.14 504.28,722.86 503.28,727.07 Z" id="Path" fill="#000000" opacity="0.1"></path>
            <path d="M281.37,642.54 L271.56,646.14 C271.56,646.14 244.38,627.44 204.61,636.2 C164.84,644.96 167.54,668.33 167.54,668.33 C167.54,668.33 169.11,696.97 180.54,706.8 C191.97,716.63 199.19,717.08 205.7,724.5 C212.21,731.92 245.92,735.28 245.92,735.28 C245.92,735.28 312.65,738.65 348.6,735.28 C384.55,731.91 400.78,731.91 400.78,731.91 C400.78,731.91 440.26,726.97 458.01,730.11 C475.76,733.25 500.93,732.36 500.93,732.36 C500.93,732.36 508.35,720.08 487.84,708.47 C479.19132,703.648841 469.480674,701.051088 459.58,700.91 C446.81,700.64 426.94,700.23 426.33,700.23 C425.43,700.23 412.85,695.88 406.11,690.42 C399.37,684.96 387.02,682.93 373.76,695.51 C373.76,695.51 344.33,696.86 340.28,689.45 C336.23,682.04 315.34,658.78 315.34,658.78 L281.37,642.54 Z" id="Path" fill="#FFC1C7"></path>
            <path d="M330.2,686.68 C330.2,686.68 329.98,690.75 339.08,690.08 C347.5,689.45 314.14,659.41 314.14,659.41 L280.14,643.16 L270.33,646.77 C270.33,646.77 303.24,642.87 330.2,686.68 Z" id="Path" fill="#000000" opacity="0.1"></path>
            <path d="M331.55,685.33 C331.55,685.33 331.33,689.4 340.43,688.73 C348.85,688.11 315.49,658.06 315.49,658.06 L281.49,641.81 L271.67,645.42 C271.67,645.42 304.59,641.52 331.55,685.33 Z" id="Path" fill="#501BE3"></path>
            <path d="M234.94,657.55 C234.94,657.55 244.6,652.61 258.76,658.79 C263.815905,660.967125 269.022861,662.775188 274.34,664.2 C282.86637,666.501649 291.050724,669.921324 298.68,674.37 C308.54,680.1 321.92,686.98 329.36,686.98" id="Path" stroke="#000000" opacity="0.1"></path>
            <path d="M578.06,516.9 C577.378572,516.946762 576.695297,516.840855 576.06,516.59 C575.320881,516.102545 574.685374,515.473835 574.19,514.74 C571.57,511.74 567.14,511.17 563.19,510.84 C562.87,509.1 564.88,507.84 565.48,506.2 C566.75,502.7 561.48,499.07 563.14,495.72 C564,493.95 566.29,493.5 568.26,493.45 C570.23,493.4 572.42,493.45 573.84,492.08 C575.49,490.5 575.26,487.87 575.69,485.63 C576.34,482.2 578.74,479.35 581.35,477.03 C583.96,474.71 586.89,472.69 589.14,470.03 C592.58,465.94 594.2,460.57 594.64,455.24 C594.92,451.78 594.64,448.11 592.81,445.19 C590.81,442.11 587.38,440.37 584.24,438.46 C581.319228,436.844414 578.776125,434.625165 576.78,431.95 C575.46,430.01 574.12,426.95 574.68,424.5 C575.24,422.05 577.82,421.9 580.23,421.58 C580.94,421.48 581.64,421.42 582.36,421.38 C580.747246,421.306597 579.131164,421.373516 577.53,421.58 C575.12,421.9 572.53,421.93 571.98,424.5 C571.43,427.07 572.76,430.01 574.09,431.95 C576.086125,434.625165 578.629228,436.844414 581.55,438.46 C584.6,440.35 588.06,442.14 590.06,445.14 C591.93,448.06 592.17,451.73 591.89,455.19 C591.45,460.52 589.89,465.89 586.39,469.98 C584.14,472.66 581.22,474.67 578.61,476.98 C576,479.29 573.61,482.15 572.94,485.58 C572.51,487.82 572.74,490.45 571.1,492.03 C569.68,493.39 567.48,493.35 565.51,493.4 C563.54,493.45 561.25,493.9 560.39,495.67 C558.77,499.02 564,502.67 562.74,506.15 C562.13,507.81 560.13,509.05 560.44,510.79 C564.44,511.12 568.86,511.66 571.44,514.69 C571.929856,515.428392 572.566383,516.058112 573.31,516.54 C573.944665,516.793178 574.628472,516.899168 575.31,516.85 C576.76,516.85 578.22,516.85 579.68,516.85 L578.06,516.9 Z" id="Path" fill="#000000" opacity="0.1"></path>
            <path d="M629.55,489.53 C629.95,488.25 630.4,486.82 630.84,485.3 C632.132594,481.278348 633.112182,477.16274 633.77,472.99 C632.548687,472.307087 631.262324,471.747653 629.93,471.32 C630.04,471.13 630.16,470.94 630.26,470.76 L629.36,471.13 C629.36,471.13 629.36,471.55 629.36,472.25 C629.29,474.15 629.15,478.17 629.06,481.7 C629.06,481.76 629.06,481.81 629.06,481.86 C628.99,484.65 628.95,487.12 629.06,488 L629.55,489.53 Z" id="Path" fill="#565988"></path>
            <ellipse id="Oval" fill="#6C63FF" opacity="0.1" cx="917.6" cy="705.66" rx="43.52" ry="5.98"></ellipse>
            <path d="M935.25,698.21 C937.08,696.51 938.79,694.51 939.32,692.07 C939.85,689.63 938.8,686.7 936.47,685.81 C933.86,684.81 931.07,686.63 928.96,688.45 C926.85,690.27 924.42,692.37 921.65,691.98 C924.535514,689.349358 925.82985,685.398029 925.06,681.57 C924.929931,680.784205 924.583671,680.050134 924.06,679.45 C922.61,677.9 919.98,678.57 918.25,679.79 C912.73,683.67 911.19,691.17 911.16,697.92 C910.6,695.48 911.07,692.92 911.06,690.45 C911.05,687.98 910.36,685.18 908.25,683.84 C906.936014,683.136306 905.459759,682.791387 903.97,682.84 C901.49,682.75 898.73,682.99 897.03,684.84 C894.93,687.09 895.47,690.84 897.31,693.36 C899.15,695.88 901.92,697.36 904.49,699.11 C906.545116,700.338887 908.298202,702.013375 909.62,704.01 C909.772389,704.288072 909.899564,704.579236 910,704.88 L925.56,704.88 C929.079921,703.110421 932.340339,700.866149 935.25,698.21 Z" id="Path" fill="#7ED321"></path>
            <ellipse id="Oval" fill="#6C63FF" opacity="0.1" cx="1056.75" cy="731.33" rx="43.52" ry="5.98"></ellipse>
            <path d="M1074.4,723.88 C1076.23,722.18 1077.94,720.18 1078.47,717.74 C1079,715.3 1077.95,712.37 1075.62,711.48 C1073.01,710.48 1070.22,712.29 1068.11,714.12 C1066,715.95 1063.57,718.04 1060.8,717.65 C1063.69816,715.022549 1065.00418,711.066513 1064.24,707.23 C1064.10766,706.447894 1063.76157,705.717635 1063.24,705.12 C1061.79,703.57 1059.16,704.23 1057.43,705.46 C1051.91,709.34 1050.37,716.84 1050.34,723.58 C1049.78,721.15 1050.25,718.58 1050.24,716.12 C1050.23,713.66 1049.54,710.85 1047.43,709.51 C1046.11635,708.805414 1044.63985,708.460438 1043.15,708.51 C1040.67,708.42 1037.91,708.67 1036.21,710.51 C1034.11,712.76 1034.65,716.51 1036.49,719.03 C1038.33,721.55 1041.1,723.03 1043.67,724.78 C1045.72699,726.00642 1047.48058,727.681387 1048.8,729.68 C1048.95653,729.956021 1049.08388,730.247594 1049.18,730.55 L1064.74,730.55 C1068.24722,728.774416 1071.49694,726.530562 1074.4,723.88 Z" id="Path" fill="#7ED321"></path>
            <ellipse id="Oval" fill="#6C63FF" opacity="0.1" cx="969.7" cy="785.3" rx="43.52" ry="5.98"></ellipse>
            <path d="M987.35,777.85 C989.18,776.15 990.89,774.15 991.42,771.71 C991.95,769.27 990.91,766.35 988.58,765.46 C985.96,764.46 983.17,766.27 981.06,768.09 C978.95,769.91 976.52,772.01 973.75,771.62 C976.646462,768.995692 977.952498,765.043416 977.19,761.21 C977.059931,760.424205 976.713671,759.690134 976.19,759.09 C974.74,757.54 972.12,758.21 970.38,759.43 C964.86,763.31 963.32,770.81 963.29,777.56 C962.73,775.12 963.2,772.56 963.19,770.09 C963.18,767.62 962.49,764.82 960.38,763.48 C959.069647,762.776239 957.596583,762.431259 956.11,762.48 C953.62,762.39 950.86,762.64 949.17,764.48 C947.06,766.74 947.61,770.48 949.44,773 C951.27,775.52 954.06,777 956.62,778.75 C958.676783,779.976695 960.430315,781.651609 961.75,783.65 C961.910754,783.923887 962.038319,784.215943 962.13,784.52 L977.69,784.52 C981.199386,782.748067 984.449581,780.503885 987.35,777.85 Z" id="Path" fill="#7ED321"></path>
            <ellipse id="Oval" fill="#6C63FF" opacity="0.1" cx="87.05" cy="695.9" rx="43.52" ry="5.98"></ellipse>
            <path d="M104.69,688.45 C106.52,686.75 108.24,684.75 108.76,682.31 C109.28,679.87 108.25,676.94 105.92,676.05 C103.31,675.05 100.52,676.86 98.4,678.69 C96.28,680.52 93.86,682.61 91.09,682.22 C93.991616,679.594801 95.2982998,675.636764 94.53,671.8 C94.394217,671.018984 94.0485435,670.289613 93.53,669.69 C92.08,668.14 89.45,668.8 87.71,670.03 C82.19,673.91 80.65,681.41 80.62,688.15 C80.07,685.72 80.54,683.15 80.52,680.69 C80.5,678.23 79.82,675.42 77.72,674.08 C76.4060137,673.376306 74.9297589,673.031387 73.44,673.08 C70.96,672.99 68.19,673.24 66.5,675.08 C64.39,677.33 64.94,681.08 66.77,683.6 C68.6,686.12 71.39,687.6 73.96,689.35 C76.0169924,690.57642 77.7705803,692.251387 79.09,694.25 C79.242389,694.528072 79.3695638,694.819236 79.47,695.12 L95.06,695.12 C98.5566841,693.342089 101.796186,691.098322 104.69,688.45 Z" id="Path" fill="#7ED321"></path>
            <ellipse id="Oval" fill="#6C63FF" opacity="0.1" cx="43.52" cy="780.71" rx="43.52" ry="5.98"></ellipse>
            <path d="M61.17,773.26 C63,771.56 64.71,769.56 65.24,767.12 C65.77,764.68 64.73,761.75 62.4,760.86 C59.78,759.86 56.99,761.67 54.88,763.5 C52.77,765.33 50.34,767.42 47.57,767.03 C50.486424,764.413149 51.8119652,760.455515 51.06,756.61 C50.9276634,755.827894 50.5815691,755.097635 50.06,754.5 C48.61,752.95 45.99,753.61 44.25,754.84 C38.73,758.72 37.19,766.22 37.16,772.97 C36.6,770.53 37.07,767.97 37.06,765.5 C37.05,763.03 36.36,760.23 34.25,758.89 C32.9413633,758.181709 31.4670564,757.836438 29.98,757.89 C27.49,757.79 24.73,758.04 23.04,759.89 C20.93,762.14 21.48,765.89 23.31,768.41 C25.14,770.93 27.93,772.41 30.49,774.16 C32.549102,775.383643 34.3032576,777.059152 35.62,779.06 C35.7807542,779.333887 35.9083191,779.625943 36,779.93 L51.55,779.93 C55.0431735,778.151315 58.2792699,775.907577 61.17,773.26 Z" id="Path" fill="#7ED321"></path>
        </g>
    </g>
</svg>